<svg width="49" height="39" viewBox="0 0 49 39" fill="none" xmlns="http://www.w3.org/2000/svg">
<path d="M47.25 11.25V6.25H43.25M3.25 6.25H1.25V35.25H18.25L20.25 37.25H28.25L30.25 35.25H47.25V25.25M9.25 3.25H5.25V31.25H18.25C20.15 31.25 21.55 32.25 22.25 33.25H24.25M24.25 33.25V9.25M24.25 33.25H26.25C27.05 31.75 28.35 31.25 30.25 31.25H43.25V28.25M24.25 9.25C24.25 6.05 22.25 3.25 18.25 3.25H15.25M24.25 9.25C24.25 6.05 26.25 3.25 30.25 3.25H43.25V8.25M9.25 13.25L12.25 11.25L15.25 13.25V1.25H9.25V13.25ZM40.25 18.25C40.25 19.9069 38.9069 21.25 37.25 21.25C35.5931 21.25 34.25 19.9069 34.25 18.25C34.25 16.5931 35.5931 15.25 37.25 15.25C38.9069 15.25 40.25 16.5931 40.25 18.25ZM44.25 18.25C44.25 17.65 44.15 17.15 44.05 16.65L46.05 15.55L44.05 12.05L42.05 13.15C41.25 12.35 40.25 11.85 39.25 11.55V9.25H35.25V11.55C34.15 11.85 33.25 12.45 32.45 13.15L30.45 12.05L28.45 15.55L30.45 16.75C30.35 17.25 30.25 17.75 30.25 18.35C30.25 18.95 30.35 19.45 30.45 19.95L28.45 21.15L30.45 24.65L32.45 23.45C33.25 24.15 34.15 24.75 35.25 25.05V27.25H39.25V24.95C40.35 24.65 41.25 24.05 42.05 23.35L44.05 24.55L46.05 21.05L44.05 19.95C44.15 19.35 44.25 18.75 44.25 18.25Z" stroke="url(#paint0_linear_624_64)" stroke-width="2.5" stroke-miterlimit="10" stroke-linejoin="round"/>
<defs>
<linearGradient id="paint0_linear_624_64" x1="1.25" y1="37.25" x2="48.8252" y2="32.5309" gradientUnits="userSpaceOnUse">
<stop stop-color="#9311FF"/>
<stop offset="1" stop-color="#BD1CFF"/>
</linearGradient>
</defs>
</svg>
