<svg width="48" height="40" viewBox="0 0 48 40" fill="none" xmlns="http://www.w3.org/2000/svg">
<path d="M43.9 31.8C44.9 31.3 45.7 30.3 46.7 28.4C44.1 26.8 41.4 27.7 39.5 31.2M44.9 24.3C46 23.5 46.8 21.9 47 19.2C43.9 19 41.6 21.2 41.4 25.1M44.2 16.6C45 15.4 45.2 13.6 44.4 11C41.5 12 40.1 15 41.2 18.7M4.1 31.8C3.1 31.3 2.3 30.3 1.3 28.4C3.9 26.8 6.6 27.7 8.5 31.2M3.1 24.3C2 23.4 1.2 21.9 1 19.2C4.1 19 6.4 21.2 6.6 25.1M3.8 16.5C3 15.3 2.8 13.5 3.6 10.9C6.5 11.9 7.9 14.9 6.8 18.6M17 30H12V1H36V30H31M26 31L28 38L24 36L20 38L22 31M17 14H31M20 10H28M35.9 36.3C37.7 38.1 40.4 39.4 43.7 35.6C41.5 33.3 38.4 33.4 35.9 36.3ZM12.1 36.2C10.3 38 7.6 39.3 4.3 35.5C6.5 33.3 9.6 33.4 12.1 36.2ZM29 27C29 29.7614 26.7614 32 24 32C21.2386 32 19 29.7614 19 27C19 24.2386 21.2386 22 24 22C26.7614 22 29 24.2386 29 27Z" stroke="url(#paint0_linear_624_80)" stroke-width="2" stroke-miterlimit="10" stroke-linejoin="round"/>
<defs>
<linearGradient id="paint0_linear_624_80" x1="0.999999" y1="38.0559" x2="48.6012" y2="33.4688" gradientUnits="userSpaceOnUse">
<stop stop-color="#9311FF"/>
<stop offset="1" stop-color="#BD1CFF"/>
</linearGradient>
</defs>
</svg>
