<svg width="49" height="36" viewBox="0 0 49 36" fill="none" xmlns="http://www.w3.org/2000/svg">
<path d="M48.7392 19.8338C48.7305 19.6314 48.6811 19.3754 48.512 19.1255L36.7549 1.64306C35.8566 0.307287 34.1852 -0.296377 32.5956 0.140728C31.0015 0.579207 29.8882 2 29.8882 3.59579V5.93111C29.8882 6.69006 30.5274 7.30536 31.3159 7.30536C32.1043 7.30536 32.7435 6.69006 32.7435 5.93111V3.59579C32.7435 3.22062 33.0053 2.88649 33.3801 2.78342C33.7537 2.68063 34.1468 2.82254 34.358 3.13661L44.6886 18.4979H31.0242C28.0353 18.4979 25.6037 20.8386 25.6037 23.7156V24.0086C24.9612 23.7981 23.9384 23.7414 23.1376 24.0063V23.7155C23.1376 20.8385 20.706 18.4978 17.7171 18.4978H4.05251L14.3832 3.13651C14.5944 2.82245 14.9873 2.68072 15.361 2.78333C15.7358 2.8864 15.9975 3.22043 15.9975 3.5957V5.93102C15.9975 6.68997 16.6367 7.30527 17.4252 7.30527C18.2137 7.30527 18.8529 6.68997 18.8529 5.93102V3.5957C18.8529 1.99982 17.7395 0.579024 16.1453 0.140636C14.5559 -0.296377 12.8844 0.307287 11.9861 1.64297L0.22919 19.1255C0.110217 19.3159 -9.51171e-05 19.5554 6.1546e-08 19.8723V27.8023C6.1546e-08 30.8083 1.2299 33.0308 3.65562 34.4079C5.54292 35.4792 8.11217 36 11.5105 36H11.6271C15.0255 36 17.5947 35.4792 19.482 34.4079C21.9076 33.0308 23.1376 30.8083 23.1376 27.8023V27.3815C23.3191 27.0861 23.7276 26.5703 24.3671 26.5703C25.0083 26.5703 25.4201 27.0871 25.6037 27.3838V27.8023C25.6037 30.8083 26.8336 33.0308 29.2593 34.4079C31.1465 35.4792 33.7159 36 37.1142 36H37.2308C40.6292 36 43.1985 35.4792 45.0857 34.4079C47.5114 33.0308 48.7413 30.8083 48.7413 27.8023V19.8723C48.7412 19.8593 48.7395 19.8467 48.7392 19.8338ZM20.2822 27.8023C20.2822 30.3393 19.2984 33.2515 11.627 33.2515H11.5104C3.83903 33.2515 2.85526 30.3393 2.85526 27.8023V21.2465H17.7169C19.1314 21.2465 20.2821 22.3542 20.2821 23.7157V27.8023H20.2822ZM45.8859 27.8023C45.8859 30.3393 44.9021 33.2515 37.2307 33.2515H37.1141C29.4427 33.2515 28.459 30.3393 28.459 27.8023V23.7158C28.459 22.3543 29.6097 21.2466 31.0241 21.2466H45.8858V27.8023H45.8859Z" fill="url(#paint0_linear_63_4696)"/>
<defs>
<linearGradient id="paint0_linear_63_4696" x1="-6.54144e-07" y1="36" x2="50.3502" y2="30.708" gradientUnits="userSpaceOnUse">
<stop stop-color="#9311FF"/>
<stop offset="1" stop-color="#BD1CFF"/>
</linearGradient>
</defs>
</svg>
