<svg width="510" height="531" viewBox="0 0 510 531" fill="none" xmlns="http://www.w3.org/2000/svg">
<path d="M251.425 13.1787H46.8306V270.234H251.425V13.1787Z" fill="#E1E1E1"/>
<path d="M245.156 20.4727H54.252V262.813H245.156V20.4727Z" fill="#FAFAFA"/>
<path d="M54.252 198.965H92.7654L97.6276 221.485H114.261L128.464 157.253H176.062V113.365H210.609V186.682H245.284V262.941H54.252V198.965Z" fill="#F5F5F5"/>
<path d="M152.775 20.4727H146.633V260.894H152.775V20.4727Z" fill="#E1E1E1"/>
<path d="M245.156 137.932H54.252V144.201H245.156V137.932Z" fill="#E1E1E1"/>
<path d="M445.784 81.6328L458.068 113.109H450.391L444.249 93.7882L445.784 81.6328Z" fill="#E1E1E1"/>
<path d="M403.816 52.5879L399.594 112.853L443.225 113.749L448.088 52.5879H403.816Z" fill="#ECECEC"/>
<path d="M408.167 57.4493L404.712 107.606L437.084 109.142L441.562 57.1934L408.167 57.4493Z" fill="#FAFAFA"/>
<path d="M415.332 64.6152L412.645 99.802H430.558L433.629 64.6152H415.332Z" fill="#E1E1E1"/>
<path d="M339.072 113.366V63.8486H375.283V113.238L339.072 113.366Z" fill="#ECECEC"/>
<path d="M359.673 63.848C359.673 63.848 368.374 0 365.943 0C363.511 0.127952 357.37 58.2181 357.37 58.2181C357.37 58.2181 357.114 9.98024 354.811 10.2361C352.508 10.492 354.811 61.2889 354.811 61.2889C354.811 61.2889 350.844 20.0884 348.797 21.112C346.622 22.1357 349.693 63.848 349.693 63.848H359.673Z" fill="#E1E1E1"/>
<path d="M353.147 63.8477C353.147 63.8477 356.218 31.9877 357.113 34.1629C358.137 36.3381 357.113 53.0998 357.113 53.0998C357.113 53.0998 365.558 11.8993 367.733 13.3067C369.909 14.7142 359.161 57.9619 359.161 57.9619C359.161 57.9619 367.35 33.2672 369.141 35.8263C370.932 38.3853 362.36 61.5446 362.36 61.5446C362.36 61.5446 371.188 45.1667 371.7 47.3419C372.34 49.5171 367.478 63.5918 367.478 63.5918H353.147V63.8477Z" fill="#ECECEC"/>
<path d="M347.901 63.9754C347.901 63.9754 328.58 25.9737 330.884 27.1253C333.315 28.2768 345.726 52.8436 345.726 52.8436C345.726 52.8436 337.537 29.1725 339.328 28.4048C341.12 27.6371 350.076 55.0188 350.076 55.0188L352.124 63.9754H347.901Z" fill="#ECECEC"/>
<path d="M355.834 63.8477L356.73 113.365H339.585L339.201 63.7197L355.834 63.8477Z" fill="#E1E1E1"/>
<path d="M339.2 68.1981L355.834 68.454L375.283 68.1981L375.922 63.4639H338.688L339.2 68.1981Z" fill="#F5F5F5"/>
<path d="M489.16 112.47H307.852V120.403H489.16V112.47Z" fill="#E1E1E1"/>
<path d="M341.887 399.338C340.352 397.674 343.935 387.694 361.208 387.054C378.354 386.286 385.263 392.556 385.263 399.338C385.263 402.28 341.887 399.338 341.887 399.338Z" fill="#54428F"/>
<path d="M333.442 139.211L314.377 257.311H488.648L509.632 137.932L333.442 139.211Z" fill="#F5F5F5"/>
<path d="M331.651 149.959C331.779 149.575 507.713 149.319 507.713 149.319L509.76 137.932L333.442 139.211L331.651 149.959Z" fill="#E1E1E1"/>
<path d="M340.735 144.457C340.735 145.353 339.968 146.121 339.072 146.121C338.176 146.121 337.409 145.353 337.409 144.457C337.409 143.562 338.176 142.794 339.072 142.794C339.968 142.794 340.735 143.562 340.735 144.457Z" fill="#19094D"/>
<path d="M348.669 144.457C348.669 145.353 347.901 146.121 347.005 146.121C346.11 146.121 345.342 145.353 345.342 144.457C345.342 143.562 346.11 142.794 347.005 142.794C348.029 142.922 348.669 143.562 348.669 144.457Z" fill="#19094D"/>
<path d="M356.602 144.457C356.602 145.353 355.834 146.121 354.938 146.121C354.043 146.121 353.275 145.353 353.275 144.457C353.275 143.562 354.043 142.794 354.938 142.794C355.834 142.794 356.602 143.562 356.602 144.457Z" fill="#19094D"/>
<path d="M376.306 202.931L354.426 228.138C345.853 222.124 340.863 212.784 340.863 202.931C340.863 185.402 356.857 170.943 376.306 170.943C395.755 170.943 411.749 185.402 411.749 202.931H376.306Z" fill="#BD1CFF"/>
<path d="M379.121 207.025C379.121 207.025 378.993 207.153 378.737 207.537C378.481 207.921 378.097 208.305 377.586 208.945C376.562 210.096 375.154 211.888 373.235 214.063C369.525 218.413 364.151 224.683 357.753 232.104V231.72C362.103 234.791 367.733 237.094 374.003 237.734C380.273 238.502 387.054 237.606 393.324 234.791C399.337 232.232 404.327 227.882 407.91 223.019C409.574 220.588 410.981 217.901 411.877 215.214C412.772 212.527 413.156 209.84 413.412 207.281L413.668 207.537C403.432 207.409 394.731 207.281 388.717 207.153C385.774 207.025 383.343 207.025 381.68 207.025C380.912 207.025 380.273 207.025 379.761 207.025C379.377 207.025 379.121 207.025 379.121 207.025C379.121 207.025 379.377 207.025 379.761 207.025C380.273 207.025 380.784 207.025 381.552 207.025C383.215 207.025 385.519 207.025 388.589 207.025C394.731 207.025 403.304 207.153 413.668 207.153H413.924V207.409C413.796 210.096 413.284 212.783 412.388 215.47C411.493 218.157 410.085 220.844 408.422 223.403C404.839 228.393 399.721 232.744 393.58 235.303C387.182 238.118 380.273 239.013 373.875 238.246C367.477 237.478 361.847 235.175 357.369 231.976L357.113 231.848L357.369 231.592C363.895 224.171 369.269 217.901 373.107 213.551C375.027 211.376 376.434 209.712 377.586 208.561C378.097 208.049 378.481 207.537 378.737 207.281C378.993 207.153 379.121 207.025 379.121 207.025Z" fill="#19094D"/>
<path d="M391.405 186.042C392.535 186.042 393.452 185.125 393.452 183.995C393.452 182.864 392.535 181.947 391.405 181.947C390.274 181.947 389.357 182.864 389.357 183.995C389.357 185.125 390.274 186.042 391.405 186.042Z" fill="#19094D"/>
<path d="M432.733 169.407C432.733 169.407 432.093 169.535 430.814 169.535C429.534 169.535 427.743 169.535 425.695 169.663C421.345 169.663 415.459 169.791 408.934 169.791C407.91 169.791 406.759 169.791 405.735 169.791L405.991 169.663C401.896 173.758 398.186 177.34 395.627 179.899C394.347 181.051 393.324 182.075 392.428 182.842C391.66 183.482 391.276 183.866 391.276 183.866C391.276 183.866 391.66 183.354 392.3 182.714C393.068 181.947 394.091 180.795 395.243 179.515C397.802 176.828 401.385 173.246 405.479 169.151L405.607 169.023H405.735C406.759 169.023 407.782 169.023 408.934 169.023C415.459 169.023 421.345 169.023 425.695 169.151C427.743 169.151 429.406 169.279 430.814 169.279C432.093 169.407 432.733 169.407 432.733 169.407Z" fill="#19094D"/>
<path d="M477.644 194.358C477.644 194.358 477.644 194.102 477.772 193.718C477.9 193.207 477.9 192.567 478.028 191.799C478.284 190.136 478.795 187.705 479.307 184.634C480.459 178.492 481.994 169.664 483.914 158.916L484.169 159.299C470.223 159.299 453.077 159.299 434.652 159.299C434.524 159.299 435.292 158.788 435.036 159.044V159.171V159.299V159.555L434.908 160.195L434.652 161.347C434.524 162.114 434.396 162.882 434.268 163.65C434.012 165.185 433.628 166.721 433.373 168.256C432.861 171.327 432.221 174.398 431.709 177.341C430.558 183.226 429.534 188.984 428.51 194.23L428.255 193.846C442.841 193.846 455.252 193.974 463.953 193.974C468.303 193.974 471.758 193.974 474.189 194.102C475.341 194.102 476.236 194.102 476.876 194.102C477.132 194.102 477.388 194.102 477.644 194.102C477.644 194.358 477.644 194.358 477.644 194.358C477.644 194.358 477.516 194.358 477.388 194.358C477.26 194.358 477.004 194.358 476.748 194.358C476.108 194.358 475.213 194.358 474.061 194.358C471.63 194.358 468.303 194.358 463.953 194.486C455.124 194.486 442.713 194.614 428.127 194.614H427.743L427.871 194.23C428.894 188.856 429.918 183.226 430.941 177.341C431.453 174.398 432.093 171.327 432.605 168.256C432.861 166.721 433.117 165.185 433.501 163.65C433.628 162.882 433.756 162.114 433.884 161.347L434.14 160.195L434.268 159.555V159.299V159.171V159.044C434.012 159.299 434.652 158.66 434.652 158.788C453.205 158.788 470.351 158.788 484.169 158.788H484.553V159.171C482.506 169.919 480.843 178.748 479.691 184.89C479.051 187.961 478.667 190.264 478.284 191.927C478.156 192.695 478.028 193.335 477.9 193.718C477.772 194.23 477.772 194.358 477.644 194.358Z" fill="#19094D"/>
<path d="M394.475 225.963C395.606 225.963 396.523 225.046 396.523 223.915C396.523 222.785 395.606 221.868 394.475 221.868C393.345 221.868 392.428 222.785 392.428 223.915C392.428 225.046 393.345 225.963 394.475 225.963Z" fill="#19094D"/>
<path d="M430.558 223.915C430.558 224.043 422.497 224.299 412.517 224.299C402.537 224.299 394.476 224.171 394.476 223.915C394.476 223.659 402.537 223.531 412.517 223.531C422.497 223.531 430.558 223.659 430.558 223.915Z" fill="#19094D"/>
<path d="M477.644 239.269C477.644 239.269 477.644 239.141 477.772 238.757C477.9 238.373 477.9 237.989 478.028 237.349C478.284 236.07 478.796 234.406 479.308 232.103C480.459 227.625 481.995 221.099 483.914 213.166L484.17 213.422C470.607 213.422 452.694 213.422 433.117 213.55C432.861 213.806 433.501 213.294 433.373 213.294V213.422V213.678L433.245 214.062L432.989 214.958L432.605 216.621C432.349 217.773 432.093 218.924 431.709 219.948C431.198 222.123 430.558 224.426 430.046 226.601C428.895 230.952 427.871 235.174 426.847 239.141L426.591 238.757C441.434 238.757 454.229 238.885 463.314 238.885C467.792 238.885 471.375 239.013 473.934 239.013C475.085 239.013 476.109 239.013 476.749 239.013C477.004 239.013 477.26 239.013 477.516 239.013C477.644 239.269 477.644 239.269 477.644 239.269C477.644 239.269 477.516 239.269 477.388 239.269C477.26 239.269 477.004 239.269 476.621 239.269C475.981 239.269 474.957 239.269 473.806 239.269C471.247 239.269 467.792 239.269 463.314 239.397C454.229 239.397 441.434 239.524 426.463 239.524H426.08L426.208 239.141C427.231 235.174 428.255 230.952 429.406 226.601C429.918 224.426 430.558 222.251 431.07 219.948C431.326 218.796 431.582 217.645 431.965 216.621L432.349 214.958L432.605 214.062L432.733 213.678V213.422V213.294C432.605 213.294 433.373 212.783 433.117 213.038C452.694 213.038 470.735 213.038 484.17 213.166H484.554L484.426 213.422C482.378 221.355 480.715 227.881 479.436 232.487C478.796 234.662 478.412 236.454 478.028 237.605C477.9 238.117 477.772 238.629 477.644 238.885C477.772 239.141 477.644 239.397 477.644 239.269Z" fill="#19094D"/>
<path d="M473.677 169.92C473.677 170.048 466.128 170.304 456.788 170.304C447.447 170.304 439.77 170.176 439.77 169.92C439.77 169.792 447.319 169.536 456.788 169.536C466.128 169.536 473.677 169.792 473.677 169.92Z" fill="#19094D"/>
<path d="M473.293 175.422C473.293 175.55 465.616 175.806 456.276 175.806C446.807 175.806 439.258 175.678 439.258 175.422C439.258 175.294 446.935 175.038 456.276 175.038C465.616 175.166 473.293 175.294 473.293 175.422Z" fill="#19094D"/>
<path d="M472.27 180.796C472.27 180.924 464.849 181.18 455.764 181.18C446.68 181.18 439.258 181.052 439.258 180.796C439.258 180.54 446.68 180.412 455.764 180.412C464.977 180.54 472.27 180.668 472.27 180.796Z" fill="#19094D"/>
<path d="M472.91 223.276C472.91 223.404 465.617 223.66 456.788 223.66C447.831 223.66 440.666 223.532 440.666 223.276C440.666 223.148 447.959 222.893 456.788 222.893C465.617 222.893 472.91 223.021 472.91 223.276Z" fill="#19094D"/>
<path d="M470.863 229.418C470.863 229.546 464.721 229.802 457.044 229.802C449.495 229.802 443.225 229.674 443.225 229.418C443.225 229.29 449.367 229.034 457.044 229.034C464.721 229.034 470.863 229.162 470.863 229.418Z" fill="#19094D"/>
<path d="M264.988 358.009C264.348 361.591 247.331 399.337 258.335 399.337C269.338 399.337 313.738 399.337 313.738 399.337C313.738 399.337 307.98 393.963 325.381 358.009H264.988Z" fill="#54428F"/>
<path d="M229.162 231.848L206.514 364.151H397.418L420.833 227.242L229.162 231.848Z" fill="#54428F"/>
<path d="M235.687 238.374L216.495 356.346H390.893L411.877 237.095L235.687 238.374Z" fill="#FAFAFA"/>
<path d="M420.833 227.242L424.416 229.673L400.105 367.733H211.504L206.514 364.151H397.418L420.833 227.242Z" fill="#19094D"/>
<path d="M233.896 249.122C234.024 248.738 409.958 248.482 409.958 248.482L412.005 237.095L235.687 238.374L233.896 249.122Z" fill="#ECECEC"/>
<path d="M363.383 345.982C363.383 345.982 363.383 345.854 363.383 345.598C363.383 345.342 363.511 344.958 363.511 344.574C363.639 343.679 363.895 342.399 364.151 340.736C364.791 337.281 365.558 332.419 366.582 326.277C368.757 313.866 371.828 296.592 375.283 277.016V276.76H375.539C379.889 276.76 384.495 276.76 389.23 276.76H389.358H389.741L389.613 277.144C384.239 306.061 379.633 331.395 376.946 346.11V346.238H376.818C372.596 346.238 369.141 346.11 366.838 346.11C365.686 346.11 364.919 346.11 364.279 346.11C364.023 346.11 363.767 346.11 363.639 346.11C363.511 345.982 363.383 345.982 363.383 345.982C363.383 345.982 363.511 345.982 363.639 345.982C363.767 345.982 364.023 345.982 364.279 345.982C364.919 345.982 365.814 345.982 366.966 345.982C369.269 345.982 372.596 345.982 376.818 345.854L376.69 345.982C379.377 331.395 383.856 305.933 389.102 277.016L389.485 277.4H389.358C384.751 277.4 380.145 277.4 375.667 277.4L376.051 277.144C372.468 296.592 369.397 313.738 367.094 326.149C365.942 332.291 365.047 337.281 364.407 340.736C364.151 342.399 363.895 343.679 363.639 344.702C363.511 345.086 363.511 345.47 363.383 345.726C363.383 345.854 363.383 345.982 363.383 345.982Z" fill="#19094D"/>
<path d="M341.248 345.981C341.248 345.981 341.248 345.725 341.375 345.086C341.503 344.446 341.631 343.55 341.887 342.399C342.399 339.967 343.039 336.385 343.807 332.162C345.47 323.334 347.773 310.922 350.46 296.848V296.592H350.716C355.066 296.592 359.673 296.592 364.407 296.592H364.535H364.919L364.791 296.976C360.696 317.064 357.114 334.849 354.81 346.109V346.237H354.682C350.46 346.237 347.005 346.109 344.702 346.109C343.551 346.109 342.783 346.109 342.143 346.109C341.503 345.981 341.248 345.981 341.248 345.981C341.248 345.981 341.631 345.981 342.143 345.981C342.783 345.981 343.679 345.981 344.83 345.981C347.133 345.981 350.46 345.853 354.682 345.853L354.427 345.981C356.602 334.721 360.184 316.808 364.151 296.72L364.535 297.104H364.407C359.673 297.104 355.194 297.104 350.716 297.104L350.972 296.848C348.157 310.794 345.726 323.078 344.062 331.906C343.167 336.257 342.527 339.712 342.015 342.271C341.759 343.422 341.631 344.446 341.375 345.086C341.248 345.341 341.248 345.597 341.248 345.853V345.981Z" fill="#19094D"/>
<path d="M319.112 345.981C319.112 345.981 319.112 345.853 319.112 345.597C319.112 345.341 319.24 344.829 319.368 344.317C319.624 343.166 319.88 341.63 320.135 339.455C320.903 335.233 321.927 329.091 323.206 321.542C325.893 306.188 329.732 284.948 333.954 260.893V260.637H334.21C338.561 260.637 343.167 260.637 347.901 260.637H348.029H348.413L348.285 261.021C341.631 297.615 335.746 329.475 332.547 345.981V346.109H332.419C328.068 346.109 324.742 345.981 322.311 345.981C321.159 345.981 320.391 345.981 319.752 345.981C319.368 345.981 319.112 345.981 319.112 345.981C319.112 345.981 319.496 345.981 320.007 345.981C320.647 345.981 321.543 345.981 322.567 345.981C324.87 345.981 328.196 345.981 332.547 345.853L332.419 345.981C335.362 329.347 341.12 297.487 347.773 260.893L348.157 261.276H348.029C343.423 261.276 338.816 261.276 334.338 261.276L334.722 261.021C330.372 284.948 326.533 306.188 323.718 321.414C322.311 328.963 321.159 335.105 320.391 339.455C320.007 341.502 319.752 343.166 319.496 344.317C319.368 344.829 319.368 345.213 319.24 345.597C319.112 345.725 319.112 345.981 319.112 345.981Z" fill="#19094D"/>
<path d="M296.976 345.981C296.976 345.981 296.976 345.725 297.104 345.341C297.232 344.829 297.232 344.189 297.36 343.422C297.616 341.63 298.128 339.199 298.639 336.128C299.791 329.859 301.326 321.03 303.118 310.794V310.538H303.374C307.596 310.538 312.202 310.538 317.065 310.538H317.192H317.576L317.32 310.922C314.633 324.741 312.33 337.152 310.539 345.981V346.109H310.411C306.189 346.109 302.862 345.981 300.431 345.981C299.279 345.981 298.511 345.981 297.744 345.981C297.232 345.981 296.976 345.981 296.976 345.981C296.976 345.981 297.36 345.981 298 345.981C298.639 345.981 299.535 345.981 300.687 345.981C303.118 345.981 306.444 345.853 310.539 345.853L310.283 345.981C311.946 337.152 314.25 324.741 316.809 310.922L317.192 311.306H317.065C312.33 311.306 307.724 311.306 303.374 311.306L303.63 311.05C301.71 321.158 300.047 329.731 298.895 336.001C298.256 339.071 297.872 341.502 297.488 343.294C297.36 344.061 297.232 344.829 297.104 345.213C296.976 345.725 296.976 345.981 296.976 345.981Z" fill="#19094D"/>
<path d="M274.84 345.981C274.84 345.981 274.84 345.853 274.84 345.725C274.84 345.469 274.968 345.213 274.968 344.957C275.096 344.189 275.224 343.038 275.48 341.758C275.992 338.815 276.632 334.721 277.399 329.603C279.191 319.239 281.494 304.652 284.309 288.274V288.019H284.565C288.915 288.019 293.521 288.019 298.256 288.019H298.384H298.767L298.639 288.402C294.417 312.201 290.706 333.313 288.403 346.109V346.237H288.275C284.053 346.237 280.598 346.109 278.295 346.109C277.144 346.109 276.376 346.109 275.736 346.109C275.096 345.981 274.712 345.981 274.84 345.981C274.84 345.981 274.968 345.981 275.096 345.981C275.224 345.981 275.48 345.981 275.736 345.981C276.376 345.981 277.272 345.981 278.423 345.981C280.726 345.981 284.053 345.981 288.275 345.853L288.147 345.981C290.323 333.058 294.033 312.073 298.128 288.146L298.512 288.53H298.384C293.777 288.53 289.171 288.53 284.693 288.53L285.077 288.274C282.262 304.652 279.703 318.983 277.911 329.347C277.016 334.465 276.248 338.56 275.736 341.502C275.48 342.91 275.224 344.061 275.096 344.829C274.968 345.213 274.968 345.469 274.968 345.725C274.84 345.853 274.84 345.981 274.84 345.981Z" fill="#19094D"/>
<path d="M252.577 345.981C252.577 345.981 252.577 345.853 252.577 345.597C252.577 345.342 252.705 344.958 252.705 344.446C252.833 343.422 253.088 341.887 253.472 340.095C254.112 336.257 255.136 330.627 256.287 323.718C258.718 309.643 262.045 290.194 265.884 268.187V267.931H266.14C270.49 267.931 275.096 267.931 279.83 267.931H279.958H280.342L280.214 268.315C274.201 301.454 268.955 330.499 266.14 346.109V346.237H266.012C261.661 346.237 258.334 346.109 255.903 346.109C254.752 346.109 253.984 346.109 253.344 346.109C253.088 346.109 252.833 346.109 252.705 346.109C252.705 345.981 252.577 345.981 252.577 345.981C252.577 345.981 252.705 345.981 252.833 345.981C252.961 345.981 253.216 345.981 253.472 345.981C254.112 345.981 255.008 345.981 256.159 345.981C258.462 345.981 261.789 345.981 266.14 345.853L266.012 345.981C268.699 330.371 273.817 301.326 279.83 268.187L280.214 268.57H280.086C275.48 268.57 270.874 268.57 266.395 268.57L266.779 268.315C262.813 290.322 259.358 309.643 256.927 323.59C255.648 330.499 254.624 336.129 253.984 340.095C253.6 342.015 253.344 343.55 253.216 344.574C253.088 345.086 253.088 345.469 252.961 345.725C252.705 345.725 252.577 345.981 252.577 345.981Z" fill="#19094D"/>
<path d="M242.981 243.619C242.981 244.515 242.213 245.283 241.317 245.283C240.422 245.283 239.654 244.515 239.654 243.619C239.654 242.724 240.422 241.956 241.317 241.956C242.213 242.084 242.981 242.724 242.981 243.619Z" fill="#19094D"/>
<path d="M249.25 245.283C250.169 245.283 250.914 244.538 250.914 243.619C250.914 242.701 250.169 241.956 249.25 241.956C248.332 241.956 247.587 242.701 247.587 243.619C247.587 244.538 248.332 245.283 249.25 245.283Z" fill="#19094D"/>
<path d="M258.846 243.619C258.846 244.515 258.079 245.283 257.183 245.283C256.287 245.283 255.52 244.515 255.52 243.619C255.52 242.724 256.287 241.956 257.183 241.956C258.079 242.084 258.846 242.724 258.846 243.619Z" fill="#19094D"/>
<path d="M230.441 345.981C230.441 345.981 230.441 345.597 230.569 344.957C230.697 344.189 230.825 343.294 231.081 342.014C231.465 339.455 232.105 335.745 232.872 331.138C234.536 321.798 236.839 308.747 239.398 293.776V293.521H239.654C244.004 293.521 248.611 293.521 253.345 293.521H253.473H253.857L253.729 293.904C249.762 315.272 246.307 334.081 244.004 345.981V346.109H243.876C239.654 346.109 236.199 345.981 233.896 345.981C232.745 345.981 231.977 345.981 231.337 345.981C230.697 345.981 230.441 345.981 230.441 345.981C230.441 345.981 230.569 345.981 230.697 345.981C230.825 345.981 231.081 345.981 231.337 345.981C231.977 345.981 232.872 345.981 234.024 345.981C236.327 345.981 239.654 345.853 243.876 345.853L243.62 345.981C245.796 334.209 249.122 315.272 252.961 293.904L253.345 294.288C248.611 294.288 244.132 294.288 239.654 294.288L240.038 294.032C237.351 308.747 234.92 321.798 233.256 331.01C232.361 335.617 231.721 339.327 231.209 342.014C230.953 343.294 230.825 344.317 230.697 344.957C230.697 345.213 230.569 345.469 230.569 345.725C230.441 345.853 230.441 345.981 230.441 345.981Z" fill="#19094D"/>
<path d="M380.017 293.905H306.956L311.178 269.338H384.751L380.017 293.905Z" fill="#BD1CFF"/>
<path d="M306.956 293.904L305.549 302.477C305.549 302.477 315.145 293.648 315.017 293.648C314.889 293.648 307.084 293.648 307.084 293.648" fill="#BD1CFF"/>
<path d="M373.747 277.911C373.747 278.039 361.592 278.295 346.621 278.295C331.651 278.295 319.496 278.167 319.496 277.911C319.496 277.783 331.651 277.527 346.621 277.527C361.464 277.527 373.747 277.655 373.747 277.911Z" fill="#FAFAFA"/>
<path d="M372.98 283.796C372.98 283.924 360.824 284.18 345.854 284.18C330.883 284.18 318.728 284.052 318.728 283.796C318.728 283.668 330.883 283.412 345.854 283.412C360.824 283.412 372.98 283.54 372.98 283.796Z" fill="#FAFAFA"/>
<path d="M492.359 407.781H284.309V529.208H492.359V407.781Z" fill="#19094D"/>
<path d="M379.121 407.781H284.309V529.208H379.121V407.781Z" fill="#54428F"/>
<path d="M369.525 448.981C369.525 448.981 369.525 448.725 369.525 448.342C369.525 447.958 369.525 447.318 369.525 446.55C369.525 445.015 369.525 442.712 369.525 439.769C369.525 433.883 369.397 425.566 369.397 415.202L369.653 415.458C349.948 415.458 323.078 415.458 293.393 415.586C293.138 415.842 293.777 415.202 293.777 415.202V415.33V415.458V415.714V416.226V417.377V419.552C293.777 420.96 293.777 422.495 293.777 423.903C293.777 426.846 293.777 429.661 293.777 432.476C293.777 438.105 293.777 443.607 293.777 448.853L293.521 448.598C315.657 448.598 334.594 448.725 348.157 448.725C354.938 448.725 360.312 448.853 364.023 448.853C365.814 448.853 367.222 448.853 368.245 448.853C368.757 448.853 369.013 448.853 369.397 448.853C369.397 448.981 369.525 448.981 369.525 448.981C369.525 448.981 369.397 448.981 369.141 448.981C368.885 448.981 368.501 448.981 368.117 448.981C367.094 448.981 365.686 448.981 363.895 448.981C360.184 448.981 354.81 448.981 348.157 449.109C334.594 449.109 315.529 449.237 293.266 449.237H293.01V448.981C293.01 443.735 293.01 438.233 293.01 432.604C293.01 429.789 293.01 426.974 293.01 424.031C293.01 422.623 293.01 421.088 293.01 419.68V417.505V416.354V415.842V415.586V415.458V415.33C292.882 415.458 293.649 414.69 293.393 414.946C323.078 414.946 349.948 415.074 369.653 415.074H369.909V415.33C369.909 425.694 369.781 434.267 369.781 440.025C369.781 442.84 369.781 445.143 369.781 446.678C369.781 447.446 369.781 447.958 369.781 448.342C369.525 448.853 369.525 448.981 369.525 448.981Z" fill="#19094D"/>
<path d="M334.594 432.22C334.594 432.22 334.466 431.965 334.338 431.453C334.21 430.941 333.826 430.301 333.186 429.789C332.547 429.278 331.395 429.022 330.372 429.405C329.348 429.789 328.452 430.941 328.452 432.22C328.452 433.5 329.348 434.651 330.372 435.035C331.395 435.419 332.547 435.163 333.186 434.652C333.954 434.14 334.21 433.5 334.338 432.988C334.466 432.476 334.594 432.22 334.594 432.22C334.594 432.22 334.722 432.476 334.594 432.988C334.466 433.5 334.21 434.268 333.442 434.907C332.675 435.547 331.395 435.931 330.116 435.419C328.836 435.035 327.685 433.628 327.812 432.092C327.812 430.557 328.964 429.15 330.116 428.766C331.395 428.254 332.675 428.766 333.442 429.278C334.21 429.917 334.466 430.685 334.594 431.197C334.722 431.837 334.594 432.22 334.594 432.22Z" fill="#19094D"/>
<path d="M369.525 486.216C369.525 486.216 369.525 485.96 369.525 485.576C369.525 485.192 369.525 484.552 369.525 483.785C369.525 482.249 369.525 479.946 369.525 477.003C369.525 471.117 369.397 462.801 369.397 452.436L369.653 452.692C349.948 452.692 323.078 452.692 293.393 452.82C293.138 453.076 293.777 452.436 293.777 452.436V452.564V452.692V452.948V453.46V454.612V456.787C293.777 458.194 293.777 459.73 293.777 461.137C293.777 464.08 293.777 466.895 293.777 469.71C293.777 475.34 293.777 480.842 293.777 486.088L293.521 485.832C315.657 485.832 334.594 485.96 348.157 485.96C354.938 485.96 360.312 486.088 364.023 486.088C365.814 486.088 367.222 486.088 368.245 486.088C368.757 486.088 369.013 486.088 369.397 486.088C369.397 486.088 369.525 486.088 369.525 486.216C369.525 486.216 369.397 486.216 369.141 486.216C368.885 486.216 368.501 486.216 368.117 486.216C367.094 486.216 365.686 486.216 363.895 486.216C360.184 486.216 354.81 486.216 348.157 486.344C334.594 486.344 315.529 486.472 293.266 486.472H293.01V486.216C293.01 480.97 293.01 475.468 293.01 469.838C293.01 467.023 293.01 464.208 293.01 461.265C293.01 459.858 293.01 458.322 293.01 456.915V454.74V453.588V452.948V452.692V452.564V452.436C292.882 452.564 293.649 451.797 293.393 452.053C323.078 452.053 349.948 452.181 369.653 452.181H369.909V452.436C369.909 462.801 369.781 471.373 369.781 477.131C369.781 479.946 369.781 482.249 369.781 483.785C369.781 484.552 369.781 485.064 369.781 485.448C369.525 485.96 369.525 486.216 369.525 486.216Z" fill="#19094D"/>
<path d="M334.594 469.326C334.594 469.326 334.466 469.07 334.338 468.558C334.21 468.046 333.826 467.407 333.186 466.895C332.547 466.383 331.395 466.127 330.372 466.511C329.348 466.895 328.452 468.046 328.452 469.326C328.452 470.605 329.348 471.757 330.372 472.141C331.395 472.525 332.547 472.269 333.186 471.757C333.954 471.245 334.21 470.605 334.338 470.094C334.466 469.582 334.594 469.326 334.594 469.326C334.594 469.326 334.722 469.582 334.594 470.094C334.466 470.605 334.21 471.373 333.442 472.013C332.675 472.653 331.395 473.036 330.116 472.525C328.836 472.141 327.685 470.733 327.812 469.198C327.812 467.663 328.964 466.255 330.116 465.871C331.395 465.359 332.675 465.871 333.442 466.383C334.21 467.023 334.466 467.79 334.594 468.302C334.722 468.942 334.594 469.326 334.594 469.326Z" fill="#19094D"/>
<path d="M369.525 523.321C369.525 523.321 369.525 523.065 369.525 522.681C369.525 522.298 369.525 521.658 369.525 520.89C369.525 519.355 369.525 517.052 369.525 514.109C369.525 508.223 369.397 499.906 369.397 489.542L369.653 489.798C349.948 489.798 323.078 489.798 293.393 489.926C293.138 490.182 293.777 489.542 293.777 489.542V489.67V489.798V490.054V490.566V491.717V493.892C293.777 495.3 293.777 496.835 293.777 498.243C293.777 501.186 293.777 504.001 293.777 506.815C293.777 512.445 293.777 517.947 293.777 523.193L293.521 522.937C315.657 522.937 334.594 523.065 348.157 523.065C354.938 523.065 360.312 523.193 364.023 523.193C365.814 523.193 367.222 523.193 368.245 523.193C368.757 523.193 369.013 523.193 369.397 523.193C369.397 523.321 369.525 523.321 369.525 523.321C369.525 523.321 369.397 523.321 369.141 523.321C368.885 523.321 368.501 523.321 368.117 523.321C367.094 523.321 365.686 523.321 363.895 523.321C360.184 523.321 354.81 523.321 348.157 523.449C334.594 523.449 315.529 523.577 293.266 523.577H293.01V523.321C293.01 518.075 293.01 512.573 293.01 506.943C293.01 504.128 293.01 501.314 293.01 498.371C293.01 496.963 293.01 495.428 293.01 494.02V491.845V490.694V490.054V489.798V489.67V489.542C292.882 489.67 293.649 488.902 293.393 489.158C323.078 489.158 349.948 489.286 369.653 489.286H369.909V489.542C369.909 499.906 369.781 508.479 369.781 514.237C369.781 517.052 369.781 519.355 369.781 520.89C369.781 521.658 369.781 522.17 369.781 522.554C369.525 523.065 369.525 523.321 369.525 523.321Z" fill="#19094D"/>
<path d="M334.594 506.432C334.594 506.432 334.466 506.176 334.338 505.665C334.21 505.153 333.826 504.513 333.186 504.001C332.547 503.489 331.395 503.234 330.372 503.617C329.348 504.001 328.452 505.153 328.452 506.432C328.452 507.712 329.348 508.863 330.372 509.247C331.395 509.631 332.547 509.375 333.186 508.863C333.954 508.352 334.21 507.712 334.338 507.2C334.466 506.688 334.594 506.432 334.594 506.432C334.594 506.432 334.722 506.688 334.594 507.2C334.466 507.712 334.21 508.48 333.442 509.119C332.675 509.759 331.395 510.143 330.116 509.631C328.836 509.247 327.685 507.84 327.812 506.304C327.812 504.769 328.964 503.361 330.116 502.978C331.395 502.466 332.675 502.978 333.442 503.489C334.21 504.129 334.466 504.897 334.594 505.409C334.722 506.176 334.594 506.432 334.594 506.432Z" fill="#19094D"/>
<path d="M181.691 407.781H6.65332V529.208H181.691V407.781Z" fill="#19094D"/>
<path d="M500.036 399.337H0V410.853H500.036V399.337Z" fill="#19094D"/>
<path d="M22.1355 410.853H6.65332V529.208H22.1355V410.853Z" fill="#54428F"/>
<path d="M201.14 216.623C201.14 216.623 201.012 216.111 200.884 215.215C200.756 214.32 200.5 212.912 199.604 211.505C199.22 210.865 198.581 210.097 197.685 209.713C196.789 209.33 195.766 209.457 194.998 210.225C193.463 211.633 192.695 214.192 192.695 216.751C192.695 219.31 193.335 221.869 194.998 223.276C195.766 224.044 196.789 224.172 197.685 223.788C198.581 223.404 199.093 222.637 199.604 221.997C200.5 220.589 200.756 219.182 200.884 218.286C201.012 217.135 201.012 216.623 201.14 216.623C201.14 216.623 201.268 217.135 201.14 218.158C201.012 219.054 200.884 220.589 199.988 222.125C199.604 222.892 198.965 223.66 197.941 224.172C197.429 224.428 196.789 224.556 196.278 224.428C195.638 224.3 195.126 224.044 194.614 223.66C192.823 221.997 192.055 219.31 192.055 216.751C192.055 214.064 192.823 211.377 194.614 209.841C195.126 209.457 195.638 209.202 196.278 209.074C196.917 208.946 197.429 209.074 197.941 209.33C198.965 209.841 199.604 210.609 199.988 211.377C200.884 212.912 201.012 214.32 201.14 215.343C201.268 216.111 201.14 216.623 201.14 216.623Z" fill="#19094D"/>
<path d="M145.865 191.673L142.026 268.316L174.91 271.387L176.701 252.834C176.701 252.834 188.217 255.649 191.8 245.029C194.103 238.248 196.022 184.636 196.022 184.636L145.865 191.673Z" fill="#FFBF9D"/>
<path d="M203.187 192.44C200.372 199.093 189.88 204.851 189.88 204.851L188.089 221.869C186.681 221.613 183.355 221.869 183.355 221.869C184.25 213.936 173.886 215.471 172.863 220.845C171.839 226.091 177.853 229.546 177.853 229.546C173.758 235.815 172.095 239.142 166.209 245.028C159.939 251.426 156.485 251.937 149.959 251.681L142.794 251.298C142.794 251.298 140.235 245.156 138.316 230.697C137.42 223.788 131.918 214.575 133.581 203.316C137.932 171.2 173.502 176.83 173.502 176.83C186.937 166.594 209.713 176.83 203.187 192.44Z" fill="#19094D"/>
<path d="M201.14 216.75C201.14 216.878 197.813 217.262 193.719 217.518C189.624 217.774 186.297 217.774 186.297 217.518C186.297 217.39 189.624 217.006 193.719 216.75C197.813 216.622 201.14 216.622 201.14 216.75Z" fill="#19094D"/>
<path d="M306.061 306.829L294.033 314.25L289.683 324.486V315.529C289.683 315.529 292.881 311.691 295.568 308.876C298.255 306.061 296.336 304.142 295.568 303.118C294.801 302.222 283.413 315.401 283.413 315.401V323.078C278.039 316.553 275.608 318.728 274.84 320.008C274.073 321.159 283.413 330.116 283.413 330.116V332.803L236.455 358.009L224.043 327.301L198.837 340.48L213.935 376.946C218.414 387.694 231.209 391.916 241.189 386.031L296.336 353.403L300.047 347.261C301.326 345.086 302.094 342.783 302.222 340.352L304.013 312.714C307.596 310.795 306.061 306.829 306.061 306.829Z" fill="#FFBF9D"/>
<path d="M236.711 358.138C236.839 358.266 235.943 361.081 234.663 364.535C233.384 367.99 232.232 370.677 231.977 370.677C231.849 370.677 232.744 367.734 234.024 364.279C235.303 360.825 236.455 358.138 236.711 358.138Z" fill="#FF9A6C"/>
<path d="M304.141 312.97C304.141 313.098 303.246 313.354 301.966 313.994C301.326 314.378 300.559 314.762 299.919 315.529C299.279 316.169 298.767 317.065 298.383 318.088C296.592 322.311 295.057 325.638 294.929 325.51C294.801 325.382 296.08 321.927 297.744 317.833C298.128 316.809 298.767 315.785 299.535 315.018C300.303 314.378 301.07 313.866 301.838 313.61C303.118 312.97 304.141 312.842 304.141 312.97Z" fill="#FF9A6C"/>
<path d="M304.014 317.321C304.014 317.449 303.374 317.321 302.99 317.961C302.606 318.729 302.094 319.752 301.71 321.032C300.687 323.463 300.175 325.51 300.047 325.51C299.919 325.51 300.175 323.335 301.071 320.776C301.582 319.496 302.094 318.473 302.606 317.705C302.862 317.321 303.374 317.193 303.63 317.193C303.886 317.193 304.014 317.321 304.014 317.321Z" fill="#FF9A6C"/>
<path d="M191.288 336.001L196.662 354.17L230.697 338.816C229.417 334.978 223.787 318.088 213.039 291.218C207.026 276.248 193.719 265.5 177.725 262.813C166.593 261.021 154.437 259.486 145.097 259.614C126.032 259.87 109.654 273.305 105.816 291.986C102.873 306.316 107.991 315.657 104.792 346.877L103.769 425.439L194.614 428.766L191.288 336.001Z" fill="#9CC02A"/>
<path d="M109.143 345.982C109.143 345.982 96.4754 346.75 91.6133 337.153C91.6133 337.153 105.176 286.868 109.91 280.982L109.143 345.982Z" fill="#9CC02A"/>
<path d="M214.831 296.209C214.831 296.209 214.447 296.465 213.807 296.849C213.039 297.104 211.888 297.488 210.352 297.488C208.817 297.488 206.898 297.232 204.85 296.849C202.803 296.337 200.372 295.697 197.813 295.185C196.534 294.929 195.126 295.057 193.719 294.929C192.311 295.185 190.776 295.185 189.24 295.697C186.17 296.465 183.099 297.744 180.028 299.536C176.957 301.199 173.758 303.246 170.431 305.165C167.105 307.085 163.522 309.132 159.428 310.283C155.461 311.435 151.111 311.563 147.144 310.539C143.306 309.388 139.979 307.341 137.164 305.165C134.349 302.99 131.79 300.687 129.487 298.512C127.184 296.337 124.881 294.545 122.705 293.01C118.355 289.939 114.133 288.532 111.19 288.148C108.247 287.892 106.583 288.276 106.583 288.148C106.583 288.148 106.967 288.02 107.735 287.892C108.503 287.764 109.654 287.636 111.19 287.764C114.261 288.02 118.611 289.299 123.089 292.37C125.392 293.906 127.696 295.697 130.127 297.872C132.558 299.919 134.989 302.222 137.804 304.398C140.619 306.445 143.817 308.492 147.4 309.516C150.983 310.539 155.077 310.411 158.916 309.26C162.754 308.108 166.337 306.189 169.664 304.27C172.99 302.35 176.189 300.303 179.388 298.64C182.587 296.976 185.786 295.569 188.857 294.801C190.392 294.289 192.055 294.289 193.463 294.162C194.998 294.289 196.406 294.162 197.813 294.545C200.5 295.057 202.803 295.825 204.85 296.337C206.898 296.849 208.689 297.232 210.224 297.232C213.295 296.976 214.831 296.081 214.831 296.209Z" fill="#19094D"/>
<path d="M191.928 358.905C191.8 359.161 190.008 357.37 186.298 356.858C184.506 356.602 182.203 356.73 179.772 357.242C177.341 357.753 174.654 358.649 171.839 359.289C166.081 360.824 160.451 360.44 156.741 359.545C152.902 358.649 150.855 357.37 150.855 357.37C150.983 357.114 153.158 358.009 156.869 358.649C160.579 359.289 165.825 359.545 171.455 358.009C174.27 357.37 176.957 356.474 179.516 355.962C182.075 355.45 184.506 355.45 186.426 355.834C188.345 356.218 189.88 356.986 190.776 357.625C191.672 358.393 192.055 358.905 191.928 358.905Z" fill="#19094D"/>
<path d="M192.951 405.735C192.951 405.735 192.567 406.375 191.8 407.143C190.904 407.91 189.625 409.062 187.705 409.957C185.786 410.853 183.355 411.749 180.412 411.749C177.597 411.749 174.526 410.981 171.455 409.702C168.512 408.55 165.698 407.271 163.138 406.503C160.579 405.735 158.148 405.479 156.101 405.735C154.054 405.863 152.518 406.503 151.623 407.015C150.599 407.526 150.215 408.038 150.087 407.91C150.087 407.91 150.343 407.271 151.367 406.503C152.263 405.735 153.926 404.967 156.101 404.711C158.276 404.456 160.835 404.584 163.522 405.223C166.209 405.991 169.024 407.271 171.967 408.422C174.91 409.574 177.725 410.341 180.412 410.469C183.099 410.469 185.402 409.83 187.321 409.062C190.904 407.526 192.695 405.607 192.951 405.735Z" fill="#19094D"/>
<g opacity="0.3">
<path opacity="0.3" d="M94.3003 346.877C106.2 349.308 118.355 346.877 130.511 346.11C137.804 345.726 145.993 344.83 151.879 349.436C156.485 353.019 158.404 359.033 159.684 364.663C164.802 386.287 165.697 405.735 166.849 427.871L107.991 426.591L94.3003 346.877Z" fill="black"/>
</g>
<path opacity="0.3" d="M109.911 306.061L112.47 342.783H104.665L109.911 306.061Z" fill="black"/>
<path d="M126.416 425.312L243.236 429.407C262.173 430.047 277.143 445.785 276.887 464.722L275.864 531.001H233L230.185 473.806L126.416 471.119V425.312Z" fill="#19094D"/>
<path d="M165.569 485.962H154.054V528.058H165.569V485.962Z" fill="#54428F"/>
<path d="M57.7061 352.252V453.59C57.7061 466.897 68.454 477.645 81.761 477.645H149.192V352.252C149.192 346.366 144.329 341.504 138.444 341.504H68.454C62.4403 341.632 57.7061 346.366 57.7061 352.252Z" fill="#54428F"/>
<path d="M240.037 485.962H75.7471C75.7471 476.109 83.6801 468.176 93.5324 468.176H222.252C232.104 468.048 240.037 476.109 240.037 485.962Z" fill="#54428F"/>
<path d="M149.192 465.744C149.192 465.744 149.32 466.768 148.936 468.687C148.552 470.606 147.272 473.293 144.585 475.468C143.178 476.492 141.387 477.388 139.339 477.772C138.316 478.028 137.292 478.028 136.141 478.028C135.117 478.028 133.965 478.028 132.814 478.028C128.208 478.028 123.345 478.028 118.099 478.028C107.607 478.028 98.2668 478.028 91.2295 477.9C87.9027 477.9 85.0878 477.772 83.0406 477.772C82.1449 477.772 81.3772 477.772 80.8654 477.772C80.3536 477.772 80.0977 477.772 80.0977 477.644C80.0977 477.644 80.3536 477.644 80.8654 477.516C81.5051 477.516 82.1449 477.516 83.0406 477.388C85.0878 477.388 87.7748 477.26 91.2295 477.26C98.1389 477.26 107.607 477.132 118.099 477.132C123.345 477.132 128.335 477.132 132.814 477.132C133.965 477.132 135.117 477.132 136.141 477.132C137.164 477.132 138.188 477.132 139.211 477.004C141.131 476.748 142.922 475.852 144.202 474.829C146.888 472.781 148.168 470.222 148.68 468.303C149.192 466.768 149.192 465.744 149.192 465.744Z" fill="#19094D"/>
<path d="M169.92 486.346C169.92 486.474 165.442 486.73 159.812 486.73C154.182 486.73 149.704 486.602 149.704 486.346C149.704 486.218 154.182 485.962 159.812 485.962C165.442 485.962 169.92 486.09 169.92 486.346Z" fill="#19094D"/>
<path d="M219.949 478.54C219.949 478.54 219.821 478.157 219.693 477.261C219.565 476.493 219.309 475.214 219.053 473.678C218.542 470.607 217.774 466.001 217.006 460.371C216.494 457.556 216.238 454.485 215.599 451.287C215.471 450.519 215.343 449.623 215.087 448.856C214.831 448.088 214.575 447.192 214.319 446.424C214.191 446.041 214.063 445.529 213.935 445.145C213.807 444.761 213.551 444.377 213.424 443.865C213.04 442.97 212.784 442.202 212.4 441.306C210.864 437.98 208.817 434.653 206.258 431.454C203.699 428.383 200.628 425.568 197.046 423.137C193.463 420.706 189.752 418.915 185.914 417.763C182.075 416.612 178.237 415.844 174.526 415.844C167.105 415.716 160.323 415.716 154.694 415.588C149.064 415.588 144.457 415.46 141.259 415.332C139.723 415.332 138.444 415.204 137.548 415.204C136.652 415.204 136.269 415.076 136.269 415.076C136.269 415.076 136.652 414.948 137.548 414.948C138.444 414.948 139.595 414.82 141.259 414.82C144.457 414.692 149.064 414.692 154.694 414.564C160.323 414.564 167.105 414.437 174.654 414.437C178.493 414.437 182.459 415.204 186.426 416.356C190.392 417.507 194.359 419.427 197.941 421.858C201.524 424.289 204.723 427.232 207.41 430.431C209.969 433.629 212.144 437.084 213.679 440.539C214.063 441.434 214.319 442.33 214.703 443.098C214.831 443.482 215.087 443.993 215.215 444.377C215.343 444.761 215.471 445.273 215.599 445.657C215.855 446.552 216.11 447.32 216.366 448.216C216.494 449.111 216.622 449.879 216.878 450.775C217.518 454.102 217.774 457.172 218.158 459.987C218.925 465.617 219.437 470.096 219.821 473.294C219.949 474.83 220.077 476.109 220.205 476.877C219.949 478.157 219.949 478.54 219.949 478.54Z" fill="#54428F"/>
<path d="M12.5389 355.962C12.5389 355.962 10.4917 361.72 14.4582 365.942H22.7751C22.7751 365.942 22.0074 356.602 12.5389 355.962Z" fill="#50A436"/>
<path opacity="0.4" d="M12.5389 355.962C12.5389 355.962 10.4917 361.72 14.4582 365.942H22.7751C22.7751 365.942 22.0074 356.602 12.5389 355.962Z" fill="black"/>
<path d="M26.6141 344.062C26.2302 343.679 19.1929 354.682 23.1594 365.942H30.9644C30.9644 365.942 34.0353 352.891 26.6141 344.062Z" fill="#50A436"/>
<path d="M40.4328 355.962C40.4328 355.962 31.6041 356.346 30.9644 365.942H38.7694C38.7694 365.942 42.0962 361.208 40.4328 355.962Z" fill="#50A436"/>
<path d="M13.8187 365.559C13.8187 365.559 4.86206 371.444 6.78134 382.832C8.82857 394.348 20.984 399.338 20.984 399.338H34.4189C34.4189 399.338 48.1098 393.324 47.8539 380.785C47.47 368.246 39.409 365.687 39.409 365.687L13.8187 365.559Z" fill="#19094D"/>
<path d="M47.7259 379.377C47.5979 379.377 47.47 378.737 46.5743 377.97C45.6786 377.202 44.1432 376.434 42.096 376.69C40.0488 376.818 37.8736 378.098 35.5704 379.505C34.4189 380.273 33.1394 381.04 31.6039 381.552C30.1965 382.064 28.5331 382.32 26.8697 382.064C23.543 381.552 20.9839 379.761 18.5529 378.609C16.1218 377.33 13.6907 376.69 11.6435 376.946C9.59623 377.202 8.18876 378.225 7.42105 379.121C6.65334 380.017 6.52539 380.657 6.52539 380.657C6.52539 380.657 6.52539 380.529 6.65334 380.145C6.78129 379.889 6.90925 379.377 7.2931 378.865C7.93286 377.842 9.46828 376.818 11.6435 376.434C13.8186 376.05 16.3777 376.818 18.9367 377.97C21.4958 379.121 24.0548 380.913 27.1256 381.424C28.6611 381.68 30.1965 381.552 31.6039 381.04C33.0114 380.529 34.2909 379.761 35.4425 379.121C37.7456 377.714 40.1767 376.434 42.3519 376.306C44.5271 376.178 46.1905 377.074 47.0861 377.842C47.47 378.225 47.7259 378.737 47.8538 378.993C47.7259 379.249 47.8538 379.377 47.7259 379.377Z" fill="#19094D"/>
<path d="M47.9817 382.447C47.8537 382.447 47.7258 381.808 46.8301 381.04C46.0624 380.272 44.399 379.504 42.3518 379.76C40.3046 379.888 38.1294 381.168 35.8262 382.575C34.6747 383.343 33.3952 384.111 31.9877 384.623C30.5802 385.134 28.9168 385.39 27.2535 385.134C24.0547 384.623 21.3677 382.831 18.9366 381.68C16.5055 380.4 14.0744 379.76 12.1552 380.016C10.1079 380.272 8.70046 381.296 8.0607 382.192C7.29299 383.087 7.29299 383.727 7.16504 383.727C7.16504 383.727 7.16504 383.599 7.29299 383.215C7.42094 382.959 7.54889 382.447 7.93275 381.936C8.57251 380.912 10.1079 379.888 12.1552 379.505C14.3303 379.121 16.8894 379.888 19.3205 381.04C21.7515 382.191 24.4385 383.983 27.3814 384.495C28.9168 384.751 30.4523 384.623 31.7318 384.111C33.1393 383.599 34.2908 382.831 35.5703 382.192C37.8735 380.784 40.1766 379.505 42.3518 379.377C44.527 379.249 46.1903 380.144 46.9581 380.912C47.3419 381.296 47.5978 381.808 47.7258 382.064C47.9817 382.319 47.9817 382.447 47.9817 382.447Z" fill="#19094D"/>
<path d="M13.0511 382.32C13.0511 382.192 13.435 382.064 13.9468 382.448C14.2027 382.576 14.3307 383.088 14.2027 383.472C14.0748 383.856 13.6909 384.24 13.1791 384.24C12.6673 384.24 12.2834 383.856 12.1555 383.344C12.0275 382.96 12.2834 382.576 12.4114 382.32C12.9232 381.936 13.307 382.064 13.1791 382.192C13.1791 382.32 12.9232 382.32 12.6673 382.704C12.5393 382.832 12.5393 383.088 12.6673 383.216C12.7952 383.344 12.9232 383.6 13.0511 383.6C13.1791 383.6 13.435 383.472 13.5629 383.344C13.6909 383.216 13.5629 383.088 13.5629 382.832C13.307 382.448 13.0511 382.448 13.0511 382.32Z" fill="#19094D"/>
<path d="M28.2772 377.457C28.2772 377.329 28.6611 377.201 29.1729 377.585C29.4288 377.713 29.5567 378.225 29.4288 378.609C29.3008 378.992 28.917 379.376 28.4052 379.376C27.8934 379.376 27.5095 378.992 27.3816 378.481C27.2536 378.097 27.5095 377.713 27.6375 377.457C28.1493 377.073 28.5331 377.201 28.4052 377.329C28.4052 377.457 28.1493 377.457 27.8934 377.841C27.7654 377.969 27.7654 378.225 27.8934 378.353C28.0213 378.481 28.1493 378.737 28.2772 378.737C28.4052 378.737 28.6611 378.609 28.789 378.481C28.917 378.353 28.789 378.225 28.789 377.969C28.5331 377.585 28.2772 377.585 28.2772 377.457Z" fill="#19094D"/>
<path d="M43.1195 382.575C43.1195 382.447 43.5034 382.319 44.0152 382.703C44.2711 382.831 44.399 383.343 44.2711 383.727C44.1431 384.111 43.7593 384.495 43.2475 384.495C42.7356 384.495 42.3518 384.111 42.2238 383.599C42.0959 383.215 42.3518 382.831 42.4797 382.575C42.9915 382.191 43.3754 382.319 43.2475 382.447C43.2475 382.575 42.9915 382.575 42.7356 382.959C42.6077 383.087 42.6077 383.343 42.7356 383.471C42.8636 383.599 42.9915 383.855 43.1195 383.855C43.2475 383.855 43.5034 383.727 43.6313 383.599C43.7593 383.471 43.6313 383.343 43.6313 383.087C43.3754 382.703 43.1195 382.703 43.1195 382.575Z" fill="#19094D"/>
</svg>
