<svg width="524" height="554" viewBox="0 0 524 554" fill="none" xmlns="http://www.w3.org/2000/svg">
<path d="M311.501 317.518C311.501 317.518 311.638 317.654 311.774 317.791C311.911 317.928 312.185 318.201 312.595 318.612C313.279 319.295 314.236 320.389 315.603 321.757C318.201 324.628 322.03 328.731 326.953 333.927C336.662 344.456 350.61 359.361 367.155 377.274H366.745C380.146 361.822 395.735 344.046 412.417 324.902L412.691 324.491L412.964 324.902C414.058 326.543 415.152 328.184 416.246 329.961C428.553 348.422 440.176 366.061 450.706 381.924L450.295 381.787C462.602 371.941 473.815 363.053 483.524 355.259L483.661 355.122L483.797 355.259C494.463 367.292 503.078 377.138 509.095 383.975C512.103 387.393 514.428 389.991 515.932 391.769C516.753 392.59 517.3 393.273 517.71 393.82C518.12 394.231 518.257 394.504 518.257 394.504C518.257 394.504 517.983 394.231 517.573 393.82C517.163 393.41 516.479 392.726 515.795 391.769C514.154 389.991 511.83 387.393 508.821 383.975C502.805 377.274 494.053 367.429 483.387 355.395H483.797C474.089 363.19 463.012 372.078 450.706 382.06L450.432 382.334L450.295 382.06C439.766 366.198 428.006 348.695 415.699 330.235C414.605 328.457 413.375 326.816 412.417 325.175H412.964C396.419 344.182 380.693 361.959 367.292 377.411L367.019 377.685L366.745 377.411C350.199 359.771 336.388 344.729 326.679 334.2C321.893 328.867 318.065 324.765 315.467 321.893C314.236 320.526 313.279 319.432 312.595 318.612C312.321 318.201 312.048 317.928 311.911 317.791C311.501 317.654 311.501 317.518 311.501 317.518Z" fill="#E7E7E7"/>
<path d="M362.37 377.684C362.37 380.283 364.558 382.47 367.156 382.47C369.754 382.47 371.942 380.283 371.942 377.684C371.942 375.086 369.754 372.898 367.156 372.898C364.558 372.898 362.37 374.95 362.37 377.684Z" fill="#E1E1E1"/>
<path d="M446.193 383.291C446.193 385.889 448.381 388.077 450.979 388.077C453.577 388.077 455.765 385.889 455.765 383.291C455.765 380.693 453.577 378.505 450.979 378.505C448.244 378.505 446.193 380.693 446.193 383.291Z" fill="#E1E1E1"/>
<path d="M478.738 357.037C478.738 359.635 480.926 361.823 483.524 361.823C486.122 361.823 488.31 359.635 488.31 357.037C488.31 354.439 486.122 352.251 483.524 352.251C480.926 352.251 478.738 354.302 478.738 357.037Z" fill="#E1E1E1"/>
<path d="M407.768 325.723C407.768 328.321 409.956 330.509 412.554 330.509C415.152 330.509 417.34 328.321 417.34 325.723C417.34 323.124 415.152 320.937 412.554 320.937C409.819 320.937 407.768 322.988 407.768 325.723Z" fill="#E1E1E1"/>
<path d="M514.428 394.914C514.428 397.512 516.616 399.7 519.214 399.7C521.812 399.7 524 397.512 524 394.914C524 392.316 521.812 390.128 519.214 390.128C516.616 390.128 514.428 392.316 514.428 394.914Z" fill="#E1E1E1"/>
<path d="M95.3102 32.8184H64.543V155.067H95.3102V32.8184Z" fill="#E7E7E7"/>
<path d="M140.572 59.4824H109.805V155.066H140.572V59.4824Z" fill="#E7E7E7"/>
<path d="M186.381 81.3613H155.614V155.066H186.381V81.3613Z" fill="#E7E7E7"/>
<path d="M228.908 111.31H198.141V155.067H228.908V111.31Z" fill="#E7E7E7"/>
<path d="M204.294 2.3252C204.294 2.3252 204.021 2.73543 203.474 3.41914C202.927 4.10286 201.97 5.06006 200.876 6.29075C198.551 8.88887 195.269 12.5809 191.167 17.3669C182.689 26.939 170.656 40.6133 156.161 57.0225L156.024 57.296L155.751 57.1592C148.777 51.8262 140.982 45.9463 132.914 39.6561H133.325C123.342 51.963 112.54 65.7741 101.327 79.9953L100.916 80.5423L100.643 80.8158L100.37 80.5423C85.0543 67.1415 70.5595 54.2876 57.2954 42.5277H57.8424C40.8862 64.8168 26.3914 83.6874 16.2724 97.225C11.2129 103.925 7.11065 109.122 4.37578 112.814C3.00835 114.591 1.9144 115.959 1.23069 116.916C0.820459 117.326 0.546973 117.736 0.41023 118.01C0.136743 118.147 0 118.283 0 118.283C0 118.283 0.136743 118.147 0.273486 117.873C0.41023 117.6 0.683716 117.189 1.09395 116.779C1.77766 115.822 2.87161 114.455 4.23904 112.54C6.9739 108.848 10.9395 103.515 15.999 96.8148C26.118 83.4139 40.476 64.4066 57.2954 41.9807L57.5689 41.7072L57.8424 41.9807C71.1065 53.6039 85.738 66.4578 100.916 79.9953H100.37L100.78 79.4484C112.129 65.0903 122.932 51.416 132.778 38.9724L132.914 38.6989L133.188 38.8356C141.256 45.1258 149.05 51.0058 156.024 56.3388H155.614C170.245 39.9296 182.415 26.392 190.894 16.82C195.133 12.034 198.414 8.3419 200.739 5.88052C201.833 4.64983 202.79 3.69263 203.337 3.00891C204.021 2.59868 204.294 2.3252 204.294 2.3252Z" fill="#E7E7E7"/>
<path d="M199.235 30.6305C199.235 30.6305 199.235 30.357 199.372 29.9468C199.509 29.3998 199.645 28.8528 199.782 28.1691C200.192 26.5282 200.602 24.3403 201.149 21.7422C202.38 16.2724 204.158 8.75156 206.072 0.41023L206.482 0.820459C205.935 0.957202 205.525 1.09395 204.978 1.23069C196.363 3.82881 188.569 6.15344 182.963 7.93111C180.228 8.75156 177.903 9.43528 176.262 9.84551C175.578 9.98225 174.895 10.2557 174.484 10.3925C174.074 10.5292 173.801 10.5292 173.801 10.5292C173.801 10.5292 173.938 10.3925 174.348 10.2557C174.895 10.119 175.442 9.84551 176.125 9.57203C177.766 9.02505 180.091 8.34134 182.689 7.38413C188.296 5.60647 196.09 3.14509 204.568 0.546973C205.115 0.41023 205.662 0.273486 206.072 0.136743L206.619 0L206.482 0.546973C204.568 8.88831 202.654 16.4092 201.286 21.8789C200.602 24.477 200.055 26.6649 199.645 28.3058C199.509 28.9896 199.235 29.5365 199.235 30.0835C199.235 30.4937 199.235 30.6305 199.235 30.6305Z" fill="#E7E7E7"/>
<path d="M441.544 208.943C458.637 208.669 472.585 222.343 472.858 239.299C473.132 256.392 459.457 270.34 442.501 270.614C425.408 270.887 411.461 257.213 411.187 240.257C410.914 223.301 424.588 209.216 441.544 208.943ZM442.365 254.615C450.569 254.478 456.996 247.778 456.859 239.573C456.723 231.368 450.022 224.941 441.818 225.078C433.613 225.215 427.186 231.915 427.323 240.12C427.46 248.188 434.16 254.751 442.365 254.615Z" fill="#E1E1E1"/>
<path d="M441.544 205.114C460.688 204.84 476.55 220.156 476.824 239.3L455.765 239.847C455.628 230.685 449.475 226.993 442.091 226.446C436.074 226.036 428.006 230.685 428.28 239.847L407.495 240.394C407.085 221.25 422.4 205.387 441.544 205.114Z" fill="#F0F0F0"/>
<path d="M191.577 345.003C213.456 321.757 250.513 320.526 273.896 342.268C297.416 364.011 298.647 400.521 276.768 423.767C254.889 447.014 217.831 448.244 194.448 426.502C170.928 404.76 169.698 368.25 191.577 345.003ZM254.478 403.256C265.008 392.18 264.324 374.677 253.111 364.284C241.898 353.892 224.258 354.439 213.729 365.652C203.2 376.728 203.883 394.231 215.096 404.623C226.309 414.879 244.086 414.332 254.478 403.256Z" fill="#F5F5F5"/>
<path d="M191.577 345.003C213.456 321.757 250.514 320.526 273.897 342.268L253.112 364.284C241.899 353.892 224.259 354.439 213.73 365.652C203.201 376.728 203.884 394.231 215.097 404.623L194.312 426.639C170.929 404.76 169.698 368.25 191.577 345.003Z" fill="#E1E1E1"/>
<path d="M271.572 332.834C300.288 359.362 303.707 402.573 276.905 431.016L247.779 405.855C260.633 392.181 263.368 374.13 249.693 361.413L271.572 332.834Z" fill="#ECECEC"/>
<path d="M244.634 407.768L262 442.091C269.658 439.082 276.085 434.98 280.871 429.647L249.693 404.486L244.634 407.768Z" fill="#E1E1E1"/>
<path d="M309.997 91.4802C309.313 48.6796 343.636 13.2631 386.436 12.5794C429.237 11.8957 464.653 46.2182 465.337 89.0188C466.021 131.819 431.698 167.236 388.898 167.92C346.097 168.467 310.681 134.281 309.997 91.4802ZM424.861 89.5658C424.588 69.0543 407.632 52.6451 387.12 53.0554C366.609 53.3289 350.199 70.285 350.61 90.7965C350.883 111.308 367.839 127.717 388.351 127.307C408.725 127.033 425.135 110.077 424.861 89.5658Z" fill="#FAFAFA"/>
<path d="M309.997 91.4809C309.313 48.6803 343.636 13.2638 386.436 12.5801L387.12 53.0561C366.609 53.3296 350.199 70.2857 350.61 90.7972C350.883 111.309 367.839 127.718 388.351 127.308L389.034 167.784C346.097 168.467 310.681 134.282 309.997 91.4809Z" fill="#E1E1E1"/>
<path d="M379.462 6.29015C429.51 5.46969 469.576 44.168 470.26 94.216L422.81 95.0365C422.4 71.1064 404.076 56.0647 380.146 56.3382L379.462 6.29015Z" fill="#F0F0F0"/>
<path d="M154.383 363.737L407.768 361.822V365.378L154.383 367.702V363.737Z" fill="#1A2E35"/>
<path d="M148.776 106.112L154.52 365.787L407.768 363.873V101.736L148.776 106.112Z" fill="white"/>
<path d="M148.776 106.113C151.374 106.113 252.564 104.199 407.631 101.464H407.905V101.737C407.905 176.809 407.905 265.282 407.905 359.772C407.905 361.139 407.905 362.507 407.905 363.874V364.284H407.495C314.919 364.968 228.087 365.652 154.383 366.199H154.109V365.925C150.964 210.175 148.913 108.711 148.776 106.113C148.776 108.711 151.238 210.175 154.793 365.788L154.52 365.515C228.224 364.968 315.056 364.284 407.631 363.464L407.221 363.874C407.221 362.507 407.221 361.139 407.221 359.772C407.221 265.282 407.221 176.809 407.221 101.737L407.495 102.011C252.564 104.472 151.374 106.113 148.776 106.113Z" fill="#1A2E35"/>
<path d="M147.819 107.891L408.862 106.387L409.136 95.4473L147.819 96.9514V107.891Z" fill="#1A2E35"/>
<path d="M272.803 372.899C272.393 372.899 271.846 370.848 271.709 368.387C271.572 365.788 271.846 363.737 272.256 363.737C272.666 363.737 273.213 365.788 273.35 368.25C273.487 370.711 273.213 372.899 272.803 372.899Z" fill="#1A2E35"/>
<path d="M272.666 370.985C272.666 370.849 273.076 370.849 273.76 371.122C274.033 371.259 274.443 371.532 274.854 371.806C275.264 372.079 275.674 372.626 276.084 373.173C276.768 374.404 277.041 376.318 275.947 377.959C275.674 378.369 275.401 378.78 274.99 379.053C274.58 379.327 274.17 379.6 273.623 379.737C272.529 380.01 271.435 380.01 270.478 379.463C269.931 379.19 269.521 378.916 269.11 378.506C268.7 378.096 268.427 377.686 268.153 377.139C267.743 376.182 267.743 375.088 267.88 374.267C268.153 373.31 268.563 372.49 269.11 371.943C269.657 371.396 270.478 370.985 271.161 370.849C272.529 370.575 273.623 370.849 274.307 371.122C274.99 371.396 275.264 371.806 275.127 371.943C275.127 372.079 274.717 371.943 274.033 371.806C273.349 371.669 272.529 371.669 271.435 372.079C270.888 372.216 270.478 372.626 270.068 373.037C269.657 373.447 269.384 374.13 269.247 374.677C269.11 375.361 269.247 376.045 269.521 376.729C269.794 377.412 270.341 377.823 271.025 378.096C271.708 378.369 272.529 378.506 273.076 378.233C273.76 378.096 274.307 377.686 274.58 377.139C274.99 376.592 275.127 375.908 275.264 375.361C275.264 375.088 275.264 374.814 275.264 374.541C275.264 374.267 275.127 373.994 274.99 373.72C274.58 372.763 273.896 372.079 273.349 371.669C272.939 371.396 272.666 371.122 272.666 370.985Z" fill="#1A2E35"/>
<path d="M310.27 248.188C310.27 248.188 310.27 248.188 310.134 248.188C309.997 248.188 309.86 248.188 309.723 248.188C309.313 248.188 308.766 248.188 307.946 248.325C306.305 248.325 303.98 248.462 300.972 248.599C294.955 248.872 286.204 249.146 275.401 249.556C253.796 250.376 223.849 251.334 190.894 252.564C187.065 252.701 183.099 252.838 179.544 252.974H179.27V252.701C176.946 222.344 174.895 195.406 173.527 175.988C172.844 166.279 172.297 158.485 171.886 153.152C171.75 150.417 171.613 148.366 171.476 146.998C171.476 146.315 171.339 145.768 171.339 145.358C171.339 145.221 171.339 145.084 171.339 144.947C171.339 144.811 171.339 144.811 171.339 144.811C171.339 144.811 171.339 144.811 171.339 144.947C171.339 145.084 171.339 145.221 171.339 145.358C171.339 145.768 171.476 146.315 171.476 146.998C171.613 148.366 171.75 150.554 172.023 153.152C172.433 158.485 173.117 166.279 173.801 175.988C175.305 195.406 177.493 222.344 179.817 252.701L179.544 252.427C183.099 252.291 187.065 252.154 190.894 252.017C223.849 250.923 253.796 249.829 275.401 249.146C286.204 248.872 294.955 248.599 300.972 248.325C303.98 248.188 306.305 248.188 307.946 248.188C308.766 248.188 309.313 248.188 309.723 248.188C309.86 248.188 310.134 248.188 310.134 248.188C310.27 248.188 310.27 248.188 310.27 248.188Z" fill="#375A64"/>
<path d="M218.652 136.333V139.889L254.753 138.111V135.239L218.652 136.333Z" fill="#1A2E35"/>
<path d="M191.304 245.18H203.884L201.969 211.268H189.663L191.304 245.18Z" fill="#BD1CFF"/>
<path d="M214.003 245.318H226.583L224.669 197.731H212.362L214.003 245.318Z" fill="#BD1CFF"/>
<path d="M235.335 243.676H247.915L245.864 181.458H233.694L235.335 243.676Z" fill="#BD1CFF"/>
<path d="M284.152 241.352H296.733L294.681 156.435H282.375L284.152 241.352Z" fill="#BD1CFF"/>
<path d="M260.359 241.626H272.939L271.025 168.605H258.718L260.359 241.626Z" fill="#BD1CFF"/>
<path d="M183.509 202.38C183.236 201.833 205.525 186.928 233.557 169.014C261.453 151.101 284.426 137.016 284.699 137.563C284.973 138.11 262.684 153.015 234.651 170.929C206.756 188.842 183.783 202.926 183.509 202.38Z" fill="#BD1CFF"/>
<path d="M272.256 137.563C272.119 137.016 280.323 134.965 290.442 133.051L293.041 132.504L291.536 134.692C291.536 134.692 291.536 134.829 291.4 134.829C285.656 143.443 280.46 150.144 279.913 149.87C279.366 149.597 283.742 142.213 289.485 133.598C289.485 133.598 289.485 133.461 289.622 133.461L290.716 135.102C280.734 137.016 272.392 138.11 272.256 137.563Z" fill="#BD1CFF"/>
<path d="M189.663 256.804H202.653L203.2 259.128H189.663V256.804Z" fill="#1A2E35"/>
<path d="M212.772 255.847H225.9L226.31 258.171H212.772V255.847Z" fill="#1A2E35"/>
<path d="M236.703 255.163H249.83L250.24 257.488H236.703V255.163Z" fill="#1A2E35"/>
<path d="M258.992 254.479H272.119L272.529 256.941H258.992V254.479Z" fill="#1A2E35"/>
<path d="M286.75 253.659H299.878L300.288 256.121H286.75V253.659Z" fill="#1A2E35"/>
<path d="M345.55 346.37C368.659 346.37 387.393 327.637 387.393 304.527C387.393 281.418 368.659 262.684 345.55 262.684C322.44 262.684 303.707 281.418 303.707 304.527C303.707 327.637 322.44 346.37 345.55 346.37Z" fill="#BD1CFF"/>
<path opacity="0.3" d="M345.55 346.37C368.659 346.37 387.393 327.637 387.393 304.527C387.393 281.418 368.659 262.684 345.55 262.684C322.44 262.684 303.707 281.418 303.707 304.527C303.707 327.637 322.44 346.37 345.55 346.37Z" fill="black"/>
<path d="M345.55 304.527L304.8 313.689C298.237 283.605 322.44 262.684 345.55 262.684" fill="#BD1CFF"/>
<path d="M345.55 304.527L345.276 262.684C376.044 262.684 391.359 290.853 386.436 313.415L345.55 304.527Z" fill="#BD1CFF"/>
<path d="M345.55 304.527L345.276 262.684C376.044 262.684 391.359 290.853 386.436 313.415L345.55 304.527Z" fill="#BD1CFF"/>
<path opacity="0.1" d="M345.55 304.527L345.276 262.684C376.044 262.684 391.359 290.853 386.436 313.415L345.55 304.527Z" fill="black"/>
<path d="M388.487 205.526C388.487 205.663 387.667 204.842 385.889 204.159C384.112 203.475 381.377 203.338 378.232 204.432C375.086 205.389 371.805 207.987 368.796 211.133C365.651 214.278 362.369 218.243 357.583 220.431C355.259 221.525 352.524 222.072 350.062 221.662C347.601 221.252 345.413 220.158 343.362 219.337C341.311 218.38 339.396 217.56 337.482 217.286C335.568 217.013 333.79 217.286 332.286 217.97C329.277 219.337 327.5 221.525 326.679 223.166C325.859 224.807 325.859 225.901 325.722 225.901C325.722 225.901 325.722 224.807 326.406 223.029C327.226 221.252 328.867 218.927 332.012 217.423C333.517 216.739 335.568 216.329 337.619 216.602C339.67 216.876 341.721 217.696 343.636 218.653C345.687 219.611 347.738 220.568 350.062 220.978C352.387 221.388 354.848 220.841 357.173 219.747C361.822 217.56 365.104 213.731 368.249 210.586C371.394 207.441 374.676 204.842 377.958 203.885C381.24 202.928 384.112 203.201 385.889 203.885C386.846 204.295 387.393 204.706 387.804 204.979C388.214 205.389 388.487 205.526 388.487 205.526Z" fill="#1A2E35"/>
<path d="M391.906 232.602C391.906 232.738 377.001 233.012 358.814 233.012C340.49 233.012 325.722 232.875 325.722 232.602C325.722 232.465 340.627 232.191 358.814 232.191C377.138 232.191 391.906 232.465 391.906 232.602Z" fill="#1A2E35"/>
<path d="M388.214 232.601C388.077 232.601 387.804 224.123 387.804 213.731C387.804 203.338 387.94 194.86 388.214 194.86C388.351 194.86 388.624 203.338 388.624 213.731C388.624 224.123 388.487 232.601 388.214 232.601Z" fill="#1A2E35"/>
<path d="M332.286 216.739C332.286 216.739 332.149 216.602 332.286 216.328C332.422 216.055 332.559 215.782 333.106 215.645C333.516 215.508 334.2 215.371 334.747 215.918C335.294 216.328 335.294 217.286 334.884 217.969C334.474 218.516 333.653 218.927 332.969 218.516C332.422 218.106 332.149 217.559 332.149 217.149C332.149 216.739 332.422 216.328 332.559 216.192C332.696 216.055 332.969 216.055 332.969 216.055C332.969 216.192 332.559 216.465 332.696 217.149C332.696 217.422 332.969 217.833 333.243 217.969C333.516 218.106 334.063 217.969 334.337 217.559C334.61 217.149 334.61 216.739 334.337 216.465C334.063 216.192 333.653 216.192 333.38 216.192C332.559 216.192 332.422 216.739 332.286 216.739Z" fill="#1A2E35"/>
<path d="M377.001 202.928C377.001 202.928 377.001 202.791 377.275 202.654C377.548 202.518 377.822 202.381 378.369 202.518C378.779 202.654 379.326 202.928 379.462 203.612C379.599 204.295 379.052 205.116 378.369 205.252C377.685 205.526 376.864 205.252 376.591 204.569C376.317 203.885 376.591 203.338 376.864 203.065C377.138 202.654 377.548 202.518 377.821 202.518C378.095 202.518 378.232 202.654 378.232 202.654C378.232 202.791 377.685 202.791 377.411 203.338C377.275 203.612 377.138 204.022 377.275 204.295C377.411 204.569 377.822 204.705 378.232 204.569C378.642 204.432 378.915 204.022 378.915 203.748C378.915 203.338 378.642 203.065 378.232 202.928C377.548 202.791 377.138 203.065 377.001 202.928Z" fill="#1A2E35"/>
<path d="M387.12 158.212C387.12 158.349 372.762 158.622 354.985 158.622C337.209 158.622 322.851 158.485 322.851 158.212C322.851 158.075 337.209 157.802 354.985 157.802C372.762 157.939 387.12 158.075 387.12 158.212Z" fill="#1A2E35"/>
<path d="M387.12 167.237C387.12 167.374 372.762 167.648 354.985 167.648C337.209 167.648 322.851 167.511 322.851 167.237C322.851 167.101 337.209 166.827 354.985 166.827C372.762 166.827 387.12 166.964 387.12 167.237Z" fill="#1A2E35"/>
<path d="M387.12 176.126C387.12 176.263 372.762 176.536 354.985 176.536C337.209 176.536 322.851 176.4 322.851 176.126C322.851 175.989 337.209 175.716 354.985 175.716C372.762 175.716 387.12 175.853 387.12 176.126Z" fill="#1A2E35"/>
<path d="M387.12 185.014C387.12 185.15 372.762 185.424 354.985 185.424C337.209 185.424 322.851 185.287 322.851 185.014C322.851 184.877 337.209 184.604 354.985 184.604C372.762 184.604 387.12 184.877 387.12 185.014Z" fill="#1A2E35"/>
<path d="M357.036 141.939H322.851V144.811H357.036V141.939Z" fill="#1A2E35"/>
<path d="M215.918 285.246H181.732V288.118H215.918V285.246Z" fill="#1A2E35"/>
<path d="M275.264 301.93C275.264 302.067 254.479 302.34 228.908 302.34C203.337 302.34 182.552 302.203 182.552 301.93C182.552 301.793 203.337 301.52 228.908 301.52C254.479 301.52 275.264 301.656 275.264 301.93Z" fill="#1A2E35"/>
<path d="M275.811 309.996C275.811 310.133 254.752 310.406 228.634 310.406C202.653 310.406 181.458 310.27 181.458 309.996C181.458 309.859 202.516 309.586 228.634 309.586C254.752 309.723 275.811 309.859 275.811 309.996Z" fill="#1A2E35"/>
<path d="M276.905 317.655C276.905 317.792 255.709 318.066 229.455 318.066C203.2 318.066 182.005 317.929 182.005 317.655C182.005 317.519 203.2 317.245 229.455 317.245C255.709 317.245 276.905 317.382 276.905 317.655Z" fill="#1A2E35"/>
<path d="M231.369 325.722C231.369 325.859 220.43 326.132 207.029 326.132C193.491 326.132 182.688 325.995 182.688 325.722C182.688 325.585 193.628 325.312 207.029 325.312C220.43 325.448 231.369 325.585 231.369 325.722Z" fill="#1A2E35"/>
<path d="M82.4558 547.111V534.804L59.3462 534.667L59.2095 552.717L60.5769 552.854C67.0038 553.264 93.1218 554.358 97.3608 553.127C102.147 551.623 82.4558 547.111 82.4558 547.111Z" fill="#BD1CFF"/>
<path d="M97.9078 551.897C97.9078 552.17 89.293 552.307 78.627 552.307C67.961 552.307 59.3462 552.17 59.3462 551.897C59.3462 551.623 67.961 551.486 78.627 551.486C89.293 551.623 97.9078 551.76 97.9078 551.897Z" fill="#1A2E35"/>
<path d="M82.8662 549.709C82.7295 549.573 82.8662 548.889 83.2765 548.342C83.8234 547.658 84.3704 547.385 84.5071 547.521C84.6439 547.658 84.3704 548.205 83.8234 548.889C83.5499 549.299 83.1397 549.709 82.8662 549.709Z" fill="#1A2E35"/>
<path d="M84.3704 550.394C84.2337 550.257 84.2337 549.573 84.7806 548.753C85.1909 547.932 85.8746 547.522 86.0113 547.659C86.1481 547.795 85.8746 548.479 85.4643 549.163C84.9174 549.983 84.5071 550.53 84.3704 550.394Z" fill="#1A2E35"/>
<path d="M66.1833 551.897C66.0466 551.897 65.7731 551.624 65.2261 551.077C64.6792 550.53 63.9954 549.709 63.175 549.162C62.3545 548.479 61.3973 548.205 60.7136 548.068C60.0299 547.932 59.6197 548.068 59.4829 547.932C59.4829 547.795 59.8931 547.521 60.7136 547.521C61.5341 547.521 62.628 547.795 63.7219 548.479C64.6792 549.162 65.3629 550.12 65.7731 550.667C66.0466 551.35 66.3201 551.761 66.1833 551.897Z" fill="#1A2E35"/>
<path d="M83.0028 547.384C83.1396 547.521 82.7293 548.068 82.0456 548.205C81.3619 548.478 80.8149 548.342 80.8149 548.068C80.8149 547.795 81.2252 547.658 81.7721 547.384C82.3191 547.248 82.8661 547.111 83.0028 547.384Z" fill="#1A2E35"/>
<path d="M82.5928 546.153C82.5928 546.427 82.0458 546.564 81.2253 546.564C80.4049 546.564 79.8579 546.427 79.8579 546.153C79.8579 545.88 80.5416 545.743 81.2253 545.743C81.9091 545.743 82.5928 545.88 82.5928 546.153Z" fill="#BD1CFF"/>
<path d="M97.9078 551.897C97.9078 552.17 89.293 552.307 78.627 552.307C67.961 552.307 59.3462 552.17 59.3462 551.897C59.3462 551.623 67.961 551.486 78.627 551.486C89.293 551.623 97.9078 551.76 97.9078 551.897Z" fill="#1A2E35"/>
<path d="M82.8662 549.709C82.7295 549.573 82.8662 548.889 83.2765 548.342C83.8234 547.658 84.3704 547.385 84.5071 547.521C84.6439 547.658 84.3704 548.205 83.8234 548.889C83.5499 549.299 83.1397 549.709 82.8662 549.709Z" fill="#1A2E35"/>
<path d="M84.3704 550.393C84.2337 550.256 84.2337 549.572 84.7806 548.752C85.1909 547.931 85.8746 547.521 86.0113 547.658C86.1481 547.794 85.8746 548.478 85.4643 549.162C84.9174 549.982 84.5071 550.529 84.3704 550.393Z" fill="#1A2E35"/>
<path d="M66.1833 551.896C66.0466 551.896 65.7731 551.623 65.2261 551.076C64.6792 550.529 63.9954 549.708 63.175 549.161C62.3545 548.478 61.3973 548.204 60.7136 548.068C60.0299 547.931 59.6197 548.068 59.4829 547.931C59.4829 547.794 59.8931 547.521 60.7136 547.521C61.5341 547.521 62.628 547.794 63.7219 548.478C64.6792 549.161 65.3629 550.119 65.7731 550.666C66.0466 551.349 66.3201 551.76 66.1833 551.896Z" fill="#1A2E35"/>
<path d="M83.0028 547.384C83.1396 547.521 82.7293 548.068 82.0456 548.205C81.3619 548.478 80.8149 548.342 80.8149 548.068C80.8149 547.795 81.2252 547.658 81.7721 547.384C82.3191 547.248 82.8661 547.111 83.0028 547.384Z" fill="#1A2E35"/>
<path d="M82.5928 546.153C82.5928 546.427 82.0458 546.564 81.2253 546.564C80.4049 546.564 79.8579 546.427 79.8579 546.153C79.8579 545.88 80.5416 545.743 81.2253 545.743C81.9091 545.743 82.5928 545.88 82.5928 546.153Z" fill="#1A2E35"/>
<path d="M106.933 542.735L110.625 530.975L88.6094 524.001L83.1396 541.231L84.5071 541.778C90.5238 544.102 115.138 552.854 119.513 552.991C124.299 552.854 106.933 542.735 106.933 542.735Z" fill="#BD1CFF"/>
<path d="M120.197 551.896C120.197 552.169 111.856 549.708 101.6 546.563C91.3444 543.418 83.1398 540.683 83.2766 540.409C83.2766 540.136 91.6179 542.597 101.874 545.742C111.993 549.024 120.197 551.759 120.197 551.896Z" fill="#1A2E35"/>
<path d="M106.523 545.333C106.386 545.196 106.796 544.649 107.343 544.102C108.027 543.692 108.71 543.555 108.71 543.692C108.847 543.829 108.3 544.376 107.753 544.786C107.206 545.196 106.659 545.47 106.523 545.333Z" fill="#1A2E35"/>
<path d="M107.753 546.426C107.617 546.289 107.89 545.605 108.574 545.058C109.258 544.511 109.941 544.238 110.078 544.375C110.215 544.511 109.805 545.058 109.121 545.605C108.437 546.152 107.89 546.563 107.753 546.426Z" fill="#1A2E35"/>
<path d="M89.977 542.461C89.8403 542.461 89.7035 542.051 89.2933 541.367C89.0198 540.683 88.6096 539.726 87.9259 538.906C87.2421 538.085 86.4217 537.402 85.8747 537.128C85.191 536.855 84.7808 536.855 84.7808 536.718C84.7808 536.581 85.3277 536.444 86.0115 536.581C86.8319 536.718 87.7891 537.402 88.6096 538.359C89.2933 539.316 89.7035 540.41 89.8403 541.094C89.977 541.914 89.977 542.461 89.977 542.461Z" fill="#375A64"/>
<path d="M107.343 543.009C107.343 543.282 106.933 543.556 106.113 543.556C105.429 543.556 104.882 543.282 104.882 543.146C104.882 542.872 105.429 542.872 106.113 542.735C106.659 542.735 107.206 542.872 107.343 543.009Z" fill="#1A2E35"/>
<path d="M107.343 541.778C107.343 542.051 106.66 542.051 105.839 541.778C105.155 541.504 104.608 541.231 104.608 540.957C104.745 540.82 105.292 540.82 106.113 540.957C106.796 541.231 107.343 541.641 107.343 541.778Z" fill="#1A2E35"/>
<path d="M122.658 302.613L92.3012 300.289L46.2188 296.597L51.415 543.828L91.344 543.281C91.344 543.281 91.344 540.547 91.2073 535.761L114.59 542.187C114.59 542.187 137.426 465.064 145.221 433.34C151.785 406.948 122.658 302.613 122.658 302.613ZM90.797 497.336C90.2501 440.314 89.4296 343.226 90.3868 331.329C90.3868 331.329 112.676 416.794 112.813 423.494C112.949 427.597 100.506 466.979 90.797 497.336Z" fill="#375A64"/>
<path d="M91.4808 533.983C91.4808 534.257 82.5925 534.394 71.5163 534.394C60.4401 534.394 51.5518 534.257 51.5518 533.983C51.5518 533.71 60.4401 533.573 71.5163 533.573C82.5925 533.573 91.4808 533.71 91.4808 533.983Z" fill="#375A64"/>
<path d="M91.207 525.095C91.207 524.958 92.5745 525.505 94.8991 526.326C97.4972 527.283 100.642 528.377 104.061 529.471C107.479 530.702 110.625 531.796 113.223 532.616C115.547 533.436 117.052 533.983 116.915 534.12C116.915 534.257 115.411 533.847 112.949 533.163C110.625 532.479 107.343 531.385 103.651 530.155C100.095 528.924 96.8135 527.693 94.6256 526.736C92.301 525.779 91.207 525.232 91.207 525.095Z" fill="#375A64"/>
<path d="M127.854 422.812C127.854 423.086 124.436 423.496 120.333 423.769C116.094 424.043 112.812 424.18 112.812 423.906C112.812 423.633 116.231 423.222 120.333 422.949C124.436 422.675 127.718 422.539 127.854 422.812Z" fill="#375A64"/>
<path d="M125.12 427.188C125.12 427.461 122.522 426.778 119.376 425.957C116.231 425 113.77 424.179 113.77 423.906C113.77 423.632 116.368 424.316 119.513 425.137C122.795 426.094 125.256 427.051 125.12 427.188Z" fill="#375A64"/>
<path d="M93.9421 300.699C94.0789 300.699 94.0789 302.477 94.2156 305.348C94.2156 308.22 94.2156 312.322 94.2156 316.698C94.2156 318.886 94.2156 321.074 94.0789 322.988C94.0789 324.903 93.8054 326.68 93.1217 328.048C92.438 329.415 91.6175 330.236 90.9338 330.783C90.2501 331.193 89.8398 331.33 89.8398 331.33C89.8398 331.33 90.2501 331.056 90.7971 330.509C91.344 329.962 92.1645 329.142 92.7115 327.774C93.2584 326.544 93.5319 324.766 93.3952 322.852C93.3952 320.937 93.3952 318.749 93.3952 316.561C93.3952 312.186 93.5319 308.083 93.5319 305.212C93.8054 302.477 93.9421 300.699 93.9421 300.699Z" fill="#375A64"/>
<path d="M71.1062 299.195C71.1062 299.195 71.1062 299.469 71.1062 299.742C71.1062 300.153 71.1062 300.699 71.1062 301.52C71.1062 303.161 70.9694 305.349 70.8327 308.357C70.696 314.237 70.4225 322.852 70.0122 333.381C69.3285 354.576 68.7816 383.703 68.5081 415.974C68.3713 448.245 68.6448 477.508 69.1918 498.567C69.4653 509.096 69.602 517.711 69.7388 523.591C69.7388 526.463 69.8755 528.787 69.8755 530.428C69.8755 531.249 69.8755 531.796 69.8755 532.206C69.8755 532.616 69.8755 532.753 69.8755 532.753C69.8755 532.753 69.8755 532.616 69.8755 532.206C69.8755 531.796 69.8755 531.249 69.7388 530.428C69.7388 528.787 69.602 526.599 69.4653 523.591C69.1918 517.711 68.9183 509.096 68.6448 498.567C68.0978 477.372 67.6876 448.245 67.8244 415.837C67.9611 383.566 68.7816 354.303 69.4653 333.244C69.8755 322.715 70.149 314.1 70.5592 308.22C70.696 305.349 70.8327 303.024 70.9695 301.383C70.9695 300.699 71.1062 300.016 71.1062 299.606C71.1062 299.469 71.1062 299.195 71.1062 299.195Z" fill="#375A64"/>
<path d="M112.676 305.485C112.676 305.485 112.813 305.622 112.813 306.032C112.95 306.443 113.086 306.99 113.36 307.673C113.77 309.177 114.454 311.365 115.274 314.1C116.778 319.707 118.966 327.911 121.291 338.03C123.616 348.149 126.35 360.319 129.085 373.857C131.82 387.395 134.692 402.3 137.29 417.888C137.563 419.803 137.974 421.854 138.11 423.768C138.11 424.315 138.247 424.862 138.247 425.272L138.11 426.777C137.974 427.734 137.837 428.691 137.563 429.648C136.743 433.477 135.923 437.169 134.965 440.861C133.051 448.109 131.137 455.082 129.222 461.783C125.393 475.047 121.701 486.807 118.419 496.789C115.274 506.771 112.676 514.702 110.762 520.309C109.805 523.044 109.121 525.232 108.574 526.599C108.3 527.283 108.164 527.83 108.027 528.24C107.89 528.65 107.753 528.787 107.753 528.787C107.753 528.787 107.753 528.65 107.89 528.24C108.027 527.83 108.164 527.283 108.437 526.599C108.847 525.095 109.531 522.907 110.488 520.172C112.266 514.566 114.727 506.498 117.872 496.652C121.018 486.67 124.573 474.91 128.402 461.646C130.316 455.082 132.23 448.109 134.145 440.861C135.102 437.169 135.923 433.477 136.743 429.785C137.016 428.828 137.016 427.871 137.29 426.913L137.563 425.409C137.563 424.999 137.563 424.452 137.427 424.042C137.153 422.127 136.88 420.213 136.606 418.162C134.008 402.436 131.137 387.668 128.402 374.13C125.667 360.593 123.069 348.423 120.744 338.304C118.419 328.185 116.368 319.98 114.864 314.374C114.18 311.502 113.497 309.451 113.086 307.947C112.95 307.263 112.676 306.716 112.676 306.306C112.676 305.622 112.676 305.485 112.676 305.485Z" fill="#375A64"/>
<path d="M90.6602 492.276C90.6602 492.276 90.797 492.96 90.797 494.191C90.797 495.558 90.797 497.336 90.9337 499.524C90.9337 504.173 91.0705 510.19 91.2072 516.89C91.3439 523.591 91.6174 529.744 91.6174 534.257C91.6174 536.444 91.7542 538.085 91.7542 539.59C91.7542 540.82 91.7542 541.504 91.7542 541.504C91.7542 541.504 91.6174 540.82 91.4807 539.59C91.3439 538.359 91.2072 536.581 91.0705 534.393C90.797 529.881 90.5235 523.864 90.3867 517.027C90.25 510.19 90.25 504.036 90.3867 499.66C90.3867 497.473 90.5235 495.695 90.5235 494.328C90.5235 492.96 90.6602 492.276 90.6602 492.276Z" fill="#375A64"/>
<path d="M122.658 302.613L92.3012 300.289L46.2188 296.597L51.415 543.828L91.344 543.281C91.344 543.281 91.344 540.547 91.2073 535.761L114.59 542.187C114.59 542.187 137.426 465.064 145.221 433.34C151.785 406.948 122.658 302.613 122.658 302.613ZM90.797 497.336C90.2501 440.314 89.4296 343.226 90.3868 331.329C90.3868 331.329 112.676 416.794 112.813 423.494C112.949 427.597 100.506 466.979 90.797 497.336Z" fill="#261363"/>
<path d="M91.4808 533.983C91.4808 534.257 82.5925 534.394 71.5163 534.394C60.4401 534.394 51.5518 534.257 51.5518 533.983C51.5518 533.71 60.4401 533.573 71.5163 533.573C82.5925 533.573 91.4808 533.71 91.4808 533.983Z" fill="#375A64"/>
<path d="M91.207 525.095C91.207 524.958 92.5745 525.505 94.8991 526.326C97.4972 527.283 100.642 528.377 104.061 529.471C107.479 530.702 110.625 531.796 113.223 532.616C115.547 533.436 117.052 533.983 116.915 534.12C116.915 534.257 115.411 533.847 112.949 533.163C110.625 532.479 107.343 531.385 103.651 530.155C100.095 528.924 96.8135 527.693 94.6256 526.736C92.301 525.779 91.207 525.232 91.207 525.095Z" fill="#375A64"/>
<path d="M127.854 422.812C127.854 423.086 124.436 423.496 120.333 423.769C116.094 424.043 112.812 424.18 112.812 423.906C112.812 423.633 116.231 423.222 120.333 422.949C124.436 422.675 127.718 422.539 127.854 422.812Z" fill="#375A64"/>
<path d="M125.12 427.188C125.12 427.461 122.522 426.778 119.376 425.957C116.231 425 113.77 424.179 113.77 423.906C113.77 423.632 116.368 424.316 119.513 425.137C122.795 426.094 125.256 427.051 125.12 427.188Z" fill="#375A64"/>
<path d="M93.9421 300.699C94.0789 300.699 94.0789 302.477 94.2156 305.348C94.2156 308.22 94.2156 312.322 94.2156 316.698C94.2156 318.886 94.2156 321.074 94.0789 322.988C94.0789 324.903 93.8054 326.68 93.1217 328.048C92.438 329.415 91.6175 330.236 90.9338 330.783C90.2501 331.193 89.8398 331.33 89.8398 331.33C89.8398 331.33 90.2501 331.056 90.7971 330.509C91.344 329.962 92.1645 329.142 92.7115 327.774C93.2584 326.544 93.5319 324.766 93.3952 322.852C93.3952 320.937 93.3952 318.749 93.3952 316.561C93.3952 312.186 93.5319 308.083 93.5319 305.212C93.8054 302.477 93.9421 300.699 93.9421 300.699Z" fill="#375A64"/>
<path d="M71.1062 299.195C71.1062 299.195 71.1062 299.469 71.1062 299.742C71.1062 300.153 71.1062 300.699 71.1062 301.52C71.1062 303.161 70.9694 305.349 70.8327 308.357C70.696 314.237 70.4225 322.852 70.0122 333.381C69.3285 354.576 68.7816 383.703 68.5081 415.974C68.3713 448.245 68.6448 477.508 69.1918 498.567C69.4653 509.096 69.602 517.711 69.7388 523.591C69.7388 526.463 69.8755 528.787 69.8755 530.428C69.8755 531.249 69.8755 531.796 69.8755 532.206C69.8755 532.616 69.8755 532.753 69.8755 532.753C69.8755 532.753 69.8755 532.616 69.8755 532.206C69.8755 531.796 69.8755 531.249 69.7388 530.428C69.7388 528.787 69.602 526.599 69.4653 523.591C69.1918 517.711 68.9183 509.096 68.6448 498.567C68.0978 477.372 67.6876 448.245 67.8244 415.837C67.9611 383.566 68.7816 354.303 69.4653 333.244C69.8755 322.715 70.149 314.1 70.5592 308.22C70.696 305.349 70.8327 303.024 70.9695 301.383C70.9695 300.699 71.1062 300.016 71.1062 299.606C71.1062 299.469 71.1062 299.195 71.1062 299.195Z" fill="#375A64"/>
<path d="M112.676 305.485C112.676 305.485 112.813 305.622 112.813 306.032C112.95 306.443 113.086 306.99 113.36 307.673C113.77 309.177 114.454 311.365 115.274 314.1C116.778 319.707 118.966 327.911 121.291 338.03C123.616 348.149 126.35 360.319 129.085 373.857C131.82 387.395 134.692 402.3 137.29 417.888C137.563 419.803 137.974 421.854 138.11 423.768C138.11 424.315 138.247 424.862 138.247 425.272L138.11 426.777C137.974 427.734 137.837 428.691 137.563 429.648C136.743 433.477 135.923 437.169 134.965 440.861C133.051 448.109 131.137 455.082 129.222 461.783C125.393 475.047 121.701 486.807 118.419 496.789C115.274 506.771 112.676 514.702 110.762 520.309C109.805 523.044 109.121 525.232 108.574 526.599C108.3 527.283 108.164 527.83 108.027 528.24C107.89 528.65 107.753 528.787 107.753 528.787C107.753 528.787 107.753 528.65 107.89 528.24C108.027 527.83 108.164 527.283 108.437 526.599C108.847 525.095 109.531 522.907 110.488 520.172C112.266 514.566 114.727 506.498 117.872 496.652C121.018 486.67 124.573 474.91 128.402 461.646C130.316 455.082 132.23 448.109 134.145 440.861C135.102 437.169 135.923 433.477 136.743 429.785C137.016 428.828 137.016 427.871 137.29 426.913L137.563 425.409C137.563 424.999 137.563 424.452 137.427 424.042C137.153 422.127 136.88 420.213 136.606 418.162C134.008 402.436 131.137 387.668 128.402 374.13C125.667 360.593 123.069 348.423 120.744 338.304C118.419 328.185 116.368 319.98 114.864 314.374C114.18 311.502 113.497 309.451 113.086 307.947C112.95 307.263 112.676 306.716 112.676 306.306C112.676 305.622 112.676 305.485 112.676 305.485Z" fill="#375A64"/>
<path d="M90.6602 492.276C90.6602 492.276 90.797 492.96 90.797 494.191C90.797 495.558 90.797 497.336 90.9337 499.524C90.9337 504.173 91.0705 510.19 91.2072 516.89C91.3439 523.591 91.6174 529.744 91.6174 534.257C91.6174 536.444 91.7542 538.085 91.7542 539.59C91.7542 540.82 91.7542 541.504 91.7542 541.504C91.7542 541.504 91.6174 540.82 91.4807 539.59C91.3439 538.359 91.2072 536.581 91.0705 534.393C90.797 529.881 90.5235 523.864 90.3867 517.027C90.25 510.19 90.25 504.036 90.3867 499.66C90.3867 497.473 90.5235 495.695 90.5235 494.328C90.5235 492.96 90.6602 492.276 90.6602 492.276Z" fill="#375A64"/>
<path d="M70.149 184.057L93.3953 185.834C93.6688 183.099 94.2158 172.707 94.2158 172.707C94.2158 172.707 103.925 171.75 104.608 162.178C105.292 152.606 105.019 130.453 105.019 130.453C94.2158 124.984 81.2252 125.804 71.2429 132.641L69.7388 133.462L70.149 184.057Z" fill="#F4BBAC"/>
<path d="M101.737 146.727C101.19 146.18 101.19 145.223 101.737 144.813C102.284 144.266 103.241 144.266 103.651 144.813C104.198 145.36 104.198 146.317 103.651 146.727C103.241 147.274 102.284 147.274 101.737 146.727Z" fill="#1A2E35"/>
<path d="M104.198 144.675C104.061 144.812 103.104 143.991 101.873 143.991C100.506 143.855 99.5489 144.538 99.4121 144.402C99.4121 144.265 99.5489 143.991 99.9591 143.718C100.369 143.444 101.053 143.171 101.873 143.171C102.694 143.171 103.378 143.581 103.788 143.991C104.198 144.265 104.335 144.538 104.198 144.675Z" fill="#1A2E35"/>
<path d="M88.8828 144.811C89.5665 145.221 89.7032 146.178 89.1563 146.725C88.746 147.409 87.7888 147.546 87.2419 146.999C86.5581 146.588 86.4214 145.631 86.9684 145.084C87.3786 144.537 88.3358 144.401 88.8828 144.811Z" fill="#1A2E35"/>
<path d="M89.8402 144.948C89.7035 145.084 88.7463 144.264 87.5156 144.264C86.1481 144.127 85.1909 144.811 85.0542 144.674C85.0542 144.537 85.1909 144.264 85.6012 143.99C86.0114 143.717 86.6951 143.443 87.5156 143.443C88.336 143.443 89.0198 143.854 89.43 144.264C89.7035 144.537 89.8402 144.811 89.8402 144.948Z" fill="#1A2E35"/>
<path d="M94.4895 156.161C94.4895 156.024 95.3099 155.888 96.6774 155.888C97.0876 155.888 97.3611 155.751 97.3611 155.614C97.4978 155.341 97.3611 155.067 97.2243 154.657C96.9508 153.7 96.6774 152.879 96.4039 151.922C95.1732 147.957 94.3527 144.812 94.4895 144.675C94.6262 144.675 95.8569 147.683 96.9508 151.649C97.2243 152.606 97.4978 153.563 97.7713 154.384C97.908 154.794 98.0448 155.204 97.908 155.888C97.7713 156.161 97.4978 156.298 97.2243 156.435C96.9508 156.435 96.8141 156.435 96.6774 156.435C95.3099 156.298 94.4895 156.298 94.4895 156.161Z" fill="#1A2E35"/>
<path d="M90.1134 157.392C88.746 156.435 93.8055 159.58 96.5403 159.717C96.5403 159.717 94.8994 162.041 92.1645 160.947C89.1562 159.58 90.1134 157.392 90.1134 157.392Z" fill="white"/>
<path d="M94.2156 172.433C94.2156 172.433 88.0621 172.57 81.9087 168.058C81.9087 168.058 84.5068 175.168 94.0788 174.895L94.2156 172.433Z" fill="#EF8876"/>
<path d="M71.5165 141.94C71.243 141.803 64.4058 140.983 65.0895 149.188C65.7733 157.392 73.8411 153.974 73.8411 153.7C73.7044 153.563 71.5165 141.94 71.5165 141.94Z" fill="#F4BBAC"/>
<path d="M71.1061 151.103C71.1061 151.103 70.9694 151.239 70.6959 151.376C70.4224 151.513 70.0122 151.65 69.6019 151.513C68.7815 151.239 67.8243 150.009 67.6875 148.505C67.5508 147.821 67.6875 147 67.961 146.453C68.0978 145.77 68.508 145.359 68.9182 145.223C69.3285 145.086 69.7387 145.36 69.7387 145.496C69.8754 145.77 69.8754 145.906 69.8754 145.906C69.8754 145.906 70.0122 145.77 70.0122 145.359C70.0122 145.223 69.8754 144.949 69.6019 144.813C69.3285 144.676 69.055 144.676 68.7815 144.676C68.0978 144.813 67.6875 145.359 67.414 146.043C67.1406 146.727 67.0038 147.547 67.1406 148.368C67.2773 150.009 68.2345 151.513 69.4652 151.786C70.0122 151.923 70.5591 151.65 70.6959 151.513C71.1061 151.239 71.1061 151.103 71.1061 151.103Z" fill="#EF8876"/>
<path d="M105.702 126.899C107.89 126.899 109.668 124.437 109.121 122.25C108.437 120.198 105.702 119.105 103.788 120.198C104.882 119.241 105.976 118.147 106.523 116.78C107.07 115.412 106.933 113.635 105.839 112.678C104.745 111.72 102.967 111.857 101.737 112.404C99.6855 113.225 98.0446 115.002 95.9934 115.686C93.9423 116.37 91.6177 116.096 89.293 116.096C86.8317 116.233 84.3703 116.917 82.3191 118.421C80.6782 119.788 79.4475 121.839 79.3108 123.891C79.0373 123.48 78.7638 123.207 78.3536 122.797C76.4392 120.882 74.388 120.062 74.2513 120.198C74.1145 120.335 76.0289 121.429 77.8066 123.344C78.3536 123.891 78.7638 124.301 79.174 124.848C76.0289 124.437 72.6104 124.437 70.149 126.352C68.0978 127.993 67.1406 130.728 67.1406 133.463C67.1406 136.061 68.2346 138.659 69.055 141.257C69.4653 142.761 70.0122 143.308 70.0122 143.308L71.2429 150.145L75.482 150.008L75.2085 135.65C75.2085 135.65 74.7982 129.634 79.9945 130.181C85.1907 130.728 92.3014 136.608 102.42 135.103C104.061 134.83 105.702 134.693 107.206 133.736C108.574 132.779 109.531 131.138 109.394 129.497C108.984 127.993 107.343 126.625 105.702 126.899Z" fill="#1A2E35"/>
<path d="M192.671 197.594L193.355 193.219C193.355 193.219 194.175 190.621 194.586 185.971C194.722 184.741 194.586 183.51 194.312 182.279C193.902 180.775 193.355 178.997 192.671 178.04C191.851 176.946 192.945 175.305 194.175 175.852C195.406 176.262 197.594 179.408 198.414 183.92C199.098 188.433 202.653 182.142 204.021 179.955C205.388 177.767 209.764 171.066 210.721 170.93C212.226 170.793 212.636 172.297 211.268 174.485C209.901 176.673 206.209 183.51 207.439 184.194C207.439 184.194 209.217 183.92 210.174 184.33C210.448 184.467 210.721 184.741 210.721 185.014C210.721 186.245 210.995 187.065 210.995 187.065C210.995 187.065 212.772 186.655 213.183 187.475C213.593 188.296 213.593 189.937 213.593 189.937C213.593 189.937 214.96 189.527 215.644 189.937C217.012 191.031 215.234 192.945 215.234 192.945C210.995 198.415 202.243 206.483 202.243 206.483L192.808 197.458" fill="#F4BBAC"/>
<path d="M210.174 187.202C210.311 187.202 209.627 188.159 208.533 189.526C207.986 190.21 207.303 190.894 206.482 191.714C206.072 192.124 205.662 192.535 205.115 192.945C204.568 193.355 203.747 193.629 202.927 193.218C202.517 192.945 202.243 192.535 202.243 192.124C202.243 191.714 202.38 191.304 202.517 191.03C202.927 190.347 203.337 190.073 203.611 189.526C204.294 188.706 204.841 187.885 205.388 187.065C206.345 185.697 206.892 184.74 206.892 184.74C207.029 184.74 206.619 185.834 205.798 187.338C205.388 188.022 204.841 188.979 204.158 189.936C203.884 190.347 203.337 190.894 203.2 191.304C202.927 191.714 202.927 192.261 203.337 192.535C203.747 192.808 204.294 192.671 204.705 192.398C205.115 192.124 205.525 191.714 205.935 191.304C206.756 190.483 207.439 189.8 208.123 189.253C209.491 188.022 210.174 187.202 210.174 187.202Z" fill="#EF8876"/>
<path d="M212.636 190.073C212.636 190.073 212.089 190.893 211.131 191.987C210.584 192.534 209.901 193.218 209.08 193.765C208.67 194.038 208.26 194.312 207.713 194.585C207.439 194.722 207.166 194.859 206.756 194.859C206.482 194.859 205.935 194.859 205.662 194.585C204.978 194.038 205.115 193.081 205.388 192.534C205.662 191.987 206.072 191.577 206.345 191.167C206.892 190.483 207.576 189.799 208.123 189.116C209.08 188.022 209.764 187.338 209.901 187.338C210.037 187.338 209.49 188.158 208.533 189.389C207.986 190.073 207.439 190.756 206.892 191.577C206.619 191.987 206.209 192.397 206.072 192.808C205.798 193.218 205.935 193.765 206.209 193.902C206.482 194.175 207.029 194.038 207.439 193.765C207.85 193.491 208.396 193.218 208.807 192.944C209.627 192.397 210.311 191.85 210.858 191.303C211.815 190.62 212.499 189.936 212.636 190.073Z" fill="#EF8876"/>
<path d="M213.183 194.039C213.183 194.039 213.183 194.586 212.499 195.406C212.226 195.816 211.679 196.226 210.995 196.226C210.585 196.226 210.174 196.09 209.901 195.816C209.627 195.543 209.354 195.132 209.354 194.722C209.354 193.902 209.901 193.355 210.174 192.808C210.448 192.261 210.858 191.851 211.132 191.577C211.679 190.893 212.089 190.483 212.226 190.62C212.362 190.62 211.952 191.167 211.542 191.987C211.268 192.398 210.995 192.945 210.721 193.355C210.448 193.902 210.038 194.449 210.038 194.996C210.038 195.543 210.448 195.816 210.995 195.816C211.405 195.816 211.952 195.543 212.226 195.269C212.773 194.449 213.046 193.902 213.183 194.039Z" fill="#EF8876"/>
<path d="M191.714 191.988C191.714 191.988 155.887 227.268 150.828 227.541C145.085 227.815 127.445 202.791 127.445 202.791C116.095 185.287 101.053 182.553 95.7202 182.006V179.818L69.0553 177.63C69.0553 177.63 69.0553 179.955 69.0553 181.869H57.2954C57.2954 181.869 36.1002 180.912 32.9551 209.354L48.1336 221.388L54.4238 244.634C56.6117 252.702 48.8173 265.556 45.1252 286.477C44.5783 289.896 44.9885 292.768 46.7661 296.596L123.889 305.485L119.787 246.412L118.556 232.737C124.847 241.489 136.333 253.659 150.281 253.386C174.074 252.975 207.303 202.791 207.303 202.791L191.714 191.988Z" fill="#9CC02A"/>
<path d="M86.6954 179.545C86.8321 179.545 86.8321 180.912 86.6954 183.237C86.5587 185.562 86.2852 188.707 85.4647 192.262L85.328 192.672L84.9177 192.399C83.9605 191.852 83.0033 191.442 82.0461 190.758C78.2173 188.57 74.9355 186.245 72.6108 184.604C70.1495 182.963 68.6453 182.006 68.782 181.87C68.782 181.87 69.1923 182.006 69.876 182.417C70.5597 182.827 71.6536 183.374 72.8843 184.194C75.3457 185.698 78.6275 188.023 82.4564 190.211C83.4136 190.758 84.3708 191.305 85.328 191.852L84.781 192.125C85.6014 188.57 86.0117 185.425 86.2852 183.237C86.4219 180.912 86.5587 179.545 86.6954 179.545Z" fill="#67C02F"/>
<path d="M95.7204 182.279C95.8572 182.279 95.4469 183.646 94.9 185.697C94.6265 186.791 94.353 188.022 93.9428 189.389C93.6693 190.073 93.3958 190.757 93.1223 191.577C92.9856 191.851 92.8488 191.988 92.5753 192.124C92.3018 192.398 91.7549 192.261 91.6181 191.988C91.2079 191.441 91.2079 191.167 90.9344 190.757C89.567 187.612 88.473 184.877 87.6526 182.826C86.8321 180.775 86.4219 179.544 86.5586 179.407C86.6954 179.407 87.2423 180.638 88.1995 182.552C89.1567 184.603 90.3874 187.338 91.6181 190.483C91.7549 190.894 91.8916 191.304 92.0284 191.441C92.1651 191.441 92.0284 191.441 92.1651 191.441C92.3018 191.441 92.3018 191.304 92.4386 191.167C92.7121 190.483 93.1223 189.8 93.259 189.116C93.806 187.749 94.0795 186.518 94.353 185.424C95.1735 183.51 95.7204 182.142 95.7204 182.279Z" fill="#67C02F"/>
<path d="M90.7975 277.726C90.7975 277.726 90.7975 277.453 90.6607 276.769C90.6607 276.085 90.524 275.128 90.524 274.034C90.3872 271.573 90.2505 268.017 90.1137 263.778C89.8403 255.027 89.2933 243.13 88.8831 229.866C88.4728 216.602 88.0626 204.705 87.7891 195.954C87.6524 191.715 87.6524 188.159 87.5156 185.698C87.5156 184.604 87.5156 183.647 87.5156 182.963C87.5156 182.279 87.5156 182.006 87.5156 182.006C87.5156 182.006 87.5156 182.279 87.6524 182.963C87.6524 183.647 87.7891 184.604 87.7891 185.698C87.9259 188.159 88.0626 191.715 88.1993 195.954C88.4728 204.705 89.0198 216.602 89.43 229.866C89.8403 243.13 90.2505 255.027 90.524 263.778C90.6607 268.017 90.6607 271.573 90.7975 274.034C90.7975 275.128 90.7975 276.085 90.7975 276.769C90.7975 277.453 90.7975 277.726 90.7975 277.726Z" fill="#F5F5F5"/>
<path d="M85.8745 188.159L88.1991 194.313L90.1136 187.749L87.1052 181.049L85.8745 188.159Z" fill="#BD1CFF"/>
<path d="M88.6096 192.535L87.1055 262.137L97.6347 284.016L101.737 259.403L88.6096 192.535Z" fill="#BD1CFF"/>
<path d="M151.101 236.157C151.101 236.157 151.101 236.43 151.101 236.704L150.964 237.251L150.691 236.704C150.417 236.02 149.87 234.379 149.734 232.328C149.597 229.593 150.144 227.405 150.281 227.405C150.554 227.405 150.281 229.593 150.417 232.191C150.554 234.106 150.828 235.747 150.964 236.43H150.691C150.964 236.294 151.101 236.157 151.101 236.157Z" fill="#67C02F"/>
<path d="M154.246 235.883C154.109 236.02 152.879 234.379 152.058 232.054C151.101 229.73 150.827 227.815 150.964 227.815C151.101 227.815 151.785 229.593 152.605 231.781C153.562 234.106 154.383 235.883 154.246 235.883Z" fill="#67C02F"/>
<path d="M204.978 206.482C204.841 206.619 201.012 204.294 196.5 201.149C191.851 198.004 188.295 195.406 188.432 195.269C188.569 195.133 192.398 197.457 196.91 200.602C201.423 203.611 205.115 206.346 204.978 206.482Z" fill="#67C02F"/>
<path d="M55.9279 217.696C55.9279 217.696 50.1847 257.352 52.9196 259.54C67.8246 271.983 88.4728 278.547 95.857 280.735C96.9509 280.462 98.1816 280.188 99.6858 279.641C100.916 279.231 102.147 278.684 103.104 277.863C104.335 276.906 105.976 275.539 106.66 274.582C107.48 273.351 109.395 273.761 109.531 275.129C109.668 276.496 107.343 280.051 103.241 282.649C103.241 282.649 112.676 297.965 115.685 299.332C118.693 300.7 127.308 304.665 125.94 305.349C124.436 306.033 113.907 303.024 113.907 303.024L92.5751 297.281C92.5751 297.281 22.0156 286.205 26.6649 253.797C29.5365 233.969 32.6816 216.055 33.7755 211.543L55.9279 217.696Z" fill="#F4BBAC"/>
<path d="M32.8181 209.491L26.528 252.702C25.0238 265.966 33.9121 276.632 45.9455 282.512C64.2691 291.537 91.3442 297.964 91.0707 297.964C90.6605 297.964 92.8484 278.683 92.8484 278.683C92.8484 278.683 54.8338 262.274 53.6031 255.163C52.3724 248.053 58.3891 218.516 58.3891 218.516L32.8181 209.491Z" fill="#9CC02A"/>
<path d="M91.0706 297.964C91.0706 297.964 91.0706 297.827 91.0706 297.69C91.0706 297.417 91.0706 297.143 91.0706 296.733C91.2073 295.776 91.2073 294.545 91.3441 292.904C91.6176 289.486 92.0278 284.7 92.5748 278.82L92.7115 279.093C87.2418 276.495 80.8148 273.35 73.5675 269.795C71.7898 268.974 69.8754 268.017 68.0977 267.06C66.1833 266.103 64.4057 265.009 62.4913 263.778C60.7136 262.547 58.7992 261.316 57.1583 259.812C56.3378 259.129 55.3806 258.308 54.5601 257.488C54.1499 257.077 53.7397 256.667 53.4662 255.984C53.3295 255.71 53.1927 255.437 53.1927 255.163C53.056 254.89 53.056 254.616 53.056 254.343C52.3723 249.557 53.7397 245.181 54.4234 240.942C55.1071 236.703 55.9276 232.6 56.6113 228.635C57.9787 220.841 59.2094 213.73 60.3034 207.713C60.8503 204.705 61.2606 202.107 61.2606 199.645C61.2606 197.321 60.7136 195.27 60.0299 193.765C59.3462 192.261 58.389 191.304 57.842 190.62C57.1583 190.073 56.748 189.8 56.748 189.8C56.748 189.8 57.1583 189.937 57.842 190.484C58.5257 191.03 59.4829 191.988 60.1666 193.629C60.9871 195.133 61.5341 197.184 61.5341 199.645C61.6708 202.107 61.1238 204.842 60.7136 207.713C59.7564 213.73 58.5257 220.704 57.1583 228.635C56.4746 232.6 55.7908 236.703 55.1071 240.942C54.9704 242.036 54.6969 243.13 54.5601 244.224C54.2867 245.318 54.1499 246.411 54.0132 247.505C53.7397 249.693 53.4662 252.018 53.8764 254.206C53.8764 254.479 54.0132 254.753 54.0132 255.026C54.0132 255.3 54.1499 255.573 54.2867 255.847C54.4234 256.394 54.8336 256.667 55.2439 257.077C56.0643 257.898 56.8848 258.582 57.7052 259.402C59.4829 260.77 61.2606 262.137 63.0382 263.368C64.8159 264.598 66.7303 265.556 68.508 266.649C70.4224 267.607 72.2 268.427 73.9777 269.384C81.0883 272.94 87.5153 276.085 92.985 278.82L93.1217 278.956V279.093C92.5748 284.973 92.0278 289.759 91.6176 293.178C91.4808 294.819 91.3441 296.049 91.2073 297.006C91.2073 297.417 91.0706 297.69 91.0706 297.964Z" fill="#FAFAFA"/>
<path d="M87.5156 276.084C87.6523 276.084 87.5156 277.178 87.2421 279.092C86.9686 280.87 86.6951 283.331 86.1481 286.066C85.6012 288.801 85.0542 291.262 84.644 293.04C84.2337 294.818 83.8235 295.912 83.6868 295.912C83.55 295.912 83.8235 294.818 84.097 293.04C84.5072 290.989 84.9175 288.664 85.4644 286.066C86.4216 280.46 87.2421 276.084 87.5156 276.084Z" fill="#FAFAFA"/>
<path d="M91.0707 297.964C91.0707 297.964 90.7972 297.964 90.387 297.827C89.84 297.69 89.2931 297.554 88.4726 297.417C86.6949 297.007 84.3703 296.323 81.6354 295.639C75.8922 294.135 67.8244 292.084 59.2096 288.802C54.9705 287.161 50.8682 285.383 47.4496 283.606C43.8943 281.691 40.886 279.777 38.5613 277.863C36.2367 276.085 34.459 274.307 33.2283 273.077C32.6814 272.53 32.2711 271.983 31.8609 271.709C31.5874 271.436 31.4507 271.162 31.4507 271.162C31.4507 271.162 32.1344 271.846 33.3651 272.94C34.5958 274.034 36.3734 275.675 38.8348 277.452C41.2962 279.23 44.1678 281.144 47.7231 283.059C51.2785 284.973 55.244 286.614 59.483 288.255C68.0979 291.4 76.029 293.588 81.7722 295.229C84.507 296.049 86.8317 296.733 88.6094 297.28C89.2931 297.554 89.9768 297.69 90.387 297.827C90.7972 297.964 91.0707 297.964 91.0707 297.964Z" fill="#FAFAFA"/>
<path d="M91.4809 280.734C91.4809 281.417 90.9339 281.964 90.2502 281.964C89.5665 281.964 89.0195 281.417 89.0195 280.734C89.0195 280.05 89.5665 279.503 90.2502 279.503C90.9339 279.503 91.4809 280.05 91.4809 280.734Z" fill="#FAFAFA"/>
</svg>
