<svg width="630" height="467" viewBox="0 0 630 467" fill="none" xmlns="http://www.w3.org/2000/svg">
<path d="M630 425.374H0V426.633H630V425.374Z" fill="#EBEBEB"/>
<path d="M565.614 446.14H523.908V446.391H565.614V446.14Z" fill="#EBEBEB"/>
<path d="M416.052 449.537H405.09V449.789H416.052V449.537Z" fill="#EBEBEB"/>
<path d="M522.648 434.436H498.456V434.687H522.648V434.436Z" fill="#EBEBEB"/>
<path d="M119.322 436.575H64.8901V436.827H119.322V436.575Z" fill="#EBEBEB"/>
<path d="M138.474 436.575H130.536V436.827H138.474V436.575Z" fill="#EBEBEB"/>
<path d="M282.492 441.86H164.43V442.112H282.492V441.86Z" fill="#EBEBEB"/>
<path d="M297.36 369.748H54.0541C50.1481 369.748 46.8721 366.476 46.8721 362.575V21.0172C46.8721 17.1159 50.1481 13.8438 54.0541 13.8438H297.36C301.266 13.8438 304.542 17.1159 304.542 21.0172V362.575C304.542 366.476 301.392 369.748 297.36 369.748ZM54.0541 14.0955C50.2741 14.0955 47.1241 17.1159 47.1241 21.0172V362.575C47.1241 366.351 50.1481 369.497 54.0541 369.497H297.36C301.14 369.497 304.29 366.476 304.29 362.575V21.0172C304.29 17.2417 301.266 14.0955 297.36 14.0955H54.0541Z" fill="#EBEBEB"/>
<path d="M569.898 369.748H326.592C322.686 369.748 319.41 366.476 319.41 362.575V21.0172C319.41 17.1159 322.686 13.8438 326.592 13.8438H569.898C573.804 13.8438 577.08 17.1159 577.08 21.0172V362.575C577.08 366.476 573.93 369.748 569.898 369.748ZM326.592 14.0955C322.812 14.0955 319.662 17.1159 319.662 21.0172V362.575C319.662 366.351 322.686 369.497 326.592 369.497H569.898C573.678 369.497 576.828 366.476 576.828 362.575V21.0172C576.828 17.2417 573.804 14.0955 569.898 14.0955H326.592Z" fill="#EBEBEB"/>
<path d="M79.5059 199.221C79.5059 199.221 88.9559 201.36 93.3659 213.19C97.7759 225.02 111.258 232.319 119.952 231.942C123.48 231.816 126.756 233.452 130.536 235.591C131.544 236.221 132.678 236.85 133.812 237.479C133.686 236.346 133.56 235.088 133.434 233.829C132.552 233.074 131.544 232.319 130.662 231.564C130.41 231.312 130.284 231.187 130.032 230.935C119.574 220.867 119.322 210.421 107.1 200.857C94.8779 191.292 79.5059 199.221 79.5059 199.221Z" fill="#F0F0F0"/>
<path d="M180.936 188.775C180.936 188.775 171.864 192.299 169.092 204.632C166.446 216.966 154.098 226.027 145.404 226.908C141.876 227.285 138.978 229.299 135.45 232.068C134.442 232.823 133.434 233.578 132.426 234.459C132.426 233.326 132.3 232.068 132.3 230.809C133.182 229.928 133.938 229.047 134.694 228.166C134.82 227.915 135.072 227.789 135.198 227.537C144.144 216.085 142.884 205.639 153.594 194.564C164.556 183.112 180.936 188.775 180.936 188.775Z" fill="#F0F0F0"/>
<path d="M135.45 231.942C135.702 237.605 135.324 244.149 133.434 251.575C127.512 274.354 130.158 251.952 130.158 251.952C130.158 251.952 132.552 244.653 132.426 234.459C132.426 233.326 132.3 232.068 132.3 230.809C131.922 226.656 131.166 222.126 129.528 217.469C123.354 199.598 111.006 194.061 106.092 174.806C101.178 155.551 118.188 141.959 118.188 141.959C118.188 141.959 115.92 154.041 127.26 165.115C138.6 176.19 140.238 195.32 135.45 205.136C132.552 210.799 134.442 217.973 135.198 227.411C135.324 228.922 135.45 230.432 135.45 231.942Z" fill="#F0F0F0"/>
<path d="M165.564 249.184L164.178 259.881L163.674 263.656L163.17 267.558L160.524 287.694L109.998 287.568L107.352 267.558L106.344 259.881L104.958 249.184H165.564Z" fill="#E6E6E6"/>
<path d="M164.178 259.252L163.674 263.027H106.848L106.344 259.252H164.178Z" fill="#F0F0F0"/>
<path d="M112.518 286.938H97.3979V426.632H112.518V286.938Z" fill="#F0F0F0"/>
<path d="M172.998 286.938H157.878V426.632H172.998V286.938Z" fill="#F0F0F0"/>
<path d="M112.518 294.489H97.3979V310.85H112.518V294.489Z" fill="#E6E6E6"/>
<path d="M172.998 294.489H157.878V310.85H172.998V294.489Z" fill="#E6E6E6"/>
<path d="M174.258 286.938H96.1377V303.299H174.258V286.938Z" fill="#F0F0F0"/>
<path d="M567.378 253.463H410.382V426.255H567.378V253.463Z" fill="#F5F5F5"/>
<path d="M560.7 346.089V420.341H492.66V346.089H507.15C507.15 346.089 509.04 346.089 509.544 348.606C510.048 350.997 510.93 353.64 515.592 353.64C520.254 353.64 526.806 353.64 526.806 353.64C526.806 353.64 533.988 353.64 538.524 353.64C543.186 353.64 544.068 350.997 544.572 348.606C545.076 346.089 546.966 346.089 546.966 346.089H560.7Z" fill="#E0E0E0"/>
<path d="M483.84 346.089V420.341H415.8V346.089H430.29C430.29 346.089 432.18 346.089 432.684 348.606C433.188 350.997 434.07 353.64 438.732 353.64C443.394 353.64 449.946 353.64 449.946 353.64C449.946 353.64 457.128 353.64 461.664 353.64C466.326 353.64 467.208 350.997 467.712 348.606C468.216 346.089 470.106 346.089 470.106 346.089H483.84Z" fill="#E0E0E0"/>
<path d="M560.7 261.769V336.02H492.66V261.769H507.15C507.15 261.769 509.04 261.769 509.544 264.286C510.048 266.677 510.93 269.32 515.592 269.32C520.254 269.32 526.806 269.32 526.806 269.32C526.806 269.32 533.988 269.32 538.524 269.32C543.186 269.32 544.068 266.677 544.572 264.286C545.076 261.769 546.966 261.769 546.966 261.769H560.7Z" fill="#E0E0E0"/>
<path d="M483.84 261.769V336.02H415.8V261.769H430.29C430.29 261.769 432.18 261.769 432.684 264.286C433.188 266.677 434.07 269.32 438.732 269.32C443.394 269.32 449.946 269.32 449.946 269.32C449.946 269.32 457.128 269.32 461.664 269.32C466.326 269.32 467.208 266.677 467.712 264.286C468.216 261.769 470.106 261.769 470.106 261.769H483.84Z" fill="#E0E0E0"/>
<path d="M260.82 35.2383H211.68V98.1634H260.82V35.2383Z" fill="#F5F5F5"/>
<path d="M260.82 86.8369H248.22V90.6124H260.82V86.8369Z" fill="#FAFAFA"/>
<path d="M260.82 81.8027H248.22V84.3197H260.82V81.8027Z" fill="#FAFAFA"/>
<path d="M260.82 41.5312H248.22V46.5653H260.82V41.5312Z" fill="#FAFAFA"/>
<path d="M260.82 49.082H248.22V50.3405H260.82V49.082Z" fill="#FAFAFA"/>
<path d="M250.74 35.2383H201.6V98.1634H250.74V35.2383Z" fill="#E6E6E6"/>
<path d="M238.14 22.6533H178.92V98.1635H238.14V22.6533Z" fill="#F0F0F0"/>
<path d="M238.14 84.3203H221.76V89.3543H238.14V84.3203Z" fill="#FAFAFA"/>
<path d="M238.14 79.2861H221.76V81.8031H238.14V79.2861Z" fill="#FAFAFA"/>
<path d="M238.14 33.9795H221.76V39.0135H238.14V33.9795Z" fill="#FAFAFA"/>
<path d="M238.14 41.5312H221.76V44.0483H238.14V41.5312Z" fill="#FAFAFA"/>
<path d="M225.54 22.6533H166.32V98.1635H225.54V22.6533Z" fill="#E6E6E6"/>
<path d="M278.46 98.1631H103.32V104.456H278.46V98.1631Z" fill="#F0F0F0"/>
<path d="M127.89 39.0137H178.29L189.63 98.1633H139.23L127.89 39.0137Z" fill="#F5F5F5"/>
<path d="M154.98 98.1631H103.32V104.456H154.98V98.1631Z" fill="#E0E0E0"/>
<path d="M134.19 45.3066H174.51L183.33 91.8713H143.01L134.19 45.3066Z" fill="#FAFAFA"/>
<path d="M131.04 55.374V98.1631H139.23L131.04 55.374Z" fill="#E6E6E6"/>
<path d="M482.454 30.0784C474.516 25.6737 471.366 34.8607 471.366 34.8607C471.366 34.8607 473.886 25.422 464.94 24.6669C455.868 23.9118 453.6 40.2723 467.334 48.2009C483.21 49.3335 490.392 34.4832 482.454 30.0784Z" fill="#E6E6E6"/>
<path d="M525.42 143.47H511.56C509.418 143.47 507.78 145.106 507.78 147.245V157.313C507.78 159.453 509.418 161.089 511.56 161.089H513.702L512.694 165.116L516.474 161.089H525.42C527.562 161.089 529.2 159.453 529.2 157.313V147.245C529.2 145.106 527.562 143.47 525.42 143.47Z" fill="#E6E6E6"/>
<path d="M393.12 412.789H330.12V420.34H393.12V412.789Z" fill="#19094D"/>
<path d="M346.5 283.163H338.94V465.646H346.5V283.163Z" fill="#19094D"/>
<path d="M385.56 283.163H378V465.646H385.56V283.163Z" fill="#19094D"/>
<path d="M393.12 274.354H137.34V283.163H393.12V274.354Z" fill="#19094D"/>
<path d="M393.12 274.354H137.34V283.163H393.12V274.354Z" fill="#19094D"/>
<path opacity="0.6" d="M393.12 274.354H137.34V283.163H393.12V274.354Z" fill="white"/>
<path opacity="0.6" d="M192.78 274.354H137.34V283.163H192.78V274.354Z" fill="#19094D"/>
<path d="M196.56 412.789H133.56V420.34H196.56V412.789Z" fill="#19094D"/>
<path d="M149.94 283.163H142.38V465.646H149.94V283.163Z" fill="#19094D"/>
<path d="M189 283.163H181.44V465.646H189V283.163Z" fill="#19094D"/>
<path d="M280.98 367.482H274.68V465.646H280.98V367.482Z" fill="#2E353A"/>
<path d="M176.4 367.482H170.1V465.646H176.4V367.482Z" fill="#2E353A"/>
<path d="M216.72 367.482H210.42V465.646H216.72V367.482Z" fill="#2E353A"/>
<path d="M321.3 367.482H315V465.646H321.3V367.482Z" fill="#2E353A"/>
<path d="M332.64 367.482H162.54V380.067H332.64V367.482Z" fill="#19094D"/>
<path opacity="0.3" d="M332.64 367.482H162.54V380.067H332.64V367.482Z" fill="white"/>
<path d="M332.514 367.483H162.666C163.296 362.197 165.69 357.541 169.218 354.017C173.376 349.99 179.046 347.347 185.22 347.347H309.96C321.678 347.347 331.254 356.156 332.514 367.483Z" fill="#19094D"/>
<path opacity="0.6" d="M332.514 367.483H162.666C163.296 362.197 165.69 357.541 169.218 354.017C173.376 349.99 179.046 347.347 185.22 347.347H309.96C321.678 347.347 331.254 356.156 332.514 367.483Z" fill="white"/>
<path opacity="0.6" d="M227.934 367.483H162.666C163.296 362.197 165.69 357.541 169.218 354.017C173.376 349.99 179.046 347.347 185.22 347.347H205.38C217.098 347.347 226.674 356.156 227.934 367.483Z" fill="white"/>
<path d="M508.032 185C511.56 185 514.08 188.021 514.08 191.545V329.98C514.08 333.504 511.434 336.021 508.032 336.021H376.992C373.464 336.021 370.44 333.378 370.44 329.98V238.487L333.396 219.358L370.44 219.106V191.419C370.44 187.895 373.464 184.875 376.992 184.875H507.78L508.032 185ZM508.032 182.483H376.992C372.078 182.483 367.92 186.636 367.92 191.545V216.715L333.522 216.966L326.34 217.092L331.884 221.497L367.794 239.871V330.106C367.794 335.014 371.952 338.664 376.866 338.664H507.906C512.82 338.664 516.474 334.888 516.474 330.106V191.67C516.6 186.636 512.82 182.483 508.032 182.483Z" fill="#BD1CFF"/>
<path d="M405.972 263.909L394.884 268.062C394.002 267.433 399.42 224.014 399.42 224.014L391.104 221.623C391.104 221.623 380.142 267.81 384.048 275.739C389.088 286.058 411.39 275.739 411.39 275.739L405.972 263.909Z" fill="#B97964"/>
<path d="M442.512 273.096C442.008 272.97 441.378 272.97 440.496 273.096C437.346 273.347 431.802 274.354 426.006 275.487C415.17 277.752 403.326 280.773 403.326 280.773L398.16 265.545C398.16 265.545 433.062 245.409 438.732 247.045C438.732 247.045 448.182 273.977 442.512 273.096Z" fill="#9CC02A"/>
<path d="M522.648 288.826C522.648 288.826 531.972 299.523 530.964 313.367C529.956 327.21 494.676 348.605 494.676 348.605L490.14 341.683C490.14 341.683 518.112 318.023 518.868 313.367C519.624 308.711 513.072 298.265 513.072 298.265L522.648 288.826Z" fill="#B97964"/>
<path d="M491.4 339.292C491.4 339.292 497.07 346.969 496.818 347.976C496.566 348.983 491.904 351.877 491.904 351.877C491.904 351.877 492.66 356.408 492.66 357.289C492.66 359.302 489.006 361.945 487.998 361.316C484.596 359.051 483.336 352.884 482.706 350.115C482.328 347.221 489.762 338.411 491.4 339.292Z" fill="#19094D"/>
<path opacity="0.7" d="M491.4 339.292C491.4 339.292 497.07 346.969 496.818 347.976C496.566 348.983 491.904 351.877 491.904 351.877C491.904 351.877 492.66 356.408 492.66 357.289C492.66 359.302 489.006 361.945 487.998 361.316C484.596 359.051 483.336 352.884 482.706 350.115C482.328 347.221 489.762 338.411 491.4 339.292Z" fill="white"/>
<path d="M433.44 338.537H486.36V344.83L432.81 344.2L433.44 338.537Z" fill="#263238"/>
<path d="M469.35 335.769H467.46V346.969H469.35V335.769Z" fill="#19094D"/>
<path d="M442.638 335.769H440.748V346.969H442.638V335.769Z" fill="#19094D"/>
<path opacity="0.2" d="M440.622 273.095C437.472 273.347 431.928 274.354 426.132 275.487C428.022 267.055 438.48 260.133 438.48 260.133L440.622 273.095Z" fill="black"/>
<path d="M457.632 337.405H447.804V344.453H457.632V337.405Z" fill="white"/>
<path d="M497.07 251.701C497.07 251.701 495.432 259.755 493.542 271.459C492.66 276.745 491.778 282.786 490.77 289.078C490.77 289.078 490.77 289.078 490.77 289.204C489.636 297.007 488.628 305.313 487.746 313.367C486.864 322.428 486.36 331.112 486.486 338.537H433.44C433.44 338.537 432.684 325.323 432.81 308.081C432.81 300.153 433.062 291.343 433.692 282.66C434.448 269.949 436.086 257.238 438.732 247.044C438.732 247.044 472.122 245.534 497.07 251.701Z" fill="#9CC02A"/>
<path d="M478.044 248.177C473.256 252.581 461.412 250.945 461.412 250.945C461.412 250.945 453.978 248.932 455.616 246.666C460.026 245.911 462.042 243.898 462.924 241.381C463.428 239.871 463.554 238.234 463.428 236.473C463.302 235.592 463.176 234.585 463.05 233.704L477.54 222.755C475.65 229.928 473.256 243.017 478.044 248.177Z" fill="#B97964"/>
<path opacity="0.2" d="M474.138 229.677C473.508 238.486 466.326 240.877 462.798 241.381C463.302 239.871 463.428 238.235 463.302 236.473L474.138 229.677Z" fill="black"/>
<path d="M452.97 199.725C452.97 199.725 448.812 212.813 455.112 219.231C461.412 225.524 465.444 200.48 465.444 200.48L452.97 199.725Z" fill="#263238"/>
<path d="M476.154 230.684C475.65 231.565 475.02 232.32 474.264 233.075C469.98 237.48 464.184 237.983 459.522 235.592C456.498 234.082 453.978 231.439 452.718 228.041C452.592 227.538 452.466 227.16 452.214 226.657C451.962 225.524 451.71 224.391 451.584 223.133C450.45 214.449 452.34 202.745 460.782 199.221C467.586 196.327 475.524 199.473 478.422 206.269C479.304 208.157 479.682 210.296 479.556 212.435C478.926 220.742 479.052 226.153 476.154 230.684Z" fill="#B97964"/>
<path d="M464.562 215.456C464.688 216.211 464.184 216.84 463.68 216.966C463.176 216.966 462.672 216.337 462.672 215.581C462.672 214.826 463.05 214.071 463.554 214.071C464.058 214.071 464.436 214.701 464.562 215.456Z" fill="#263238"/>
<path d="M455.49 215.582C455.616 216.337 455.112 217.092 454.608 217.092C454.104 217.092 453.6 216.463 453.6 215.708C453.6 214.953 453.978 214.197 454.482 214.197C454.986 214.072 455.49 214.827 455.49 215.582Z" fill="#263238"/>
<path d="M458.388 215.959C457.506 218.35 456.246 220.741 454.608 222.881C455.742 223.636 457.128 223.888 458.514 223.51L458.388 215.959Z" fill="#A24E3F"/>
<path d="M467.208 212.435C467.082 212.435 466.83 212.435 466.704 212.309C465.948 211.302 464.814 210.799 463.68 210.799C463.428 210.799 463.176 210.673 463.176 210.421C463.176 210.17 463.302 209.918 463.554 209.918C465.066 209.918 466.452 210.547 467.334 211.806C467.46 212.057 467.46 212.309 467.334 212.435C467.46 212.435 467.334 212.435 467.208 212.435Z" fill="#263238"/>
<path d="M451.584 212.561C451.458 212.561 451.458 212.561 451.332 212.561C451.08 212.435 450.954 212.184 451.08 211.932C451.71 210.548 452.97 209.541 454.482 209.289C454.734 209.289 454.986 209.415 454.986 209.667C454.986 209.918 454.86 210.17 454.608 210.17C453.474 210.422 452.466 211.177 451.962 212.309C451.836 212.435 451.71 212.561 451.584 212.561Z" fill="#263238"/>
<path d="M471.996 200.354L471.366 204.632C472.752 205.388 473.508 207.024 472.878 208.785C471.366 212.309 473.256 218.098 475.902 220.364C475.902 220.364 476.028 218.854 477.414 219.231C478.674 219.609 478.044 227.789 475.398 231.69C475.398 231.69 479.43 228.292 481.95 219.734C484.218 211.806 484.722 205.262 483.21 202.115L471.996 200.354Z" fill="#263238"/>
<path d="M484.596 220.616C483.588 222.881 481.572 224.517 479.304 225.398C476.154 226.531 474.516 223.762 475.146 220.742C475.776 218.099 478.17 214.197 481.32 214.449C484.596 214.701 485.856 217.847 484.596 220.616Z" fill="#B97964"/>
<path d="M458.64 226.405C459.27 227.915 460.026 230.684 460.026 230.684C460.278 230.684 460.53 230.684 460.782 230.684C464.436 230.432 465.948 229.048 466.704 227.664C467.082 226.908 467.082 226.153 467.082 225.524C467.082 224.769 466.83 224.266 466.83 224.266C464.94 225.524 461.664 226.028 459.9 226.279C459.144 226.405 458.64 226.405 458.64 226.405Z" fill="#263238"/>
<path d="M459.27 226.531L459.648 227.79C462.798 227.664 465.696 226.783 466.704 225.65C466.704 224.895 466.326 224.392 466.326 224.392C464.562 225.776 460.908 226.405 459.27 226.531Z" fill="white"/>
<path d="M460.782 230.684C464.436 230.432 465.948 229.047 466.704 227.663C465.444 227.789 464.058 228.041 462.798 228.796C461.79 229.299 461.16 230.054 460.782 230.684Z" fill="#DE5753"/>
<path d="M485.1 203.752C487.116 196.075 478.548 190.286 469.98 189.027C461.412 187.769 456.498 191.544 456.498 191.544C456.498 191.544 452.97 188.776 449.946 189.782C446.544 190.915 444.654 200.102 454.86 204.255C462.546 207.276 471.24 204.759 471.24 204.759C471.24 204.759 483.462 209.919 485.1 203.752Z" fill="#263238"/>
<path opacity="0.2" d="M493.416 271.459C492.534 276.745 491.526 282.786 490.644 289.204C486.486 281.527 489.762 268.816 489.762 268.816L493.416 271.459Z" fill="black"/>
<path d="M497.07 251.827C497.07 251.827 504.504 254.218 530.964 297.511L515.718 306.824C515.718 306.824 496.692 280.773 491.652 279.388C491.652 279.388 485.352 257.868 497.07 251.827Z" fill="#9CC02A"/>
<path d="M398.034 224.643C398.034 224.643 402.318 222.755 403.074 220.741C403.83 218.728 404.208 206.143 402.822 205.01C401.436 203.878 391.356 204.633 390.222 207.15C389.088 209.541 390.348 220.616 390.852 221.622L398.034 224.643Z" fill="#B97964"/>
<path d="M490.77 289.078C490.77 289.078 490.77 289.204 490.77 289.078C489.636 297.007 488.628 305.313 487.746 313.367C481.194 310.85 465.192 306.697 432.81 308.082C432.81 300.153 433.062 291.343 433.692 282.66C443.394 281.275 465.948 279.765 490.77 289.078Z" fill="#BD1CFF"/>
<path opacity="0.4" d="M490.77 289.078C490.77 289.078 490.77 289.204 490.77 289.078C489.636 297.007 488.628 305.313 487.746 313.367C481.194 310.85 465.192 306.697 432.81 308.082C432.81 300.153 433.062 291.343 433.692 282.66C443.394 281.275 465.948 279.765 490.77 289.078Z" fill="#BD1CFF"/>
<path d="M434.07 2.51701C437.598 2.51701 439.74 4.65646 439.74 8.18027V139.065C439.74 142.588 437.598 145.986 434.07 145.986H339.444L310.716 184.119L310.464 145.986H295.344C291.816 145.986 288.414 142.588 288.414 139.065V8.18027C288.414 4.65646 291.816 2.51701 295.344 2.51701H433.44H434.07ZM434.07 0H295.47C290.556 0 286.02 3.27211 286.02 8.18027V139.065C286.02 143.973 290.556 148.503 295.47 148.503H308.07L308.322 183.741V191.041L312.858 185.252L340.83 148.378H434.196C439.11 148.378 442.386 143.847 442.386 138.939V8.18027C442.26 3.27211 438.984 0 434.07 0Z" fill="#BD1CFF"/>
<path d="M389.592 148.252L389.844 154.544L345.744 153.537L345.366 145.986L389.592 148.252Z" fill="#263238"/>
<path d="M355.618 154.214L365.06 154.584L365.341 147.416L355.899 147.047L355.618 154.214Z" fill="white"/>
<path d="M374.545 157.301L376.687 157.304L376.703 146.355L374.561 146.352L374.545 157.301Z" fill="#263238"/>
<path opacity="0.1" d="M374.545 157.301L376.687 157.304L376.703 146.355L374.561 146.352L374.545 157.301Z" fill="white"/>
<path d="M347.891 155.67L350.033 155.671L350.04 144.722L347.898 144.721L347.891 155.67Z" fill="#263238"/>
<path opacity="0.1" d="M347.891 155.67L350.033 155.671L350.04 144.722L347.898 144.721L347.891 155.67Z" fill="white"/>
<path d="M344.484 82.1805C344.484 82.1805 319.032 79.6635 314.496 72.9935C309.96 66.3234 324.954 21.269 324.954 21.269L318.402 18.752C318.402 18.752 297.486 65.3166 301.77 77.1465C306.054 88.9764 342.594 99.0445 342.594 99.0445L344.484 82.1805Z" fill="#EBB376"/>
<path d="M383.67 29.5752C383.67 29.5752 377.748 20.0106 363.132 24.4153C346.878 29.3235 342.594 62.0446 356.58 91.3677C370.44 120.691 396.396 115.279 397.278 101.058C398.034 86.8371 394.002 71.1058 394.506 54.997C394.884 38.8881 388.584 30.0786 383.67 29.5752Z" fill="#263238"/>
<path d="M345.618 146.742L389.088 148.252C389.214 137.429 389.466 129.249 392.112 116.286C392.994 112.133 394.002 107.477 395.388 101.94C396.144 99.045 397.026 95.8987 397.908 92.6266C398.664 90.1096 399.42 87.3409 400.176 84.5722C394.254 82.9361 388.08 81.8035 382.032 81.1742C375.606 80.4191 369.054 80.0416 362.502 80.1674C354.06 80.545 344.484 81.9293 344.484 81.9293C344.484 81.9293 343.098 82.3069 342.72 91.2422C342.216 99.6742 342.342 116.412 345.618 146.742Z" fill="#9CC02A"/>
<path opacity="0.2" d="M345.618 146.742L389.088 148.252C389.214 137.429 389.466 129.249 392.112 116.286C392.994 112.133 394.002 107.477 395.388 101.94C396.144 99.045 397.026 95.8987 397.908 92.6266C398.664 90.1096 399.42 87.3409 400.176 84.5722C394.254 82.9361 388.08 81.8035 382.032 81.1742C375.606 80.4191 369.054 80.0416 362.502 80.1674C354.06 80.545 344.484 81.9293 344.484 81.9293C344.484 81.9293 343.098 82.3069 342.72 91.2422C342.216 99.6742 342.342 116.412 345.618 146.742Z" fill="#9CC02A"/>
<g opacity="0.3">
<path opacity="0.3" d="M400.05 84.5719C399.798 85.327 399.546 86.208 399.294 86.9631C398.79 88.4733 398.412 89.9835 398.034 91.4937C397.908 91.8712 397.782 92.2488 397.782 92.6263C397.404 94.1365 396.9 95.6467 396.522 97.1569C396.144 98.6672 395.766 100.177 395.388 101.562C395.388 101.688 395.262 101.813 395.262 101.939C394.758 103.827 394.38 105.463 394.002 107.225C393.624 108.735 393.246 110.245 392.994 111.63C392.616 113.266 392.364 114.776 391.986 116.286C391.86 116.664 391.608 116.915 391.608 117.293C391.356 118.803 390.6 120.313 390.6 121.698C390.6 123.586 390.222 125.222 389.97 126.983C389.97 127.109 389.97 127.235 389.97 127.361C389.718 128.871 389.718 130.381 389.592 131.766C389.592 131.892 389.592 131.892 389.592 132.018C389.466 133.905 389.34 135.667 389.214 137.429C389.088 138.939 389.088 140.324 389.088 141.834C389.088 143.847 388.962 145.987 388.962 148.126L345.492 146.616C345.24 144.351 344.988 142.086 344.862 139.946C344.736 138.436 344.61 136.8 344.484 135.415C344.358 133.528 344.106 131.64 343.98 129.878C343.854 129.123 343.854 128.242 343.728 127.487C343.728 126.732 343.602 125.977 343.602 125.347C343.476 123.334 343.35 121.572 343.224 119.684C343.098 118.174 343.098 116.664 342.972 115.154C342.846 113.14 342.72 111.252 342.72 109.616C342.72 107.98 342.594 106.47 342.594 105.086C342.594 103.072 342.594 101.184 342.468 99.5481C342.468 97.9121 342.468 96.4018 342.468 95.0175C342.468 93.6331 342.468 92.3746 342.594 91.242C342.594 90.6127 342.72 89.9835 342.72 89.4801C342.846 87.5923 342.972 86.0821 343.224 85.0753C343.728 82.0549 344.358 81.9291 344.358 81.9291C344.358 81.9291 353.934 80.5447 362.376 80.1672C368.928 80.0413 375.48 80.4188 381.906 81.2998C388.08 81.9291 394.128 83.0617 400.05 84.5719Z" fill="#9CC02A"/>
<path opacity="0.2" d="M400.05 84.5719C399.798 85.327 399.546 86.208 399.294 86.9631C398.79 88.4733 398.412 89.9835 398.034 91.4937C397.908 91.8712 397.782 92.2488 397.782 92.6263C397.404 94.1365 396.9 95.6467 396.522 97.1569C396.144 98.6672 395.766 100.177 395.388 101.562C395.388 101.688 395.262 101.813 395.262 101.939C394.758 103.827 394.38 105.463 394.002 107.225C393.624 108.735 393.246 110.245 392.994 111.63C392.616 113.266 392.364 114.776 391.986 116.286C391.86 116.664 391.608 116.915 391.608 117.293C391.356 118.803 390.6 120.313 390.6 121.698C390.6 123.586 390.222 125.222 389.97 126.983C389.97 127.109 389.97 127.235 389.97 127.361C389.718 128.871 389.718 130.381 389.592 131.766C389.592 131.892 389.592 131.892 389.592 132.018C389.466 133.905 389.34 135.667 389.214 137.429C389.088 138.939 389.088 140.324 389.088 141.834C389.088 143.847 388.962 145.987 388.962 148.126L345.492 146.616C345.24 144.351 344.988 142.086 344.862 139.946C344.736 138.436 344.61 136.8 344.484 135.415C344.358 133.528 344.106 131.64 343.98 129.878C343.854 129.123 343.854 128.242 343.728 127.487C343.728 126.732 343.602 125.977 343.602 125.347C343.476 123.334 343.35 121.572 343.224 119.684C343.098 118.174 343.098 116.664 342.972 115.154C342.846 113.14 342.72 111.252 342.72 109.616C342.72 107.98 342.594 106.47 342.594 105.086C342.594 103.072 342.594 101.184 342.468 99.5481C342.468 97.9121 342.468 96.4018 342.468 95.0175C342.468 93.6331 342.468 92.3746 342.594 91.242C342.594 90.6127 342.72 89.9835 342.72 89.4801C342.846 87.5923 342.972 86.0821 343.224 85.0753C343.728 82.0549 344.358 81.9291 344.358 81.9291C344.358 81.9291 353.934 80.5447 362.376 80.1672C368.928 80.0413 375.48 80.4188 381.906 81.2998C388.08 81.9291 394.128 83.0617 400.05 84.5719Z" fill="#9CC02A"/>
</g>
<path d="M324.198 23.2828C324.198 23.2828 327.096 20.8916 327.096 19.1297C327.222 17.4937 324.576 7.67736 323.19 7.17396C321.804 6.67056 314.37 9.56512 314.118 11.7046C313.866 13.844 317.394 21.8984 318.024 22.6536L324.198 23.2828Z" fill="#EBB376"/>
<g opacity="0.7">
<path opacity="0.7" d="M399.42 87.0889C398.916 88.5991 398.538 90.1094 398.16 91.6196C393.498 91.7454 389.088 91.7454 384.93 91.7454C365.274 91.7454 351.54 90.6128 342.72 89.6059C342.846 87.7182 342.972 86.208 343.224 85.2012C353.934 86.3338 372.078 87.7182 399.42 87.0889Z" fill="white"/>
</g>
<g opacity="0.7">
<path opacity="0.7" d="M396.522 97.157C396.144 98.6672 395.766 100.177 395.388 101.562C391.734 101.688 388.206 101.688 384.804 101.688C365.022 101.688 351.162 100.555 342.342 99.5482C342.342 97.9121 342.342 96.4019 342.342 95.0176C352.8 96.4019 370.314 97.6604 396.522 97.157Z" fill="white"/>
</g>
<g opacity="0.7">
<path opacity="0.7" d="M394.002 107.351C393.624 108.861 393.246 110.372 392.994 111.756C390.222 111.756 387.45 111.756 384.93 111.756C365.274 111.756 351.54 110.623 342.72 109.617C342.72 107.98 342.594 106.47 342.594 105.086C352.422 106.344 369.18 107.729 394.002 107.351Z" fill="white"/>
</g>
<g opacity="0.7">
<path opacity="0.7" d="M391.608 117.419C391.356 118.929 390.6 120.439 390.6 121.823C388.584 121.823 386.694 121.823 384.93 121.823C365.652 121.823 352.17 120.817 343.224 119.684C343.098 118.174 343.098 116.664 342.972 115.153C352.548 116.412 368.424 117.67 391.608 117.419Z" fill="white"/>
</g>
<g opacity="0.7">
<path opacity="0.7" d="M390.096 127.109C389.97 129.626 389.718 130.885 389.592 132.143H389.466C387.828 132.143 386.316 132.018 384.804 132.018C366.156 132.018 352.674 131.011 343.854 130.004C343.728 128.494 343.602 126.732 343.476 125.222C352.926 126.354 368.046 127.109 389.844 127.109H390.096Z" fill="white"/>
</g>
<g opacity="0.7">
<path opacity="0.7" d="M389.34 137.178C389.214 138.436 389.214 140.953 389.214 142.212C387.828 142.212 386.316 142.086 385.056 142.086C367.038 142.086 353.934 141.079 344.988 140.198C344.862 138.688 344.736 136.926 344.61 135.416C353.808 136.549 368.424 137.178 389.34 137.178Z" fill="white"/>
</g>
<path d="M400.05 84.5723C400.05 84.5723 418.446 114.273 422.982 134.157C427.518 154.042 371.574 132.899 371.574 132.899L373.338 125.474C373.338 125.474 402.696 133.276 406.224 130.633C409.626 127.991 394.506 104.96 394.506 104.96L400.05 84.5723Z" fill="#EBB376"/>
<path d="M378.126 133.779C378.126 133.779 374.85 135.667 373.338 135.289C371.7 134.786 363.258 129.248 363.258 127.864C363.132 126.48 368.298 120.313 370.44 120.69C372.582 121.068 379.134 126.983 379.512 127.864L378.126 133.779Z" fill="#EBB376"/>
<path d="M370.44 120.691C367.92 120.691 360.864 126.229 362.502 127.11C364.266 128.117 372.834 135.038 374.472 134.032C375.984 133.025 377.622 130.004 377.622 130.004L370.44 120.691Z" fill="#EBB376"/>
<path d="M366.408 89.4799C376.992 87.5922 380.016 82.9357 380.016 82.9357C372.96 76.8949 378 65.5684 378 65.5684L365.274 68.5888C365.778 70.7282 365.904 72.4901 366.03 74.0003C366.534 81.8031 363.006 82.0547 363.006 82.0547C360.99 86.3337 366.408 89.4799 366.408 89.4799Z" fill="#EBB376"/>
<path opacity="0.2" d="M365.274 68.5888C365.778 70.7282 365.904 72.4901 366.03 74.0003C374.724 73.6228 378 65.5684 378 65.5684L365.274 68.5888Z" fill="#9CC02A"/>
<path d="M370.566 32.3447C359.352 32.3447 355.698 38.2597 354.942 49.7121C353.808 64.059 356.958 74.3787 370.944 71.3583C389.97 67.3311 389.088 32.4706 370.566 32.3447Z" fill="#EBB376"/>
<path d="M382.662 51.2218C382.662 51.2218 377.496 42.0347 378.252 34.9871C378.252 34.9871 356.076 25.8 354.942 48.3272C354.942 48.3272 352.926 28.317 372.078 28.0653C391.23 27.6877 391.104 55.7524 381.15 64.0585C381.276 64.0585 385.938 57.0109 382.662 51.2218Z" fill="#263238"/>
<path d="M378.756 70.2255C378.63 70.2255 378.504 70.2255 378.504 70.0997C378.378 69.9738 378.378 69.7221 378.63 69.5963C378.63 69.5963 381.402 67.4568 383.292 62.2969C385.182 57.0112 381.78 51.2221 379.008 46.6915C375.102 40.1473 378 34.8616 378.126 34.8616C378.252 34.7357 378.378 34.6099 378.63 34.7357C378.756 34.8616 378.882 34.9874 378.756 35.2391C378.756 35.2391 375.984 40.2731 379.638 46.4398C382.41 51.0963 385.938 57.0112 383.922 62.6745C382.032 68.0861 379.134 70.2255 379.008 70.2255C378.882 70.0997 378.882 70.2255 378.756 70.2255Z" fill="#263238"/>
<path d="M380.898 53.6129C381.024 51.8509 382.914 48.8305 386.19 49.2081C389.592 49.5856 391.23 56.7591 382.662 58.3952C381.402 58.521 380.646 57.3884 380.898 53.6129Z" fill="#EBB376"/>
<path d="M362.124 49.5859C362.124 49.5859 360.486 52.4805 358.722 54.2424C358.722 54.2424 359.604 55.7526 361.746 55.6268L362.124 49.5859Z" fill="#D58745"/>
<path d="M374.472 43.4194C374.472 43.4194 374.598 43.4194 374.598 43.2935C374.85 43.1677 374.85 42.7901 374.724 42.6643C372.96 40.2731 369.558 40.6507 369.432 40.6507C369.18 40.6507 368.928 40.9024 369.054 41.1541C369.054 41.4058 369.306 41.6575 369.558 41.5316C369.558 41.5316 372.582 41.2799 373.968 43.1677C374.094 43.4194 374.22 43.4194 374.472 43.4194Z" fill="#263238"/>
<path d="M361.242 40.776C361.368 40.776 361.494 40.6501 361.494 40.5243C361.62 40.2726 361.494 40.0209 361.242 39.895C361.116 39.895 358.974 39.0141 356.202 40.776C355.95 40.9018 355.95 41.2794 356.076 41.4052C356.202 41.6569 356.58 41.6569 356.706 41.5311C358.974 40.1467 360.738 40.776 360.864 40.776C361.116 40.776 361.242 40.776 361.242 40.776Z" fill="#263238"/>
<path d="M362.88 59.0242C363.51 60.5344 364.266 63.3031 364.266 63.3031C364.518 63.3031 364.77 63.3031 365.022 63.3031C368.676 63.0514 370.188 61.6671 370.944 60.2827C371.322 59.5276 371.322 58.7725 371.322 58.1433C371.322 57.3882 371.07 56.8848 371.07 56.8848C369.18 58.1433 365.904 58.6467 364.14 58.8984C363.384 59.0242 362.88 59.0242 362.88 59.0242Z" fill="#263238"/>
<path d="M363.51 59.1502L363.888 60.4087C367.038 60.2829 369.936 59.4019 370.944 58.2692C370.944 57.5141 370.566 57.0107 370.566 57.0107C368.802 58.3951 365.148 59.0243 363.51 59.1502Z" fill="white"/>
<path d="M365.022 63.3036C368.676 63.0519 370.188 61.6676 370.944 60.2832C369.684 60.4091 368.298 60.6608 367.038 61.4159C366.03 61.9193 365.4 62.6744 365.022 63.3036Z" fill="#DE5753"/>
<path d="M371.7 49.711C371.952 49.5852 371.952 49.3335 371.826 49.2076C371.196 48.3267 370.566 47.8233 369.684 47.6974C368.298 47.5716 367.29 48.5784 367.164 48.5784C367.038 48.7042 367.038 48.9559 367.164 49.0818C367.29 49.2076 367.542 49.2076 367.668 49.0818C367.668 49.0818 368.55 48.2008 369.684 48.3267C370.314 48.4525 370.818 48.8301 371.322 49.4593C371.322 49.711 371.574 49.8369 371.7 49.711Z" fill="#263238"/>
<path d="M360.738 48.9564C360.864 48.9564 360.864 48.9564 360.738 48.9564C360.99 48.7047 360.99 48.5788 360.864 48.453C360.864 48.453 359.856 47.3203 358.596 47.3203C357.84 47.3203 357.21 47.572 356.706 48.2013C356.58 48.3271 356.58 48.5788 356.706 48.7047C356.832 48.8305 357.084 48.8305 357.21 48.7047C357.588 48.2013 358.092 47.9496 358.596 47.9496C359.604 47.9496 360.36 48.8305 360.36 48.8305C360.486 49.0822 360.612 49.0822 360.738 48.9564Z" fill="#263238"/>
<path d="M352.8 41.405C355.824 38.3846 360.864 37.8812 365.4 38.2587C366.03 36.7485 367.038 35.1124 368.172 34.2315C368.172 34.2315 367.29 35.9934 366.786 38.3846C371.448 39.0138 375.228 40.2723 375.228 40.2723C375.858 37.5036 379.89 33.6022 379.89 33.6022C356.202 24.0376 352.8 41.405 352.8 41.405Z" fill="#263238"/>
<path d="M389.97 83.5652C389.97 83.5652 378 94.3883 366.282 94.7658C354.564 95.1434 349.902 82.3066 349.902 82.3066C349.902 82.3066 367.668 76.0141 389.97 83.5652Z" fill="#EBB376"/>
<path d="M332.388 272.215C324.072 274.858 292.572 274.732 280.728 273.473C273.672 272.718 267.75 270.453 262.962 266.174C259.812 263.279 257.166 259.63 255.15 254.973C254.646 253.841 254.142 252.582 253.764 251.449C249.984 240.878 248.85 230.307 248.85 230.307L261.45 233.83C261.45 233.83 263.718 241.885 266.112 248.429C266.616 249.688 266.994 250.82 267.498 251.827C268.884 255.099 270.396 257.616 272.916 259.378C275.562 261.14 279.216 262.273 284.886 262.902C296.352 264.16 308.322 266.3 316.89 266.677C325.458 267.055 330.876 265.922 330.876 265.922C330.876 265.922 340.83 269.572 332.388 272.215Z" fill="#E4897B"/>
<path opacity="0.1" d="M332.388 272.215C324.072 274.858 292.572 274.732 280.728 273.473C273.672 272.718 267.75 270.453 262.962 266.174C259.812 263.279 257.166 259.63 255.15 254.973C254.646 253.841 254.142 252.582 253.764 251.449C249.984 240.878 248.85 230.307 248.85 230.307L261.45 233.83C261.45 233.83 263.718 241.885 266.112 248.429C266.616 249.688 266.994 250.82 267.498 251.827C268.884 255.099 270.396 257.616 272.916 259.378C275.562 261.14 279.216 262.273 284.886 262.902C296.352 264.16 308.322 266.3 316.89 266.677C325.458 267.055 330.876 265.922 330.876 265.922C330.876 265.922 340.83 269.572 332.388 272.215Z" fill="black"/>
<path d="M222.642 153.034C244.188 150.895 248.976 163.228 249.102 169.143C249.228 175.058 242.046 195.194 244.818 201.739C247.59 208.283 252 218.728 243.936 228.922C235.872 239.116 210.168 243.647 199.458 227.664C188.748 211.681 198.954 210.296 201.222 195.194C203.49 180.092 196.938 155.551 222.642 153.034Z" fill="#2E353A"/>
<path d="M309.33 453.565L300.888 452.684L300.636 440.729L300.51 429.78L310.716 429.15L309.96 442.113L309.33 453.565Z" fill="#E4897B"/>
<path d="M298.62 452.684C298.494 451.803 310.086 450.922 310.086 450.922C310.086 450.922 318.15 457.089 325.206 457.718C332.262 458.347 328.986 463.004 321.426 464.01C313.74 465.017 307.944 465.898 302.526 466.653C296.982 467.408 299.754 462.248 298.62 452.684Z" fill="#2E353A"/>
<path d="M315.882 452.936C314.244 452.936 312.102 452.307 311.598 452.055H311.472C311.472 452.055 311.472 452.055 311.472 451.929C311.472 451.803 311.472 451.803 311.472 451.677C311.472 451.551 312.102 448.783 313.488 447.902C313.992 447.65 314.496 447.524 315 447.776C315.504 447.902 315.882 448.279 315.882 448.657C315.882 449.286 315.252 449.915 314.37 450.545C315.378 450.293 316.26 450.167 317.016 450.419C317.394 450.545 317.646 450.796 317.772 451.048C318.024 451.677 317.898 452.055 317.646 452.306C317.142 452.81 316.512 452.936 315.882 452.936ZM312.48 451.803C314.244 452.306 316.386 452.558 316.89 452.055C316.89 452.055 317.016 451.929 316.89 451.426C316.764 451.3 316.638 451.174 316.512 451.048C315.63 450.796 313.74 451.3 312.48 451.803ZM314.244 448.405C313.992 448.405 313.866 448.405 313.614 448.531C312.858 449.034 312.228 450.293 311.976 451.3C313.614 450.419 315.126 449.286 315 448.783C315 448.657 314.748 448.531 314.496 448.405C314.496 448.405 314.37 448.405 314.244 448.405Z" fill="#19094D"/>
<path opacity="0.2" d="M309.96 442.364L300.636 440.979L300.51 429.905L310.716 429.275L309.96 442.364Z" fill="black"/>
<path d="M325.836 338.789C323.568 326.079 308.322 324.568 308.322 324.568C308.322 324.568 308.322 324.568 308.196 324.568C304.164 323.436 280.35 317.143 249.354 312.864L215.334 348.983C215.334 348.983 253.512 346.844 295.092 346.844C295.092 346.844 296.73 397.813 299.124 435.82L311.472 436.072C311.598 436.072 328.104 351.5 325.836 338.789Z" fill="#19094D"/>
<path d="M262.962 454.824L254.646 452.684L256.284 440.854L257.67 430.031L267.876 430.912L265.23 443.497L262.962 454.824Z" fill="#E4897B"/>
<path d="M252.378 452.307C252.378 451.426 263.97 452.181 263.97 452.181C263.97 452.181 271.026 459.48 277.83 461.242C284.76 463.004 280.854 467.031 273.042 466.906C265.356 466.78 259.434 466.78 254.016 466.654C248.598 466.654 252.126 461.997 252.378 452.307Z" fill="#2E353A"/>
<path d="M270.018 455.202C268.38 455.202 265.86 453.943 265.23 453.691C265.23 453.691 265.104 453.691 265.104 453.565C265.104 453.44 265.104 453.44 265.104 453.314C265.104 453.188 266.112 450.545 267.75 449.916C268.254 449.664 268.758 449.79 269.262 449.916C269.766 450.168 270.018 450.545 270.018 450.923C270.018 451.552 269.136 452.181 268.254 452.559C269.262 452.433 270.27 452.559 270.9 452.81C271.278 453.062 271.404 453.314 271.53 453.565C271.656 454.195 271.404 454.572 271.278 454.824C270.774 455.202 270.522 455.202 270.018 455.202ZM266.364 453.565C268.002 454.321 270.144 454.95 270.774 454.572C270.774 454.572 271.026 454.446 270.9 453.943C270.9 453.817 270.774 453.691 270.522 453.565C269.64 452.936 267.624 453.314 266.364 453.565ZM268.38 450.419C268.254 450.419 268.128 450.419 267.876 450.545C266.994 450.923 266.238 452.181 265.86 453.062C267.624 452.433 269.262 451.552 269.262 451.048C269.262 450.923 269.01 450.797 268.884 450.671C268.758 450.419 268.632 450.419 268.38 450.419Z" fill="#19094D"/>
<path opacity="0.2" d="M265.23 443.749L256.158 441.106L257.67 430.157L267.876 430.912L265.23 443.749Z" fill="black"/>
<path d="M249.606 315.004C249.606 315.004 248.598 301.916 248.22 299.273C247.716 296.504 247.212 293.106 246.582 291.47C243.684 282.786 205.002 288.324 205.002 288.324C205.002 288.324 181.818 327.715 197.82 343.949C201.348 347.599 208.404 349.235 215.46 349.109C215.46 349.109 224.406 349.109 264.978 347.222C264.978 347.222 258.93 397.813 255.654 435.82L267.75 437.834C267.75 437.834 296.604 356.66 296.226 343.698C295.848 330.735 296.226 325.45 249.606 315.004Z" fill="#54428F"/>
<path d="M253.89 432.171L270.522 434.059L267.246 440.603L253.764 438.841L253.89 432.171Z" fill="#19094D"/>
<path d="M296.982 432.548L313.74 431.919L311.598 438.841L297.99 439.218L296.982 432.548Z" fill="#19094D"/>
<path d="M205.884 283.415L205.002 289.456L246.582 292.728L247.716 285.554L205.884 283.415Z" fill="#2E353A"/>
<path opacity="0.2" d="M205.884 283.415L205.002 289.456L246.582 292.728L247.716 285.554L205.884 283.415Z" fill="black"/>
<path d="M220.014 283.033L218.009 282.826L216.937 293.216L218.942 293.423L220.014 283.033Z" fill="#2E353A"/>
<path d="M237.838 285.585L228.785 285.004L228.34 291.911L237.393 292.493L237.838 285.585Z" fill="#9CC02A"/>
<path d="M245.608 284.159L243.603 283.952L242.531 294.342L244.536 294.549L245.608 284.159Z" fill="#2E353A"/>
<path d="M247.716 285.555L206.01 283.415C205.254 272.341 204.75 262.524 201.348 249.31C200.34 245.031 198.954 240.249 197.19 234.837C196.308 231.943 195.3 228.796 194.166 225.398C193.284 222.881 193.032 220.113 192.024 217.218C198.072 215.33 203.616 213.694 209.79 212.687C216.342 211.555 223.02 210.8 229.824 210.548C238.518 210.422 248.472 211.429 248.472 211.429C248.472 211.429 249.858 211.807 250.74 220.994C251.496 229.677 249.48 254.218 247.716 285.555Z" fill="#BD1CFF"/>
<path opacity="0.2" d="M247.716 285.554L206.01 283.414C205.506 275.863 205.128 268.816 203.868 261.013C203.238 257.363 202.482 253.462 201.474 249.309C200.466 245.03 199.08 240.248 197.316 234.836C196.434 231.942 195.426 228.795 194.292 225.397V225.272C193.41 222.755 193.158 220.112 192.276 217.343C198.324 215.455 203.868 213.819 210.042 212.812C216.594 211.68 223.272 210.925 230.076 210.673C238.77 210.547 248.724 211.554 248.724 211.554C248.724 211.554 250.11 211.932 250.992 221.119C251.496 229.676 249.48 254.217 247.716 285.554Z" fill="white"/>
<path d="M304.29 211.555C304.038 217.847 303.156 236.095 302.778 242.388C302.4 248.68 300.132 248.429 293.202 248.429C292.32 248.429 291.564 248.303 290.934 248.177C286.776 247.17 288.414 242.891 288.54 240.248C288.54 240.248 289.548 226.153 289.674 217.218C289.926 208.282 289.17 207.024 295.344 207.024C301.518 207.024 304.542 205.262 304.29 211.555Z" fill="#BD1CFF"/>
<path opacity="0.4" d="M304.29 211.555C304.038 217.847 303.156 236.096 302.778 242.388C302.4 248.681 300.132 248.429 293.202 248.429C292.32 248.429 291.564 248.303 290.934 248.177C290.934 246.793 291.186 245.157 291.438 243.017C292.068 237.48 293.076 215.834 293.202 211.429C293.328 207.024 293.328 207.024 295.344 206.898C301.518 207.024 304.542 205.262 304.29 211.555Z" fill="#BD1CFF"/>
<path d="M244.818 177.952C244.818 177.952 251.496 152.405 223.902 153.663C196.308 154.922 202.482 197.711 219.618 195.068C236.754 192.425 244.818 177.952 244.818 177.952Z" fill="#2E353A"/>
<path d="M228.186 217.596C219.618 218.603 213.444 211.807 213.444 211.807C221.508 206.27 217.476 193.811 217.476 193.811L230.454 198.341C229.698 200.481 229.32 202.368 229.068 203.879C227.682 211.933 231.336 212.562 231.336 212.562C232.974 217.345 230.328 217.345 228.186 217.596Z" fill="#E4897B"/>
<path opacity="0.2" d="M230.454 198.341C229.698 200.481 229.32 202.368 229.068 203.879C222.894 201.362 217.476 193.811 217.476 193.811L230.454 198.341Z" fill="black"/>
<path d="M230.076 159.705C241.794 160.712 245.07 167.256 244.818 179.463C244.566 194.691 240.282 205.137 225.918 200.606C206.388 194.565 210.546 158.069 230.076 159.705Z" fill="#E4897B"/>
<path d="M237.258 178.205C237.258 178.205 238.644 181.351 240.282 183.365C240.282 183.365 239.148 184.875 237.132 184.372L237.258 178.205Z" fill="#DE5753"/>
<path d="M230.202 176.569C230.202 177.575 229.572 178.33 228.942 178.205C228.312 178.205 227.808 177.324 227.934 176.443C227.934 175.436 228.564 174.681 229.194 174.807C229.824 174.807 230.202 175.688 230.202 176.569Z" fill="#2E353A"/>
<path d="M228.816 174.807L230.958 174.178C230.958 174.178 229.824 175.814 228.816 174.807Z" fill="#2E353A"/>
<path d="M242.172 177.198C242.172 178.205 241.542 178.96 240.912 178.835C240.282 178.835 239.778 177.954 239.904 177.073C239.904 176.066 240.534 175.311 241.164 175.437C241.794 175.437 242.298 176.192 242.172 177.198Z" fill="#2E353A"/>
<path d="M240.912 175.437L243.054 174.807C243.054 174.681 241.92 176.443 240.912 175.437Z" fill="#2E353A"/>
<path d="M225.54 170.403C225.414 170.403 225.288 170.403 225.162 170.277C224.91 170.025 224.91 169.773 225.162 169.522C227.304 167.256 230.706 168.011 230.832 168.011C231.084 168.011 231.21 168.389 231.21 168.641C231.21 168.892 230.832 169.144 230.58 169.018C230.58 169.018 227.556 168.389 225.792 170.151C225.792 170.277 225.666 170.403 225.54 170.403Z" fill="#2E353A"/>
<path d="M243.936 170.653C243.81 170.653 243.684 170.653 243.684 170.527C241.416 168.766 239.652 169.269 239.526 169.269C239.274 169.395 239.022 169.143 238.896 168.891C238.77 168.64 239.022 168.388 239.274 168.262C239.4 168.262 241.668 167.633 244.314 169.772C244.566 169.898 244.566 170.276 244.44 170.527C244.188 170.527 244.062 170.653 243.936 170.653Z" fill="#2E353A"/>
<path d="M234.99 188.902C234.234 190.287 233.226 192.804 233.226 192.804C232.974 192.804 232.722 192.678 232.47 192.678C229.068 192.049 227.682 190.664 227.304 189.28C227.052 188.525 227.052 187.77 227.178 187.14C227.304 186.511 227.556 186.008 227.556 186.008C229.194 187.392 232.218 188.273 233.982 188.651C234.486 188.777 234.99 188.902 234.99 188.902Z" fill="#2E353A"/>
<path d="M233.856 188.651L233.352 189.783C230.202 189.154 228.06 188.273 227.178 187.14C227.304 186.511 227.556 186.008 227.556 186.008C229.068 187.392 232.092 188.273 233.856 188.651Z" fill="white"/>
<path d="M232.47 192.677C229.068 192.048 227.682 190.664 227.304 189.279C228.438 189.531 229.824 190.034 230.958 190.79C231.714 191.293 232.218 192.048 232.47 192.677Z" fill="#DE5753"/>
<path d="M215.46 178.457C215.46 178.457 221.76 169.269 221.634 161.844C221.634 161.844 245.7 154.293 244.818 178.079C244.818 178.079 248.85 157.314 228.816 155.174C208.656 153.035 206.262 182.484 215.838 192.174C215.838 191.923 211.554 184.12 215.46 178.457Z" fill="#2E353A"/>
<path d="M217.224 181.1C217.35 179.212 215.586 175.814 212.058 175.94C208.404 176.066 206.01 183.365 214.956 185.882C216.216 186.134 216.972 185.001 217.224 181.1Z" fill="#E4897B"/>
<path d="M219.996 176.694C219.87 176.694 219.744 176.568 219.618 176.442C219.492 176.316 219.618 176.065 219.87 175.939C229.572 172.289 229.32 159.327 229.32 159.201C229.32 158.949 229.446 158.823 229.698 158.823C229.824 158.823 230.076 158.949 230.076 159.201C230.076 159.327 230.202 172.793 219.996 176.694C220.122 176.694 219.996 176.694 219.996 176.694Z" fill="#2E353A"/>
<path d="M243.054 159.201C233.1 150.895 227.304 153.538 227.304 153.538C227.304 153.538 227.304 153.538 227.43 153.664C223.524 152.531 217.224 152.279 210.798 159.201C200.592 170.276 209.16 178.33 209.16 178.33C222.768 174.555 228.06 165.997 230.076 160.586C233.478 166.123 239.778 172.541 247.842 175.31C247.716 175.31 252.882 167.507 243.054 159.201Z" fill="#2E353A"/>
<path d="M216.468 208.787C216.468 208.787 214.83 216.841 228.186 217.47C228.186 217.47 222.138 221.372 221.256 225.273C221.256 225.273 212.184 223.008 210.42 211.43C210.42 211.556 214.074 207.402 216.468 208.787Z" fill="#9CC02A"/>
<path d="M228.816 208.408C228.816 208.408 229.572 215.959 228.186 217.595C228.186 217.595 232.848 219.106 234.864 223.636C234.864 223.636 235.62 216.463 232.722 210.925C232.596 210.799 230.958 207.905 228.816 208.408Z" fill="#9CC02A"/>
<path opacity="0.4" d="M216.468 208.787C216.468 208.787 214.83 216.841 228.186 217.47C228.186 217.47 222.138 221.372 221.256 225.273C221.256 225.273 212.184 223.008 210.42 211.43C210.42 211.556 214.074 207.402 216.468 208.787Z" fill="#9CC02A"/>
<path opacity="0.4" d="M228.816 208.408C228.816 208.408 229.572 215.959 228.186 217.595C228.186 217.595 232.848 219.106 234.864 223.636C234.864 223.636 235.62 216.463 232.722 210.925C232.596 210.799 230.958 207.905 228.816 208.408Z" fill="#9CC02A"/>
<path d="M272.79 249.059L282.996 244.78C282.996 244.78 284.256 241.004 285.894 240.123C287.532 239.242 298.368 237.481 299.502 238.487C300.636 239.494 300.888 248.052 298.872 249.31C296.856 250.443 287.28 250.821 286.272 250.443L275.94 255.603L272.79 249.059Z" fill="#E4897B"/>
<path d="M248.472 211.555C248.472 211.555 258.174 212.184 261.324 225.398C261.324 225.398 262.836 231.439 263.466 234.585C263.466 234.585 255.78 233.578 250.362 238.235L248.472 211.555Z" fill="#9CC02A"/>
<path opacity="0.2" d="M263.34 234.585C263.34 234.585 260.064 234.208 256.284 235.089C254.268 235.592 252.126 236.473 250.236 238.109L249.102 222.881L248.346 211.429C248.346 211.429 258.048 212.058 261.198 225.272C261.198 225.398 262.71 231.439 263.34 234.585Z" fill="white"/>
<path d="M331.38 247.926H313.74C312.354 247.926 311.22 249.058 311.22 250.443V252.331C311.094 252.331 310.968 252.331 310.716 252.331C309.582 252.331 308.448 252.582 307.44 252.96C303.912 254.218 301.392 257.742 301.392 261.769C301.392 265.797 303.912 269.194 307.44 270.453C308.448 270.831 309.582 271.082 310.716 271.082C310.842 271.082 310.968 271.082 311.22 271.082V271.963C311.22 273.348 312.354 274.48 313.74 274.48H331.38C332.766 274.48 333.9 273.348 333.9 271.963V250.569C333.9 249.058 332.766 247.926 331.38 247.926ZM311.22 267.936C311.094 267.936 310.968 267.936 310.716 267.936C309.456 267.936 308.322 267.558 307.44 267.055C305.55 265.922 304.29 263.909 304.29 261.518C304.29 259.126 305.55 257.113 307.44 255.98C308.448 255.351 309.582 255.099 310.716 255.099C310.842 255.099 310.968 255.099 311.22 255.099V267.936Z" fill="#19094D"/>
<path d="M328.986 273.851C328.986 273.851 333.774 274.984 335.79 274.103C337.932 273.222 339.192 267.559 338.94 265.545C338.688 263.657 338.058 261.769 333.9 261.518C329.868 261.266 328.482 260.637 327.474 264.286C326.592 268.062 325.71 272.844 328.986 273.851Z" fill="#E4897B"/>
<path opacity="0.4" d="M311.22 252.331V255.225C311.094 255.225 310.968 255.225 310.716 255.225C309.456 255.225 308.322 255.603 307.44 256.106V252.96C308.448 252.582 309.582 252.331 310.716 252.331C310.968 252.205 311.094 252.205 311.22 252.331Z" fill="black"/>
<path opacity="0.4" d="M311.22 267.935V270.83C311.094 270.83 310.968 270.83 310.716 270.83C309.582 270.83 308.448 270.578 307.44 270.201V266.929C308.448 267.558 309.582 267.81 310.716 267.81C310.968 268.061 311.094 268.061 311.22 267.935Z" fill="black"/>
<path opacity="0.2" d="M256.284 235.088C254.268 235.592 252.126 236.473 250.236 238.109L249.102 222.881C251.244 225.398 254.52 229.928 256.284 235.088Z" fill="#9CC02A"/>
<path opacity="0.2" d="M215.46 244.401C215.712 249.687 209.538 256.105 203.616 261.014C202.986 257.364 202.23 253.463 201.222 249.31C200.214 245.031 198.828 240.248 197.064 234.837C196.182 231.942 195.174 228.796 194.04 225.398V225.272L201.222 224.895C201.222 224.895 215.082 234.207 215.46 244.401Z" fill="black"/>
<path d="M282.996 244.779C282.996 244.779 278.208 247.548 269.892 249.939C261.576 252.331 249.48 254.092 238.266 256.484C227.052 258.875 222.894 256.861 218.232 251.45C213.57 246.164 206.892 236.222 206.892 236.222L193.788 236.851C193.788 236.851 199.332 248.807 207.648 258.245C215.964 267.684 226.17 270.327 237.636 267.684C249.228 265.041 279.216 255.351 286.146 250.065C293.202 245.157 282.996 244.779 282.996 244.779Z" fill="#E4897B"/>
<path d="M214.2 241.256C206.262 239.242 196.938 243.143 194.418 244.402C192.402 240.878 190.89 237.48 189.882 234.711C187.236 227.035 187.992 222.504 189.252 219.987C190.26 217.973 191.646 217.218 191.898 217.092C197.82 216.589 206.388 230.433 214.2 241.256Z" fill="#9CC02A"/>
<path opacity="0.2" d="M214.2 241.256C206.262 239.242 196.938 243.143 194.418 244.402C192.402 240.878 190.89 237.48 189.882 234.711C187.236 227.035 187.992 222.504 189.252 219.987C190.26 217.973 191.646 217.218 191.898 217.092C197.82 216.589 206.388 230.433 214.2 241.256Z" fill="white"/>
</svg>
