<svg width="550" height="564" viewBox="0 0 550 564" fill="none" xmlns="http://www.w3.org/2000/svg">
<g opacity="0.25">
<path d="M330.785 0H28.728V105.528H330.785V0Z" fill="#F0F0F0"/>
<path d="M324.97 99.8298V5.80176L34.3679 5.80176V99.8298L324.97 99.8298Z" fill="#E7E7E7"/>
<path d="M133.008 1.18359H127.28V104.344H133.008V1.18359Z" fill="#F0F0F0"/>
<path d="M95.4526 99.9111H127.292L127.292 5.88309H95.4526L95.4526 99.9111Z" fill="#E1E1E1"/>
<path d="M194.262 99.9111H226.102V5.88309H194.262V99.9111Z" fill="#E1E1E1"/>
<path d="M293.052 99.9111H324.892V5.88309H293.052V99.9111Z" fill="#E1E1E1"/>
<path d="M231.727 1.18359H226V104.344H231.727V1.18359Z" fill="#F0F0F0"/>
<path d="M0.0001297 105.66H28.6392L28.6392 0.132309H0.0001297L0.0001297 105.66Z" fill="#E7E7E7"/>
<path d="M107.569 99.9469H54.6714L67.1378 19.6172H120.036L107.569 99.9469Z" fill="#ECECEC"/>
<path d="M211.175 99.9469H158.109L167.374 19.6172H220.272L211.175 99.9469Z" fill="#F5F5F5"/>
<path d="M185.906 99.9493H137.725L157.94 26.8916H206.121L185.906 99.9493Z" fill="#E1E1E1"/>
<path d="M87.3535 13.1914H34.4556V99.9475H87.3535V13.1914Z" fill="#F5F5F5"/>
<path d="M313.265 13.1914H260.367V99.9475H313.265V13.1914Z" fill="#F5F5F5"/>
<path d="M275.866 99.9493H234.761L249.08 26.8916H290.186L275.866 99.9493Z" fill="#E1E1E1"/>
<path d="M255.481 99.949H231.728V32.1338H278.055L255.481 99.949Z" fill="#F5F5F5"/>
<path d="M313.434 13.1914H301.304V99.9475H313.434V13.1914Z" fill="#FAFAFA"/>
<path d="M72.192 93.3503C71.3496 93.3503 70.6758 92.6738 70.6758 91.8282V21.3072C70.6758 20.4616 71.3496 19.7852 72.192 19.7852C73.0343 19.7852 73.7082 20.4616 73.7082 21.3072V91.8282C73.7082 92.6738 73.0343 93.3503 72.192 93.3503Z" fill="#F0F0F0"/>
<path d="M429.674 105.697H127.616V211.225H429.674V105.697Z" fill="#F0F0F0"/>
<path d="M423.956 205.418V111.39L133.354 111.39V205.418L423.956 205.418Z" fill="#E7E7E7"/>
<path d="M232.064 106.881H226.336V210.041H232.064V106.881Z" fill="#F0F0F0"/>
<path d="M194.379 205.428H226.219V111.4H194.379V205.428Z" fill="#E1E1E1"/>
<path d="M293.188 205.428H325.028V111.4H293.188V205.428Z" fill="#E1E1E1"/>
<path d="M391.979 205.428H423.818V111.4H391.979V205.428Z" fill="#E1E1E1"/>
<path d="M330.616 106.881H324.889V210.041H330.616V106.881Z" fill="#F0F0F0"/>
<path d="M98.9264 211.178H127.565L127.565 105.65H98.9264L98.9264 211.178Z" fill="#E7E7E7"/>
<path d="M305.009 205.473H252.111L264.578 125.312H317.476L305.009 205.473Z" fill="#ECECEC"/>
<path d="M408.952 205.473H356.054L365.151 125.312H418.218L408.952 205.473Z" fill="#F5F5F5"/>
<path d="M383.682 205.477H335.501L355.717 132.419H403.898L383.682 205.477Z" fill="#E1E1E1"/>
<path d="M284.625 118.719H231.727V205.475H284.625V118.719Z" fill="#F5F5F5"/>
<path d="M214.712 118.719H161.814V205.475H214.712V118.719Z" fill="#F5F5F5"/>
<path d="M177.313 205.477H136.376L150.527 132.419H191.632L177.313 205.477Z" fill="#E1E1E1"/>
<path d="M156.929 205.475H133.344V137.829H179.503L156.929 205.475Z" fill="#F5F5F5"/>
<path d="M214.88 118.719H202.751V205.475H214.88V118.719Z" fill="#FAFAFA"/>
<path d="M269.463 199.048C268.621 199.048 267.947 198.371 267.947 197.526V127.004C267.947 126.159 268.621 125.482 269.463 125.482C270.306 125.482 270.98 126.159 270.98 127.004V197.526C271.148 198.202 270.306 199.048 269.463 199.048Z" fill="#F0F0F0"/>
<path d="M352.349 60.0361V81.5138C352.349 94.7047 363.13 105.697 376.439 105.697C389.579 105.697 400.53 94.8739 400.53 81.5138V60.0361H352.349Z" fill="#ECECEC"/>
<path d="M201.573 346.011H51.3022V363.599H201.573V346.011Z" fill="#E7E7E7"/>
<path d="M201.404 363.598H61.2412V478.596H201.404V363.598Z" fill="#ECECEC"/>
<path d="M201.454 478.738L539.563 478.738V363.74L201.454 363.74V478.738Z" fill="#F5F5F5"/>
<path d="M61.4096 370.16L539.681 370.16V363.734L61.4096 363.734V370.16Z" fill="#E1E1E1"/>
<path d="M201.492 363.679L549.54 363.679V346.091L201.492 346.091V363.679Z" fill="#F0F0F0"/>
<path d="M61.2412 478.766V506.67L89.2064 478.766H61.2412Z" fill="#ECECEC"/>
<path d="M201.573 478.766V506.67L229.538 478.766H201.573Z" fill="#F5F5F5"/>
<path d="M539.682 478.766V506.67L511.717 478.766H539.682Z" fill="#F5F5F5"/>
<path d="M201.573 478.766V506.67L173.607 478.766H201.573Z" fill="#ECECEC"/>
<path d="M399.35 478.766V506.67L371.385 478.766H399.35Z" fill="#E1E1E1"/>
<path d="M399.351 478.766V506.67L427.316 478.766H399.351Z" fill="#E1E1E1"/>
<path d="M292.207 283.775L281.93 341.782H237.961L236.276 346.01H281.256H308.716H383.346L394.296 283.775H292.207Z" fill="#E1E1E1"/>
</g>
<path d="M129.638 548.101H142.105L142.61 519.014H130.144L129.638 548.101Z" fill="#FF8B7B"/>
<path d="M54.5029 548.101H66.9693L72.5287 519.014H60.0623L54.5029 548.101Z" fill="#FF8B7B"/>
<path d="M67.8113 546.748H53.8287C53.3233 546.748 52.818 547.086 52.818 547.594L50.6279 558.755C50.4594 559.939 51.3018 560.954 52.481 560.954C57.3665 560.785 59.725 560.615 65.9582 560.615C69.8329 560.615 77.5823 560.954 82.8047 560.954C87.8586 560.954 88.5325 555.711 86.5109 555.204C76.74 553.005 73.0337 550.13 70.0014 547.424C69.3275 546.917 68.6537 546.748 67.8113 546.748Z" fill="#1A2E35"/>
<path d="M141.936 546.748H128.29C127.785 546.748 127.279 547.086 127.279 547.594L125.089 558.755C124.921 559.939 125.763 560.954 126.942 560.954C131.828 560.954 139.072 560.615 145.137 560.615C152.381 560.615 153.223 560.954 161.646 560.954C166.7 560.954 168.048 555.711 165.858 555.204C156.087 553.005 153.56 552.836 144.968 547.594C144.126 547.086 143.115 546.748 141.936 546.748Z" fill="#1A2E35"/>
<path d="M138.735 150.848L155.75 145.268C155.75 145.268 173.439 186.363 179.335 188.899C187.421 192.282 198.54 203.274 206.626 210.039C206.963 212.237 205.952 217.649 204.605 219.171C190.117 215.789 172.259 207.502 166.363 202.09C153.054 189.576 138.735 150.848 138.735 150.848Z" fill="#FF8B7B"/>
<path d="M134.692 141.378C129.806 152.37 149.18 187.208 149.18 187.208L174.786 175.37C174.786 175.37 169.901 158.289 162.152 144.76C154.065 130.724 140.083 129.202 134.692 141.378Z" fill="#BD1CFF"/>
<path opacity="0.2" d="M158.782 167.592C153.223 159.813 144.126 157.615 136.04 157.276C140.251 171.144 149.18 187.21 149.18 187.21L163.836 180.445C163.331 175.71 161.646 171.482 158.782 167.592Z" fill="black"/>
<path d="M204.942 208.688L219.767 211.055L215.892 226.783C215.892 226.783 208.311 223.739 201.573 217.82L204.942 208.688Z" fill="#CD5B51"/>
<path d="M232.739 217.818L227.348 226.443L215.892 226.95L219.767 211.223L232.739 217.818Z" fill="#CD5B51"/>
<path opacity="0.2" d="M142.61 519.014L142.441 534.065H129.807L130.144 519.014H142.61Z" fill="black"/>
<path opacity="0.2" d="M60.0622 519.014H72.5285L69.6646 534.065H57.1982L60.0622 519.014Z" fill="black"/>
<path d="M151.033 134.276C151.033 134.276 164.847 173.68 154.402 248.09C134.187 248.09 97.2927 248.09 87.5218 248.09C86.8479 237.774 92.0703 182.305 80.9517 133.6C80.9517 133.6 92.4073 131.232 103.357 130.725C111.949 130.386 124.247 130.048 131.828 130.725C141.767 131.57 151.033 134.276 151.033 134.276Z" fill="#BD1CFF"/>
<path opacity="0.2" d="M121.046 180.613H101.673L101.167 168.268H120.541L121.046 180.613Z" fill="black"/>
<path d="M121.383 180.106H102.01L101.167 168.268H120.541L121.383 180.106Z" fill="white"/>
<path d="M108.749 175.541H103.358L103.021 170.298H108.243L108.749 175.541Z" fill="#BD1CFF"/>
<path d="M119.362 172.835H109.928V171.82H119.362V172.835Z" fill="#E1E1E1"/>
<path d="M117.509 174.863H110.096L109.928 173.849H117.509V174.863Z" fill="#E1E1E1"/>
<path d="M108.917 177.907H103.526V176.893H108.749L108.917 177.907Z" fill="#E1E1E1"/>
<path d="M110.265 177.907H119.867L119.699 176.893H110.265V177.907Z" fill="#E1E1E1"/>
<path d="M111.107 170.466C110.433 170.466 109.928 169.959 109.928 169.452L109.759 167.084C109.759 166.577 110.096 166.069 110.77 166.069C111.275 166.069 111.781 166.577 111.949 167.084L112.118 169.452C111.949 170.128 111.612 170.466 111.107 170.466Z" fill="#1A2E35"/>
<path opacity="0.2" d="M95.7765 145.606C97.1242 153.555 95.1027 172.665 88.0271 194.819C87.5217 177.738 86.0056 158.121 81.9624 138.334V138.165C86.3425 137.827 94.5973 137.996 95.7765 145.606Z" fill="black"/>
<path d="M106.39 104.004C108.412 113.136 109.591 124.636 103.358 130.724C103.358 130.724 107.233 140.025 124.248 140.025C139.746 140.025 131.828 130.724 131.828 130.724C121.552 128.356 121.721 115.673 123.405 108.401L106.39 104.004Z" fill="#FF8B7B"/>
<path d="M124.247 138.335L129.132 143.747L127.953 147.636C127.785 148.313 127.111 148.651 126.437 148.651L123.068 148.82C122.562 148.82 121.888 148.651 121.72 148.144L119.024 144.254L124.247 138.335Z" fill="#1A2E35"/>
<path d="M124.247 138.335C121.214 142.901 118.519 148.989 118.519 148.989C118.519 148.989 98.1345 141.717 98.8083 130.724C98.8083 130.724 103.357 128.526 105.21 127.004C105.21 127.004 106.221 133.938 124.247 138.335Z" fill="white"/>
<path d="M124.247 138.335C128.122 142.732 130.649 148.143 130.649 148.143C130.649 148.143 138.23 141.548 135.029 130.724C135.029 130.724 132.333 129.541 129.469 129.033C129.469 129.033 130.817 135.967 124.247 138.335Z" fill="white"/>
<path d="M126.1 146.959C126.605 146.79 135.028 189.577 136.208 200.062C138.566 214.098 132.164 229.488 131.996 229.488C131.996 229.488 127.279 217.481 125.931 199.385C124.92 181.459 124.584 157.276 122.899 146.959C123.573 146.959 125.426 146.959 126.1 146.959Z" fill="#1A2E35"/>
<path opacity="0.2" d="M123.405 108.401C122.394 112.629 122.057 118.717 123.91 123.452C122.394 123.283 120.878 122.776 119.362 122.099C113.466 119.393 110.602 115.165 107.569 108.739C107.232 107.048 107.064 105.526 106.727 104.004L123.405 108.401Z" fill="black"/>
<path d="M126.942 76.0996L131.659 90.9817C136.713 85.0627 132.502 76.9452 126.942 76.0996Z" fill="#1A2E35"/>
<path d="M98.6406 92.8418C102.178 104.849 103.695 112.121 111.275 117.025C122.563 124.466 136.208 115.672 136.208 102.82C136.208 91.3197 130.312 73.5626 117.34 71.195C104.705 68.9965 95.1028 80.8346 98.6406 92.8418Z" fill="#FF8B7B"/>
<path d="M103.526 101.975C106.895 99.7764 108.243 88.4457 105.21 84.5561C115.992 84.0487 121.383 80.3282 121.72 78.4679C125.426 80.1591 135.029 80.8355 133.849 75.9312C132.67 71.196 127.616 68.321 125.426 68.321C121.72 64.4313 112.286 61.049 105.716 66.4607C94.2601 66.4607 88.0269 75.7621 91.3962 79.4826C84.6576 83.7105 86.3423 92.6736 91.3962 95.2103C88.1954 99.6073 101.504 110.092 103.526 101.975Z" fill="#1A2E35"/>
<path d="M96.4505 107.388C98.809 109.755 102.01 110.939 104.874 110.939C108.917 110.939 109.928 106.88 107.738 103.667C105.885 100.623 101.336 97.0716 97.6298 98.5936C93.9235 100.116 93.755 104.682 96.4505 107.388Z" fill="#FF8B7B"/>
<path d="M110.433 248.09C110.433 248.09 111.781 263.818 113.465 285.295C115.319 309.479 117.846 341.103 119.193 365.118C119.193 365.287 119.193 365.287 119.193 365.456C119.53 370.022 119.699 374.25 119.867 378.139C121.72 417.205 125.595 531.189 125.595 531.189H146.822C146.822 531.189 157.435 415.007 157.94 375.095C158.446 336.706 154.402 248.09 154.402 248.09H110.433Z" fill="#1A2E35"/>
<path d="M124.247 524.595C124.079 524.595 124.416 531.528 124.416 531.528H148.843L149.686 523.749L124.247 524.595Z" fill="#BD1CFF"/>
<path opacity="0.2" d="M113.465 285.295C115.318 309.478 117.845 341.103 119.193 365.117C119.193 365.287 119.193 365.286 119.193 365.456C124.416 342.625 126.437 314.383 125.763 267.707L113.465 285.295Z" fill="black"/>
<path d="M130.817 248.09C130.817 248.09 119.025 338.905 112.117 374.926C104.537 414.33 75.5606 531.358 75.5606 531.358H52.6494C52.6494 531.358 70.6751 417.543 74.7183 378.478C78.9299 336.199 87.6901 248.09 87.6901 248.09H130.817Z" fill="#1A2E35"/>
<path d="M52.313 525.101C52.1446 525.101 51.3022 531.527 51.3022 531.527H76.572L78.5936 524.086L52.313 525.101Z" fill="#BD1CFF"/>
<path d="M117.677 92.1656C117.846 93.1803 118.688 93.8568 119.193 93.6877C119.699 93.5185 120.204 92.673 119.867 91.6583C119.699 90.6436 118.856 89.9671 118.351 90.1363C117.846 90.3054 117.509 91.3201 117.677 92.1656Z" fill="#1A2E35"/>
<path d="M128.795 89.7985C128.964 90.8131 129.806 91.4896 130.311 91.3205C130.985 91.1514 131.322 90.3058 130.985 89.2911C130.817 88.2764 129.974 87.5999 129.469 87.7691C128.795 87.9382 128.627 88.7838 128.795 89.7985Z" fill="#1A2E35"/>
<path d="M125.426 91.1514C125.426 91.1514 128.964 96.3939 132.165 98.5924C130.817 100.622 127.785 100.453 127.785 100.453L125.426 91.1514Z" fill="#E16453"/>
<path d="M125.763 104.343C125.931 104.343 125.931 104.174 125.931 104.005C125.931 103.835 125.763 103.666 125.594 103.835C121.383 104.85 118.519 102.313 118.519 102.313C118.35 102.144 118.182 102.144 118.182 102.313C118.014 102.482 118.014 102.652 118.182 102.652C118.182 102.821 121.214 105.527 125.763 104.343Z" fill="#1A2E35"/>
<path d="M113.466 89.2904C113.634 89.2904 113.802 89.1213 113.802 88.9522C114.813 86.5845 117.003 86.2463 117.003 86.2463C117.34 86.2463 117.509 85.9081 117.509 85.5699C117.509 85.2316 117.172 85.0625 116.835 85.0625C116.666 85.0625 113.971 85.5698 112.792 88.4448C112.623 88.783 112.792 89.1213 113.129 89.2904C113.297 89.2904 113.466 89.2904 113.466 89.2904Z" fill="#1A2E35"/>
<path d="M132.839 84.7251C132.839 84.7251 133.007 84.7251 133.007 84.556C133.176 84.3869 133.176 83.8796 133.007 83.7105C130.817 81.1737 128.122 81.6811 127.953 81.6811C127.616 81.6811 127.448 82.0193 127.448 82.3575C127.448 82.6958 127.785 82.8649 128.122 82.8649C128.29 82.8649 130.312 82.5266 132.165 84.556C132.333 84.7251 132.67 84.8943 132.839 84.7251Z" fill="#1A2E35"/>
<path d="M73.3704 147.806L90.2169 154.739C90.2169 154.739 77.7505 190.761 76.9082 196.511C83.8152 199.048 91.2277 209.195 100.325 215.959C100.156 217.988 96.1132 223.062 94.597 224.246C80.9513 217.65 60.2302 208.518 59.2194 200.57C56.8609 182.813 73.3704 147.806 73.3704 147.806Z" fill="#FF8B7B"/>
<path d="M96.2819 215.281H110.433L106.39 229.149C106.39 229.149 97.6296 228.641 92.5757 222.215L96.2819 215.281Z" fill="#FF8B7B"/>
<path d="M118.857 217.987L114.645 230.332L106.39 229.149L110.433 215.281L118.857 217.987Z" fill="#FF8B7B"/>
<path d="M80.9513 133.599C69.1588 135.291 56.5239 176.555 56.5239 176.555L83.6468 186.871C83.6468 186.871 92.2385 170.974 97.124 156.43C102.683 141.21 93.5862 131.739 80.9513 133.599Z" fill="#BD1CFF"/>
<path d="M72.0226 548.947C73.0334 548.947 73.8758 548.777 74.3811 548.27C74.8865 547.932 75.055 547.425 74.8865 546.748C74.8865 546.241 74.5496 546.072 74.3811 545.903C73.0334 545.226 68.9903 547.763 68.4849 547.932C68.3164 547.932 68.3164 548.101 68.3164 548.27C68.3164 548.439 68.4849 548.439 68.4849 548.439C69.6641 548.608 70.8434 548.947 72.0226 548.947ZM73.8757 546.241C74.0442 546.241 74.2127 546.241 74.2127 546.241C74.2127 546.241 74.3811 546.41 74.3811 546.579C74.3811 547.086 74.3811 547.425 74.0442 547.594C73.3704 548.101 71.6857 548.27 69.6641 547.763C71.0118 547.255 72.865 546.241 73.8757 546.241Z" fill="#BD1CFF"/>
<path d="M68.8223 548.439C70.17 547.763 72.697 544.888 72.36 543.535C72.36 543.366 72.1916 542.859 71.3492 542.689C70.8439 542.689 70.5069 542.689 70.17 543.028C68.8223 544.211 68.4854 547.763 68.4854 547.932C68.4854 548.27 68.4853 548.27 68.8223 548.439C68.8223 548.439 68.6538 548.439 68.8223 548.439ZM71.1808 543.366C71.1808 543.366 71.3492 543.366 71.1808 543.366C71.6862 543.366 71.6862 543.535 71.6862 543.704C71.8546 544.55 70.3385 546.579 68.9907 547.594C69.1592 546.579 69.4961 544.381 70.3385 543.704C70.6754 543.366 71.0123 543.366 71.1808 543.366Z" fill="#BD1CFF"/>
<path d="M147.326 548.946C148.506 548.946 149.685 548.777 150.359 548.101C150.696 547.762 150.864 547.255 150.864 546.579C150.864 546.24 150.696 545.902 150.359 545.733C148.843 544.888 143.789 547.424 143.283 547.762C143.115 547.762 143.115 547.932 143.115 548.101C143.115 548.27 143.283 548.27 143.283 548.27C144.462 548.608 145.81 548.946 147.326 548.946ZM149.516 546.24C149.685 546.24 149.853 546.24 150.022 546.41C150.19 546.41 150.19 546.579 150.19 546.748C150.19 547.086 150.19 547.424 149.853 547.762C149.179 548.439 146.989 548.608 144.294 548.101C145.979 547.255 148.337 546.24 149.516 546.24Z" fill="#BD1CFF"/>
<path d="M143.452 548.439C145.136 547.763 148 545.057 147.663 543.535C147.663 543.197 147.326 542.859 146.484 542.689C145.81 542.689 145.305 542.859 144.799 543.197C143.283 544.55 142.946 547.932 142.946 548.101C142.946 548.27 142.946 548.27 143.115 548.439C143.283 548.439 143.283 548.439 143.452 548.439ZM146.316 543.366H146.484C146.989 543.366 146.989 543.704 146.989 543.704C147.158 544.55 145.136 546.748 143.62 547.594C143.789 546.579 144.126 544.55 145.136 543.704C145.642 543.535 145.979 543.366 146.316 543.366Z" fill="#BD1CFF"/>
<path d="M363.131 96.3955H355.213V98.0867H363.131V96.3955Z" fill="#BD1CFF"/>
<path d="M348.138 96.3955H315.792V98.0867H348.138V96.3955Z" fill="#BD1CFF"/>
<path d="M417.376 398.944H213.702C204.605 398.944 196.519 391.503 196.014 382.201L177.819 118.889C177.145 109.757 184.221 102.146 193.318 102.146H396.992C406.089 102.146 414.175 109.588 414.681 118.889L432.707 382.201C433.38 391.333 426.473 398.944 417.376 398.944Z" fill="#BD1CFF"/>
<path d="M213.197 393.362C207.132 393.362 201.741 388.458 201.404 382.2L183.378 118.888C183.041 112.8 187.59 107.727 193.655 107.727H397.329C403.393 107.727 408.784 112.631 409.121 118.888L427.147 382.2C427.484 388.289 422.935 393.362 416.871 393.362H213.197Z" fill="white"/>
<g opacity="0.2">
<g opacity="0.2">
<path opacity="0.2" d="M405.753 238.114H220.61L213.703 136.307H398.845L405.753 238.114ZM221.789 236.761H404.236L397.498 137.829H215.05L221.789 236.761Z" fill="#BD1CFF"/>
<path opacity="0.2" d="M399.182 152.035H215.387L215.218 150.682H399.013L399.182 152.035Z" fill="#BD1CFF"/>
<path opacity="0.2" d="M400.193 166.41H216.398L216.229 165.057H400.025L400.193 166.41Z" fill="#BD1CFF"/>
<path opacity="0.2" d="M401.204 180.783H217.409L217.24 179.43H401.035L401.204 180.783Z" fill="#BD1CFF"/>
<path opacity="0.2" d="M402.214 195.158H218.25V193.805H402.046L402.214 195.158Z" fill="#BD1CFF"/>
<path opacity="0.2" d="M403.057 209.534H219.262V208.012H403.057V209.534Z" fill="#BD1CFF"/>
<path opacity="0.2" d="M404.068 223.74H220.272V222.387H404.068V223.74Z" fill="#BD1CFF"/>
</g>
<g opacity="0.2">
<path opacity="0.2" d="M211.007 144.932H196.688V143.579H210.839L211.007 144.932Z" fill="#BD1CFF"/>
<path opacity="0.2" d="M212.018 159.305H197.698V157.952H211.849L212.018 159.305Z" fill="#BD1CFF"/>
<path opacity="0.2" d="M212.861 173.681H198.709L198.541 172.159H212.861V173.681Z" fill="#BD1CFF"/>
<path opacity="0.2" d="M213.871 187.885H199.72L199.551 186.532H213.871V187.885Z" fill="#BD1CFF"/>
<path opacity="0.2" d="M214.882 202.262H200.73L200.562 200.909H214.882V202.262Z" fill="#BD1CFF"/>
<path opacity="0.2" d="M215.893 216.637H201.742L201.573 215.284H215.724L215.893 216.637Z" fill="#BD1CFF"/>
<path opacity="0.2" d="M216.903 231.012H202.583V229.659H216.735L216.903 231.012Z" fill="#BD1CFF"/>
</g>
</g>
<path d="M221.62 238.115L220.777 236.931L242.846 223.571L249.585 216.806L264.578 203.446L279.909 209.365L295.744 182.983L317.308 188.733L345.104 170.3L358.919 176.219L395.475 157.954L396.149 159.138L359.087 177.741L345.273 171.822L317.645 190.255L296.418 184.674L280.582 211.056L264.915 205.137L250.596 217.821L243.689 224.755L221.62 238.115Z" fill="#E1E1E1"/>
<path d="M221.788 237.946L220.609 236.931L241.835 212.748L247.9 199.05L268.284 210.888L277.382 188.395L295.239 171.991L317.645 184.844L344.262 159.308L363.299 170.638L394.128 140.874L395.138 142.058L363.635 172.499L344.599 160.999L317.982 186.535L295.407 173.851L278.561 189.41L268.958 212.917L248.574 201.079L243.015 213.763L221.788 237.946Z" fill="#BD1CFF"/>
<path d="M276.876 311.172L292.038 259.761C314.107 267.54 329.774 288.172 331.459 311.172C333.312 337.554 315.792 360.384 290.185 365.12L276.876 311.172Z" fill="#E1E1E1"/>
<path d="M276.876 311.171L290.016 365.119C286.984 365.626 283.783 365.965 280.582 365.965C250.764 365.965 224.315 341.274 222.294 311.171C220.272 281.238 243.183 256.378 273.001 256.378C279.403 256.378 285.805 257.562 291.869 259.76L276.876 311.171Z" fill="#BD1CFF"/>
<path d="M368.69 306.604H352.518L356.561 365.795H372.902L368.69 306.604Z" fill="#E1E1E1"/>
<path d="M368.69 306.606H352.517L350.159 270.415H366.331L368.69 306.606Z" fill="#BD1CFF"/>
<path d="M396.992 317.429H380.819L384.189 365.796H400.361L396.992 317.429Z" fill="#E1E1E1"/>
<path d="M396.992 317.428H380.819L379.303 295.104H395.476L396.992 317.428Z" fill="#BD1CFF"/>
<path d="M489.816 127.344C488.131 135.63 486.615 150.851 492.343 156.432C492.343 156.432 486.447 167.424 472.464 173.343C461.345 166.409 466.736 156.432 466.736 156.432C476.002 154.233 475.665 147.299 474.149 140.873L489.816 127.344Z" fill="#FF8B7B"/>
<path d="M495.206 161.336C501.271 157.108 501.608 149.329 501.608 149.329C501.608 149.329 479.707 143.748 467.746 147.13C464.04 150.005 458.312 155.248 458.312 155.248C458.312 155.248 459.829 158.63 466.567 160.829C473.306 162.689 495.206 161.336 495.206 161.336Z" fill="#1A2E35"/>
<path d="M520.645 167.762C524.688 173.681 528.394 179.6 531.932 185.857C535.47 192.114 538.671 198.372 541.703 204.967C542.377 206.658 543.051 208.349 543.725 210.041L544.23 211.393L544.399 212.07L544.567 212.408L544.736 213.085C545.241 214.776 545.409 216.467 545.409 217.82C545.241 220.864 544.399 223.062 543.388 225.092C542.377 227.121 541.366 228.812 540.187 230.334C535.47 236.592 529.911 241.158 523.846 245.386L519.297 239.974C523.509 234.9 527.721 229.489 530.753 224.077C531.427 222.724 532.101 221.371 532.438 220.187C532.775 219.004 532.943 217.989 532.943 217.482C532.943 217.312 532.775 217.143 532.775 217.143L532.606 216.805L532.269 216.298L531.764 215.114C531.09 213.592 530.248 212.07 529.574 210.717C528.058 207.673 526.541 204.798 524.857 201.923C523.172 199.048 521.487 196.004 519.803 193.129C516.265 187.379 512.559 181.46 509.021 176.048L520.645 167.762Z" fill="#FF8B7B"/>
<path d="M521.824 238.453L506.831 237.27L515.085 248.769C515.085 248.769 524.014 247.755 526.035 242.174L521.824 238.453Z" fill="#FF8B7B"/>
<path d="M497.06 243.865L504.473 252.997L517.276 248.431L506.831 237.27L497.06 243.865Z" fill="#FF8B7B"/>
<path d="M515.254 159.308L505.652 172.329L506.326 188.395L522.498 203.108C522.498 203.108 530.753 197.189 537.997 191.101C529.068 170.469 520.814 160.999 515.254 159.308Z" fill="#BD1CFF"/>
<path opacity="0.2" d="M511.716 171.822L506.662 188.903L512.053 193.807C511.379 181.8 511.716 171.822 511.716 171.822Z" fill="black"/>
<path d="M441.467 169.285C441.298 179.432 442.646 200.571 449.721 244.203H506.325C505.315 221.034 504.304 206.659 515.254 159.138C515.254 159.138 504.472 156.77 492.343 156.263C482.909 155.756 474.991 155.418 466.736 156.263C461.177 156.77 455.281 157.616 450.732 158.462C445.51 159.476 441.635 164.042 441.467 169.285Z" fill="#BD1CFF"/>
<path opacity="0.2" d="M452.585 173.344L442.478 189.748C442.983 195.667 443.825 202.601 444.836 211.056L453.091 206.152C456.46 181.123 452.585 173.344 452.585 173.344Z" fill="black"/>
<path d="M454.101 177.741C451.911 185.521 449.384 193.469 446.857 201.248C444.33 209.028 441.803 216.807 439.108 224.586L438.603 226.108L437.76 227.969C437.255 229.152 436.581 230.336 435.907 231.351C434.559 233.549 433.043 235.41 431.359 237.101C427.989 240.652 424.115 243.189 420.072 245.218C411.985 249.277 403.899 251.476 395.139 252.49L393.959 245.557C397.497 244.542 401.203 243.02 404.741 241.498C408.279 239.976 411.648 238.115 414.512 236.086C417.545 234.057 420.24 231.689 422.43 229.152C423.441 227.799 424.452 226.616 425.125 225.094C425.462 224.417 425.799 223.741 426.136 223.064L426.473 222.05L426.81 220.528C428.832 212.748 431.022 204.8 433.38 197.021C435.57 189.241 437.929 181.462 440.456 173.683L454.101 177.741Z" fill="#FF8B7B"/>
<path d="M455.954 169.962C453.596 164.212 446.015 160.491 446.015 160.491C437.929 165.734 434.728 171.315 429.337 198.035C437.929 201.924 450.563 201.924 450.563 201.924L457.471 183.998C457.639 183.829 458.313 175.712 455.954 169.962Z" fill="#BD1CFF"/>
<path d="M397.16 244.541L383.177 244.372L392.106 255.365C392.106 255.365 400.866 253.673 402.719 248.262L397.16 244.541Z" fill="#FF8B7B"/>
<path d="M373.744 251.475L381.662 260.269L392.106 255.365L383.009 244.372L373.744 251.475Z" fill="#FF8B7B"/>
<path d="M460.335 110.094C460.166 111.278 459.324 111.954 458.65 111.954C457.976 111.785 457.471 110.77 457.639 109.756C457.808 108.572 458.65 107.896 459.324 107.896C460.166 107.896 460.503 108.91 460.335 110.094Z" fill="#1A2E35"/>
<path d="M459.661 107.898L457.134 106.714C457.134 106.714 458.145 109.082 459.661 107.898Z" fill="#1A2E35"/>
<path d="M459.829 103.161C459.661 103.161 459.492 102.992 459.492 102.823C459.324 102.485 459.492 102.146 459.829 101.977C463.03 100.286 465.726 101.977 465.894 101.977C466.231 102.146 466.231 102.654 466.063 102.823C465.894 103.161 465.557 103.161 465.22 102.992C465.052 102.992 463.03 101.808 460.503 102.992C460.166 103.161 459.998 103.161 459.829 103.161Z" fill="#1A2E35"/>
<path d="M460.334 113.646C460.334 113.646 457.639 118.043 455.112 120.072C456.291 121.763 458.987 121.594 458.987 121.594L460.334 113.646Z" fill="#FF5551"/>
<path d="M498.407 112.125C495.206 125.654 494.027 131.404 485.941 137.154C473.811 145.779 457.976 138.845 457.133 124.64C456.459 111.956 461.85 92.0005 476.001 88.9564C490.152 86.0814 501.777 98.5959 498.407 112.125Z" fill="#FF8B7B"/>
<path d="M511.325 118.524C512.631 107.111 504.474 96.795 493.104 95.483C481.735 94.1711 471.458 102.36 470.152 113.774C468.845 125.187 477.002 135.503 488.372 136.815C499.741 138.127 510.018 129.938 511.325 118.524Z" fill="#1A2E35"/>
<path d="M476.507 112.799C491.669 102.822 514.917 97.41 509.863 81.8514C505.82 69.3368 487.12 68.6604 472.801 74.5794C453.259 82.5278 461.514 122.777 476.507 112.799Z" fill="#1A2E35"/>
<path d="M495.881 90.4769C495.544 90.4769 495.376 90.3078 495.207 90.1386L479.203 67.8154C478.866 67.4772 479.035 66.9699 479.372 66.6316C479.709 66.2934 480.214 66.4625 480.551 66.8008L496.555 89.124C496.892 89.4622 496.723 89.9695 496.386 90.3078C496.218 90.4769 496.05 90.4769 495.881 90.4769Z" fill="#BD1CFF"/>
<path d="M505.651 96.2278C505.483 96.2278 505.315 96.2278 505.146 96.0587C504.809 95.7205 504.641 95.2132 504.978 94.8749L520.982 72.5517C521.319 72.2135 521.824 72.0444 522.161 72.3826C522.498 72.7208 522.666 73.2282 522.33 73.5664L506.325 95.8896C506.157 96.0587 505.82 96.2278 505.651 96.2278Z" fill="#BD1CFF"/>
<path d="M513.85 119.648C525.151 112.598 529.734 99.4877 524.087 90.3643C518.439 81.2409 504.7 79.5596 493.399 86.609C482.098 93.6584 477.515 106.769 483.162 115.892C488.809 125.016 502.549 126.697 513.85 119.648Z" fill="#1A2E35"/>
<path d="M449.721 244.372C449.721 244.372 454.438 349.562 455.449 392.179C456.46 436.487 456.797 539.985 456.797 539.985H467.915C467.915 539.985 485.773 453.906 480.382 392.179C488.3 344.657 493.691 244.372 493.691 244.372H449.721Z" fill="#FF8B7B"/>
<path d="M464.546 244.372C464.546 244.372 491.164 354.635 501.946 395.73C513.401 439.024 528.732 536.772 528.9 539.985H538.502C538.502 539.985 541.535 427.016 526.205 388.627C526.205 340.429 506.326 244.372 506.326 244.372H464.546Z" fill="#FF8B7B"/>
<path d="M532.101 537.281C540.355 535.928 540.355 539.986 541.029 544.214C541.366 546.751 541.198 549.457 539.85 551.825C537.155 556.729 539.85 563.832 530.584 563.832C521.319 563.832 520.477 561.802 522.667 557.405C525.025 553.008 526.204 548.442 527.047 543.538C527.721 541.17 528.394 537.957 532.101 537.281Z" fill="#1A2E35"/>
<path d="M540.524 545.567C540.693 551.148 541.198 564.001 541.198 564.001H539.682C539.682 564.001 537.997 550.303 536.986 546.582L540.524 545.567Z" fill="#1A2E35"/>
<path d="M474.822 116.858C473.812 119.564 471.453 121.424 469.432 122.27C466.062 123.623 464.041 120.748 464.715 117.366C465.22 114.321 467.578 110.094 471.116 110.263C474.485 110.432 476.17 113.814 474.822 116.858Z" fill="#FF8B7B"/>
<g opacity="0.2">
<path opacity="0.2" d="M455.28 386.935C455.28 388.796 455.449 390.487 455.449 392.178C455.617 399.112 455.786 407.229 455.786 416.361L481.392 410.273C481.224 404.016 481.055 398.097 480.55 392.178C481.055 389.134 481.561 385.751 482.066 382.369L455.28 386.935Z" fill="black"/>
<path opacity="0.2" d="M526.204 388.627C526.204 384.399 526.036 379.833 525.699 374.929L497.733 379.664C499.25 385.752 500.766 391.164 501.945 395.73C502.619 398.605 503.461 401.48 504.135 404.862L529.405 398.774C528.562 395.053 527.383 391.671 526.204 388.627Z" fill="black"/>
</g>
<path d="M449.721 244.372L451.406 411.965L530.584 395.054C531.764 299.335 524.351 266.357 506.325 244.372H449.721Z" fill="#1A2E35"/>
<path opacity="0.2" d="M503.125 285.635C503.125 285.635 487.794 298.488 468.926 302.715C488.468 301.362 498.408 295.782 503.125 285.635Z" fill="black"/>
<path d="M447.531 233.717C447.363 235.409 448.542 243.526 448.542 244.541C448.71 245.555 448.879 253.335 449.216 255.026C449.553 256.717 514.243 255.702 512.895 252.997C511.548 250.291 507.505 244.879 507.505 243.695C507.505 242.511 506.999 233.717 506.494 233.041C506.157 232.364 447.868 231.012 447.531 233.717Z" fill="#BD1CFF"/>
<path opacity="0.2" d="M447.531 233.717C447.363 235.409 448.542 243.526 448.542 244.541C448.71 245.555 448.879 253.335 449.216 255.026C449.553 256.717 514.243 255.702 512.895 252.997C511.548 250.291 507.505 244.879 507.505 243.695C507.505 242.511 506.999 233.717 506.494 233.041C506.157 232.364 447.868 231.012 447.531 233.717Z" fill="white"/>
<path d="M456.797 535.926C453.933 544.382 445.51 559.264 445.51 559.264L461.514 554.867L469.263 542.521L467.579 539.308L456.797 535.926Z" fill="#FF8B7B"/>
<path d="M469.937 538.296C470.611 539.649 470.948 541.34 470.948 542.862C470.779 548.612 470.274 563.832 470.274 563.832H468.926C468.926 563.832 468.926 553.516 468.252 549.795C467.578 546.075 465.894 552.67 463.367 556.391C460.84 560.111 455.954 563.494 447.194 563.832C436.918 564.001 432.875 563.663 435.738 561.126C438.771 558.589 445.509 557.067 445.509 557.067C445.509 557.067 454.27 557.237 458.987 548.781C462.019 543.369 465.725 537.788 468.252 536.604C468.926 536.774 469.432 537.45 469.937 538.296Z" fill="#1A2E35"/>
</svg>
